<svg xmlns="http://www.w3.org/2000/svg" viewBox="0 0 100 100"><defs><style>.cls-1{fill:#69d7f9;}.cls-2,.cls-3{fill:none;stroke:#3a00ba;stroke-miterlimit:10;}.cls-2{stroke-width:2px;}</style></defs><g id="Layer_5" data-name="Layer 5"><path class="cls-1" d="M77.13,35.94s-4.26,9.5-31.09,9.5H76.47A8.69,8.69,0,0,0,77.13,35.94Z"/><path class="cls-1" d="M70.58,17.94s9,1.15,9,8.84h4.59V22.36S86,16.8,70.58,17.94Z"/><polygon class="cls-1" points="79.58 29.4 79.58 61.15 83.84 61.15 83.84 29.56 79.58 29.4"/><path class="cls-1" d="M66.17,67S62.16,76,48.08,76H66.66l.16-8.75"/></g><g id="Layer_2" data-name="Layer 2"><path class="cls-2" d="M84.09,22.9v3.56H14.5V22.93A4.92,4.92,0,0,1,19.43,18h59.7A4.93,4.93,0,0,1,84.09,22.9Z"/><path class="cls-2" d="M84.09,60.82V29.42H14.49V72a4.4,4.4,0,0,0,4.4,4.4H66.66"/><line class="cls-2" x1="17.94" y1="22.44" x2="21.81" y2="22.44"/><line class="cls-2" x1="23.3" y1="22.44" x2="27.17" y2="22.44"/><line class="cls-2" x1="28.67" y1="22.44" x2="32.53" y2="22.44"/><g id="Layer_2-2" data-name="Layer 2"><path class="cls-2" d="M24,34.43H74.6c2,0,3.62,2.22,3.63,5v1.76c0,2.48-1.44,4.49-3.22,4.49H23.57c-1.78,0-3.22-2-3.22-4.49V39.46c0-2.78,1.62-5,3.61-5Z"/></g><line class="cls-3" x1="34.41" y1="36.6" x2="34.41" y2="42.98"/><line class="cls-3" x1="37.6" y1="39.79" x2="31.22" y2="39.79"/><line class="cls-3" x1="36.15" y1="38.05" x2="32.68" y2="41.52"/><line class="cls-3" x1="36.15" y1="41.52" x2="32.68" y2="38.05"/><line class="cls-3" x1="44.33" y1="36.6" x2="44.33" y2="42.98"/><line class="cls-3" x1="47.52" y1="39.79" x2="41.14" y2="39.79"/><line class="cls-3" x1="46.06" y1="38.05" x2="42.59" y2="41.52"/><line class="cls-3" x1="46.06" y1="41.52" x2="42.59" y2="38.05"/><line class="cls-3" x1="54.25" y1="36.6" x2="54.25" y2="42.98"/><line class="cls-3" x1="57.44" y1="39.79" x2="51.06" y2="39.79"/><line class="cls-3" x1="55.98" y1="38.05" x2="52.51" y2="41.52"/><line class="cls-3" x1="55.98" y1="41.52" x2="52.51" y2="38.05"/><line class="cls-3" x1="64.17" y1="36.6" x2="64.17" y2="42.98"/><line class="cls-3" x1="67.36" y1="39.79" x2="60.98" y2="39.79"/><line class="cls-3" x1="65.9" y1="38.05" x2="62.43" y2="41.52"/><line class="cls-3" x1="65.9" y1="41.52" x2="62.43" y2="38.05"/><rect class="cls-2" x="36.53" y="52.77" width="25.52" height="10.01"/><path class="cls-2" d="M87,81.32l-7.27,5.39a2.49,2.49,0,0,1-2.88,0l-7.27-5.39a7.59,7.59,0,0,1-2.75-5.71V61.25H89.76V75.61A7.56,7.56,0,0,1,87,81.32Z"/><path class="cls-2" d="M75.55,70v-2A2.44,2.44,0,0,1,78,65.61h.63a2.44,2.44,0,0,1,2.44,2.44v2"/><rect class="cls-2" x="72.5" y="70.03" width="11.59" height="7.6"/></g></svg>