<?xml version="1.0" encoding="utf-8"?>
<!-- Generator: Adobe Illustrator 24.0.0, SVG Export Plug-In . SVG Version: 6.00 Build 0)  -->
<svg version="1.1" id="Layer_1" xmlns="http://www.w3.org/2000/svg" xmlns:xlink="http://www.w3.org/1999/xlink" x="0px" y="0px"
	 viewBox="0 0 256 256" style="enable-background:new 0 0 256 256;" xml:space="preserve">
<style type="text/css">
	.st0{fill:#382B73;}
	.st1{fill:#291B4A;}
	.st2{fill:#ED9ABC;}
	.st3{fill:#E54890;}
	.st4{fill:#D3D3D3;}
	.st5{fill:#EBE7F2;}
	.st6{fill:#F9B087;}
	.st7{fill:#FF8639;}
	.st8{fill:#65C1D6;}
	.st9{fill:#149CB2;}
</style>
<g>
	<g>
		<g>
			<g>
				<g>
					<circle class="st0" cx="128" cy="128" r="119.4"/>
				</g>
			</g>
		</g>
	</g>
	<g>
		<g>
			<g>
				<g>
					<path class="st1" d="M199.469,179.185c3.369,0,6.109-2.741,6.109-6.109V69.63c0-3.369-2.74-6.109-6.109-6.109H56.531
						c-3.369,0-6.109,2.741-6.109,6.109v103.445c0,3.369,2.741,6.109,6.109,6.109H199.469z M55.421,173.075V69.63
						c0-0.612,0.498-1.109,1.109-1.109h142.938c0.611,0,1.109,0.498,1.109,1.109v103.445c0,0.612-0.498,1.109-1.109,1.109H56.531
						C55.919,174.185,55.421,173.687,55.421,173.075z"/>
				</g>
			</g>
		</g>
		<g>
			<g>
				<g>
					<path class="st1" d="M189.979,158.669c1.381,0,2.5-1.119,2.5-2.5V78.98c0-1.381-1.119-2.5-2.5-2.5H66.021
						c-1.381,0-2.5,1.119-2.5,2.5v77.189c0,1.381,1.119,2.5,2.5,2.5H189.979z M68.521,81.48h118.958v72.189H68.521V81.48z"/>
				</g>
			</g>
		</g>
		<g>
			<g>
				<g>
					<path class="st1" d="M116.28,185.327c0.083-1.378-0.966-2.563-2.344-2.647c-1.371-0.07-2.563,0.966-2.647,2.344
						c-0.321,5.281-3.792,10.083-10.584,14.664h-7.959c-4.317,0-7.829,3.512-7.829,7.829s3.512,7.829,7.829,7.829h70.508
						c4.317,0,7.829-3.512,7.829-7.829s-3.512-7.829-7.829-7.829h-7.958c-6.792-4.581-10.264-9.382-10.586-14.664
						c-0.084-1.378-1.265-2.421-2.647-2.344c-1.378,0.084-2.427,1.27-2.343,2.647c0.319,5.24,2.782,9.98,7.489,14.36h-38.417
						C113.498,195.307,115.961,190.567,116.28,185.327z M154.53,204.688c0.002,0,0.004,0,0.006,0h8.718
						c1.56,0,2.829,1.269,2.829,2.829s-1.27,2.829-2.829,2.829H92.746c-1.56,0-2.829-1.269-2.829-2.829s1.269-2.829,2.829-2.829
						h8.718c0.002,0,0.004,0,0.006,0H154.53z"/>
				</g>
			</g>
		</g>
		<g>
			<g>
				<g>
					<path class="st1" d="M104.631,103.47c0-5.951-4.841-10.792-10.792-10.792S83.048,97.52,83.048,103.47
						s4.841,10.792,10.792,10.792S104.631,109.421,104.631,103.47z M88.048,103.47c0-3.193,2.598-5.792,5.792-5.792
						s5.792,2.598,5.792,5.792c0,3.194-2.598,5.792-5.792,5.792S88.048,106.664,88.048,103.47z"/>
				</g>
			</g>
		</g>
		<g>
			<g>
				<g>
					<path class="st1" d="M102.131,143.321c1.381,0,2.5-1.119,2.5-2.5v-16.583c0-1.381-1.119-2.5-2.5-2.5H85.548
						c-1.381,0-2.5,1.119-2.5,2.5v16.583c0,1.381,1.119,2.5,2.5,2.5H102.131z M88.048,126.738h11.583v11.583H88.048V126.738z"/>
				</g>
			</g>
		</g>
		<g>
			<g>
				<g>
					<path class="st1" d="M136.292,114.262c1.381,0,2.5-1.119,2.5-2.5V95.179c0-1.381-1.119-2.5-2.5-2.5h-16.583
						c-1.381,0-2.5,1.119-2.5,2.5v16.583c0,1.381,1.119,2.5,2.5,2.5H136.292z M122.208,97.679h11.583v11.583h-11.583V97.679z"/>
				</g>
			</g>
		</g>
		<g>
			<g>
				<g>
					<path class="st1" d="M138.792,132.53c0-5.951-4.841-10.792-10.792-10.792c-5.951,0-10.792,4.841-10.792,10.792
						s4.841,10.792,10.792,10.792C133.951,143.321,138.792,138.48,138.792,132.53z M122.208,132.53c0-3.194,2.598-5.792,5.792-5.792
						s5.792,2.598,5.792,5.792c0,3.193-2.599,5.792-5.792,5.792S122.208,135.723,122.208,132.53z"/>
				</g>
			</g>
		</g>
		<g>
			<g>
				<g>
					<path class="st1" d="M172.952,103.47c0-5.951-4.841-10.792-10.791-10.792c-5.951,0-10.792,4.841-10.792,10.792
						s4.841,10.792,10.792,10.792C168.111,114.262,172.952,109.421,172.952,103.47z M156.369,103.47
						c0-3.193,2.599-5.792,5.792-5.792s5.791,2.598,5.791,5.792c0,3.194-2.598,5.792-5.791,5.792S156.369,106.664,156.369,103.47z"
						/>
				</g>
			</g>
		</g>
		<g>
			<g>
				<g>
					<path class="st1" d="M170.452,143.321c1.381,0,2.5-1.119,2.5-2.5v-16.583c0-1.381-1.119-2.5-2.5-2.5h-16.583
						c-1.381,0-2.5,1.119-2.5,2.5v16.583c0,1.381,1.119,2.5,2.5,2.5H170.452z M156.369,126.738h11.583v11.583h-11.583V126.738z"/>
				</g>
			</g>
		</g>
	</g>
	<g>
		<g>
			<g>
				<g>
					<g>
						<path class="st8" d="M116.28,181.327c0.083-1.378-0.966-2.563-2.344-2.647c-1.371-0.08-2.563,0.966-2.647,2.344
							c-0.331,5.438-3.99,10.368-11.187,15.071c-0.926,0.605-1.344,1.747-1.028,2.806c0.315,1.06,1.29,1.787,2.396,1.787h53.061
							c1.105,0,2.08-0.727,2.396-1.787c0.315-1.06-0.104-2.201-1.028-2.806c-7.197-4.704-10.857-9.633-11.188-15.071
							c-0.084-1.378-1.265-2.429-2.647-2.344c-1.378,0.084-2.427,1.27-2.343,2.647c0.319,5.24,2.782,9.98,7.489,14.36h-38.418
							C113.498,191.308,115.961,186.567,116.28,181.327z"/>
					</g>
				</g>
			</g>
			<g>
				<g>
					<g>
						<g>
							<g>
								<path class="st8" d="M199.469,175.185c3.369,0,6.109-2.741,6.109-6.109V65.63c0-3.369-2.74-6.109-6.109-6.109H56.531
									c-3.369,0-6.109,2.741-6.109,6.109v103.445c0,3.369,2.741,6.109,6.109,6.109H199.469z M55.421,169.075V65.63
									c0-0.612,0.498-1.109,1.109-1.109h142.938c0.611,0,1.109,0.498,1.109,1.109v103.445c0,0.612-0.498,1.109-1.109,1.109H56.531
									C55.919,170.185,55.421,169.687,55.421,169.075z"/>
							</g>
						</g>
					</g>
					<g>
						<g>
							<g>
								<path class="st8" d="M189.979,154.669c1.381,0,2.5-1.119,2.5-2.5V74.98c0-1.381-1.119-2.5-2.5-2.5H66.021
									c-1.381,0-2.5,1.119-2.5,2.5v77.189c0,1.381,1.119,2.5,2.5,2.5H189.979z M68.521,77.48h118.958v72.189H68.521V77.48z"/>
							</g>
						</g>
					</g>
				</g>
			</g>
			<g>
				<g>
					<g>
						<path class="st8" d="M163.254,211.345c4.317,0,7.829-3.512,7.829-7.829s-3.512-7.829-7.829-7.829H92.746
							c-4.317,0-7.829,3.512-7.829,7.829s3.512,7.829,7.829,7.829H163.254z M89.917,203.516c0-1.56,1.269-2.829,2.829-2.829h70.508
							c1.56,0,2.829,1.269,2.829,2.829s-1.27,2.829-2.829,2.829H92.746C91.186,206.345,89.917,205.076,89.917,203.516z"/>
					</g>
				</g>
			</g>
		</g>
		<g>
			<g>
				<g>
					<path class="st4" d="M104.631,99.47c0-5.951-4.841-10.792-10.792-10.792S83.048,93.52,83.048,99.47s4.841,10.792,10.792,10.792
						S104.631,105.421,104.631,99.47z M88.048,99.47c0-3.193,2.598-5.792,5.792-5.792s5.792,2.598,5.792,5.792
						c0,3.194-2.598,5.792-5.792,5.792S88.048,102.664,88.048,99.47z"/>
				</g>
			</g>
		</g>
		<g>
			<g>
				<g>
					<path class="st6" d="M102.131,139.321c1.381,0,2.5-1.119,2.5-2.5v-16.583c0-1.381-1.119-2.5-2.5-2.5H85.548
						c-1.381,0-2.5,1.119-2.5,2.5v16.583c0,1.381,1.119,2.5,2.5,2.5H102.131z M88.048,122.738h11.583v11.583H88.048V122.738z"/>
				</g>
			</g>
		</g>
		<g>
			<g>
				<g>
					<path class="st6" d="M136.292,110.262c1.381,0,2.5-1.119,2.5-2.5V91.179c0-1.381-1.119-2.5-2.5-2.5h-16.583
						c-1.381,0-2.5,1.119-2.5,2.5v16.583c0,1.381,1.119,2.5,2.5,2.5H136.292z M122.208,93.679h11.583v11.583h-11.583V93.679z"/>
				</g>
			</g>
		</g>
		<g>
			<g>
				<g>
					<path class="st4" d="M138.792,128.53c0-5.951-4.841-10.792-10.792-10.792c-5.951,0-10.792,4.841-10.792,10.792
						s4.841,10.792,10.792,10.792C133.951,139.321,138.792,134.48,138.792,128.53z M122.208,128.53c0-3.194,2.598-5.792,5.792-5.792
						s5.792,2.598,5.792,5.792c0,3.193-2.599,5.792-5.792,5.792S122.208,131.723,122.208,128.53z"/>
				</g>
			</g>
		</g>
		<g>
			<g>
				<g>
					<path class="st4" d="M172.952,99.47c0-5.951-4.841-10.792-10.791-10.792c-5.951,0-10.792,4.841-10.792,10.792
						s4.841,10.792,10.792,10.792C168.111,110.262,172.952,105.421,172.952,99.47z M156.369,99.47c0-3.193,2.599-5.792,5.792-5.792
						s5.791,2.598,5.791,5.792c0,3.194-2.598,5.792-5.791,5.792S156.369,102.664,156.369,99.47z"/>
				</g>
			</g>
		</g>
		<g>
			<g>
				<g>
					<path class="st6" d="M170.452,139.321c1.381,0,2.5-1.119,2.5-2.5v-16.583c0-1.381-1.119-2.5-2.5-2.5h-16.583
						c-1.381,0-2.5,1.119-2.5,2.5v16.583c0,1.381,1.119,2.5,2.5,2.5H170.452z M156.369,122.738h11.583v11.583h-11.583V122.738z"/>
				</g>
			</g>
		</g>
		<g>
			<g>
				<g>
					<g>
						<path class="st7" d="M102.131,139.321c1.381,0,2.5-1.119,2.5-2.5v-16.583c0-1.381-1.119-2.5-2.5-2.5H85.548
							c-1.381,0-2.5,1.119-2.5,2.5v16.583c0,1.381,1.119,2.5,2.5,2.5H102.131z M84.548,136.821v-16.583c0-0.552,0.449-1,1-1h16.583
							c0.551,0,1,0.448,1,1v16.583c0,0.552-0.449,1-1,1H85.548C84.996,137.821,84.548,137.373,84.548,136.821z"/>
						<path class="st7" d="M88.048,135.821h11.583c0.828,0,1.5-0.672,1.5-1.5v-11.583c0-0.828-0.672-1.5-1.5-1.5H88.048
							c-0.828,0-1.5,0.672-1.5,1.5v11.583C86.548,135.15,87.219,135.821,88.048,135.821z M88.048,122.738h11.583v11.583H88.048
							V122.738z"/>
					</g>
				</g>
			</g>
		</g>
		<g>
			<g>
				<g>
					<g>
						<path class="st7" d="M122.208,106.762h11.583c0.828,0,1.5-0.672,1.5-1.5V93.679c0-0.828-0.672-1.5-1.5-1.5h-11.583
							c-0.828,0-1.5,0.672-1.5,1.5v11.583C120.708,106.091,121.38,106.762,122.208,106.762z M122.208,93.679h11.583v11.583h-11.583
							V93.679z"/>
						<path class="st7" d="M136.292,110.262c1.381,0,2.5-1.119,2.5-2.5V91.179c0-1.381-1.119-2.5-2.5-2.5h-16.583
							c-1.381,0-2.5,1.119-2.5,2.5v16.583c0,1.381,1.119,2.5,2.5,2.5H136.292z M118.708,107.762V91.179c0-0.552,0.449-1,1-1h16.583
							c0.551,0,1,0.448,1,1v16.583c0,0.552-0.449,1-1,1h-16.583C119.157,108.762,118.708,108.314,118.708,107.762z"/>
					</g>
				</g>
			</g>
		</g>
		<g>
			<g>
				<g>
					<g>
						<path class="st7" d="M170.452,139.321c1.381,0,2.5-1.119,2.5-2.5v-16.583c0-1.381-1.119-2.5-2.5-2.5h-16.583
							c-1.381,0-2.5,1.119-2.5,2.5v16.583c0,1.381,1.119,2.5,2.5,2.5H170.452z M152.869,136.821v-16.583c0-0.552,0.449-1,1-1h16.583
							c0.551,0,1,0.448,1,1v16.583c0,0.552-0.449,1-1,1h-16.583C153.318,137.821,152.869,137.373,152.869,136.821z"/>
						<path class="st7" d="M156.369,135.821h11.583c0.828,0,1.5-0.672,1.5-1.5v-11.583c0-0.828-0.672-1.5-1.5-1.5h-11.583
							c-0.828,0-1.5,0.672-1.5,1.5v11.583C154.869,135.15,155.541,135.821,156.369,135.821z M156.369,122.738h11.583v11.583h-11.583
							V122.738z"/>
					</g>
				</g>
			</g>
		</g>
		<g>
			<g>
				<g>
					<g>
						<path class="st9" d="M199.469,171.685c1.439,0,2.609-1.171,2.609-2.609V65.63c0-1.439-1.171-2.609-2.609-2.609H56.531
							c-1.439,0-2.609,1.171-2.609,2.609v103.445c0,1.439,1.171,2.609,2.609,2.609H199.469z M55.421,169.075V65.63
							c0-0.612,0.498-1.109,1.109-1.109h142.938c0.611,0,1.109,0.498,1.109,1.109v103.445c0,0.612-0.498,1.109-1.109,1.109H56.531
							C55.919,170.185,55.421,169.687,55.421,169.075z"/>
						<path class="st9" d="M199.469,175.185c3.369,0,6.109-2.741,6.109-6.109V65.63c0-3.369-2.74-6.109-6.109-6.109H56.531
							c-3.369,0-6.109,2.741-6.109,6.109v103.445c0,3.369,2.741,6.109,6.109,6.109H199.469z M51.921,169.075V65.63
							c0-2.542,2.068-4.609,4.609-4.609h142.938c2.542,0,4.609,2.068,4.609,4.609v103.445c0,2.542-2.068,4.609-4.609,4.609H56.531
							C53.989,173.685,51.921,171.617,51.921,169.075z"/>
					</g>
				</g>
			</g>
			<g>
				<g>
					<g>
						<path class="st9" d="M68.521,151.169h118.958c0.828,0,1.5-0.672,1.5-1.5V77.48c0-0.828-0.672-1.5-1.5-1.5H68.521
							c-0.828,0-1.5,0.672-1.5,1.5v72.189C67.021,150.497,67.693,151.169,68.521,151.169z M68.521,77.48h118.958v72.189H68.521
							V77.48z"/>
						<path class="st9" d="M189.979,154.669c1.381,0,2.5-1.119,2.5-2.5V74.98c0-1.381-1.119-2.5-2.5-2.5H66.021
							c-1.381,0-2.5,1.119-2.5,2.5v77.189c0,1.381,1.119,2.5,2.5,2.5H189.979z M65.021,152.169V74.98c0-0.552,0.449-1,1-1h123.958
							c0.551,0,1,0.448,1,1v77.189c0,0.552-0.449,1-1,1H66.021C65.47,153.169,65.021,152.72,65.021,152.169z"/>
					</g>
				</g>
			</g>
			<g>
				<g>
					<g>
						<path class="st9" d="M116.28,181.327c0.083-1.378-0.966-2.563-2.344-2.647c-0.049-0.003-0.098-0.004-0.147-0.004
							c-1.309,0-2.42,1.019-2.501,2.348c-0.321,5.281-3.792,10.083-10.584,14.664h-7.959c-4.317,0-7.829,3.512-7.829,7.829
							s3.512,7.829,7.829,7.829h70.508c4.317,0,7.829-3.512,7.829-7.829s-3.512-7.829-7.829-7.829h-7.958
							c-6.792-4.581-10.264-9.382-10.586-14.664c-0.081-1.325-1.176-2.349-2.49-2.349l0,1.5c0.525,0,0.961,0.413,0.993,0.94
							c0.352,5.777,4.03,10.95,11.244,15.816c0.248,0.167,0.54,0.256,0.839,0.256h7.958c3.49,0,6.329,2.839,6.329,6.329
							s-2.839,6.329-6.329,6.329H92.746c-3.49,0-6.329-2.839-6.329-6.329s2.839-6.329,6.329-6.329h7.959
							c0.299,0,0.591-0.089,0.839-0.256c7.214-4.866,10.891-10.039,11.243-15.816c0.032-0.527,0.473-0.939,1.004-0.939l0.055,0.001
							c0.55,0.033,0.971,0.509,0.938,1.059c-0.296,4.869-2.59,9.237-7.013,13.353c-0.451,0.42-0.6,1.073-0.374,1.647
							s0.779,0.951,1.396,0.951h38.417c0.617,0,1.17-0.377,1.396-0.951s0.077-1.227-0.374-1.647
							c-4.423-4.115-6.717-8.483-7.013-13.353c-0.034-0.55,0.387-1.025,0.938-1.059l0.064-0.002l0.001-1.5
							c-0.052,0-0.104,0.002-0.157,0.005c-1.378,0.084-2.427,1.27-2.343,2.647c0.319,5.24,2.782,9.98,7.489,14.36h-38.417
							C113.498,191.307,115.961,186.567,116.28,181.327z"/>
						<path class="st9" d="M101.464,199.187h-8.718c-2.387,0-4.329,1.942-4.329,4.329s1.942,4.329,4.329,4.329h70.508
							c2.387,0,4.329-1.942,4.329-4.329s-1.942-4.329-4.329-4.329h-8.718c-0.012,0-0.025,0-0.037,0h-52.998
							C101.489,199.187,101.476,199.187,101.464,199.187z M154.53,200.688c0.002,0,0.004,0,0.006,0h8.718
							c1.56,0,2.829,1.269,2.829,2.829s-1.27,2.829-2.829,2.829H92.746c-1.56,0-2.829-1.269-2.829-2.829s1.269-2.829,2.829-2.829
							h8.718c0.002,0,0.004,0,0.006,0H154.53z"/>
					</g>
				</g>
			</g>
		</g>
		<g>
			<g>
				<g>
					<g>
						<path class="st5" d="M104.631,99.47c0-5.951-4.841-10.792-10.792-10.792S83.048,93.52,83.048,99.47
							s4.841,10.792,10.792,10.792S104.631,105.421,104.631,99.47z M84.548,99.47c0-5.123,4.168-9.292,9.292-9.292
							s9.292,4.168,9.292,9.292c0,5.124-4.168,9.292-9.292,9.292S84.548,104.594,84.548,99.47z"/>
						<path class="st5" d="M101.131,99.47c0-4.021-3.271-7.292-7.292-7.292s-7.292,3.271-7.292,7.292
							c0,4.021,3.271,7.292,7.292,7.292S101.131,103.491,101.131,99.47z M88.048,99.47c0-3.193,2.598-5.792,5.792-5.792
							s5.792,2.598,5.792,5.792c0,3.194-2.598,5.792-5.792,5.792S88.048,102.664,88.048,99.47z"/>
					</g>
				</g>
			</g>
		</g>
		<g>
			<g>
				<g>
					<g>
						<path class="st5" d="M135.292,128.53c0-4.021-3.271-7.292-7.292-7.292c-4.021,0-7.292,3.271-7.292,7.292
							c0,4.021,3.271,7.292,7.292,7.292C132.021,135.821,135.292,132.55,135.292,128.53z M122.208,128.53
							c0-3.194,2.598-5.792,5.792-5.792s5.792,2.598,5.792,5.792c0,3.193-2.599,5.792-5.792,5.792S122.208,131.723,122.208,128.53z"
							/>
						<path class="st5" d="M138.792,128.53c0-5.951-4.841-10.792-10.792-10.792c-5.951,0-10.792,4.841-10.792,10.792
							s4.841,10.792,10.792,10.792C133.951,139.321,138.792,134.48,138.792,128.53z M118.708,128.53
							c0-5.124,4.168-9.292,9.292-9.292c5.124,0,9.292,4.168,9.292,9.292c0,5.123-4.168,9.292-9.292,9.292
							C122.877,137.821,118.708,133.653,118.708,128.53z"/>
					</g>
				</g>
			</g>
		</g>
		<g>
			<g>
				<g>
					<g>
						<path class="st5" d="M169.452,99.47c0-4.021-3.271-7.292-7.291-7.292c-4.021,0-7.292,3.271-7.292,7.292
							c0,4.021,3.271,7.292,7.292,7.292C166.181,106.762,169.452,103.491,169.452,99.47z M156.369,99.47
							c0-3.193,2.599-5.792,5.792-5.792s5.791,2.598,5.791,5.792c0,3.194-2.598,5.792-5.791,5.792S156.369,102.664,156.369,99.47z"
							/>
						<path class="st5" d="M172.952,99.47c0-5.951-4.841-10.792-10.791-10.792c-5.951,0-10.792,4.841-10.792,10.792
							s4.841,10.792,10.792,10.792C168.111,110.262,172.952,105.421,172.952,99.47z M152.869,99.47c0-5.123,4.168-9.292,9.292-9.292
							c5.123,0,9.291,4.168,9.291,9.292c0,5.124-4.168,9.292-9.291,9.292C157.038,108.762,152.869,104.594,152.869,99.47z"/>
					</g>
				</g>
			</g>
		</g>
	</g>
</g>
</svg>
