<?xml version="1.0" encoding="utf-8"?>
<!-- Generator: Adobe Illustrator 24.0.0, SVG Export Plug-In . SVG Version: 6.00 Build 0)  -->
<svg version="1.1" id="Layer_1" xmlns="http://www.w3.org/2000/svg" xmlns:xlink="http://www.w3.org/1999/xlink" x="0px" y="0px"
	 viewBox="0 0 256 256" style="enable-background:new 0 0 256 256;" xml:space="preserve">
<style type="text/css">
	.st0{fill:#382B73;}
	.st1{fill:#291B4A;}
	.st2{fill:#ED9ABC;}
	.st3{fill:#E54890;}
	.st4{fill:#D3D3D3;}
	.st5{fill:#EBE7F2;}
	.st6{fill:#F9B087;}
	.st7{fill:#FF8639;}
	.st8{fill:#65C1D6;}
	.st9{fill:#149CB2;}
</style>
<g>
	<g>
		<g>
			<g>
				<g>
					
						<ellipse transform="matrix(0.7071 -0.7071 0.7071 0.7071 -53.0193 128)" class="st0" cx="128" cy="128" rx="119.4" ry="119.4"/>
				</g>
			</g>
		</g>
	</g>
	<g>
		<g>
			<g>
				<g>
					<path class="st1" d="M56.531,68.521h33.813c1.381,0,2.5-1.119,2.5-2.5s-1.119-2.5-2.5-2.5H56.531
						c-3.369,0-6.109,2.741-6.109,6.109v103.445c0,3.369,2.74,6.109,6.109,6.109h142.938c3.369,0,6.109-2.741,6.109-6.109V69.63
						c0-3.369-2.74-6.109-6.109-6.109h-33.813c-1.381,0-2.5,1.119-2.5,2.5s1.119,2.5,2.5,2.5h33.813
						c0.611,0,1.109,0.498,1.109,1.109v103.445c0,0.612-0.498,1.109-1.109,1.109H56.531c-0.611,0-1.109-0.498-1.109-1.109V69.63
						C55.422,69.018,55.92,68.521,56.531,68.521z"/>
				</g>
			</g>
		</g>
		<g>
			<g>
				<g>
					<path class="st1" d="M96.512,81.48c1.381,0,2.5-1.119,2.5-2.5s-1.119-2.5-2.5-2.5H66.021c-1.381,0-2.5,1.119-2.5,2.5v77.189
						c0,1.381,1.119,2.5,2.5,2.5h123.959c1.381,0,2.5-1.119,2.5-2.5V78.98c0-1.381-1.119-2.5-2.5-2.5h-30.807
						c-1.381,0-2.5,1.119-2.5,2.5s1.119,2.5,2.5,2.5h28.307v72.189h-16.834v-44.227c0-1.381-1.119-2.5-2.5-2.5H87.854
						c-1.381,0-2.5,1.119-2.5,2.5v44.227H68.521V81.48H96.512z M145.937,111.942h19.709v8.454h-19.709V111.942z M145.937,125.396
						h19.709v28.272h-19.709V125.396z M90.354,111.942h50.582v8.454H90.354V111.942z M90.354,125.396h50.582v28.272H90.354V125.396z
						"/>
				</g>
			</g>
		</g>
		<g>
			<g>
				<g>
					<path class="st1" d="M116.279,185.327c0.084-1.378-0.965-2.563-2.344-2.647c-1.398-0.081-2.563,0.966-2.646,2.344
						c-0.322,5.281-3.792,10.083-10.585,14.664h-7.958c-4.317,0-7.829,3.512-7.829,7.829s3.512,7.829,7.829,7.829h70.508
						c4.317,0,7.829-3.512,7.829-7.829s-3.512-7.829-7.829-7.829h-7.958c-6.792-4.581-10.264-9.382-10.586-14.664
						c-0.083-1.378-1.256-2.422-2.647-2.344c-1.378,0.084-2.427,1.27-2.343,2.647c0.319,5.24,2.782,9.98,7.489,14.36h-38.417
						C113.498,195.307,115.961,190.567,116.279,185.327z M163.254,204.687c1.56,0,2.829,1.269,2.829,2.829s-1.27,2.829-2.829,2.829
						H92.746c-1.56,0-2.829-1.269-2.829-2.829s1.27-2.829,2.829-2.829H163.254z"/>
				</g>
			</g>
		</g>
		<g>
			<g>
				<g>
					<path class="st1" d="M97.844,63.11v5.821c0,2.31,1.562,4.327,3.8,4.907l4.614,1.189l-2.423,4.105
						c-1.172,1.99-0.85,4.521,0.783,6.154l4.116,4.116c1.631,1.633,4.161,1.955,6.156,0.782l4.104-2.422l1.19,4.616
						c0.578,2.236,2.595,3.798,4.904,3.798h5.821c2.311,0,4.327-1.562,4.906-3.8l1.189-4.614l4.106,2.424
						c1.99,1.172,4.521,0.847,6.153-0.784l4.117-4.117c1.632-1.633,1.954-4.164,0.781-6.156l-2.422-4.103l4.617-1.19
						c2.235-0.579,3.797-2.596,3.797-4.906V63.11c0-2.31-1.562-4.327-3.797-4.906c-0.001,0-0.002-0.001-0.003-0.001l-4.614-1.189
						l2.423-4.105c1.172-1.99,0.85-4.52-0.783-6.154l-4.117-4.118c-1.632-1.631-4.162-1.952-6.155-0.781l-4.104,2.422l-1.19-4.616
						c-0.578-2.236-2.595-3.798-4.905-3.798h-5.821c-2.31,0-4.326,1.562-4.905,3.8l-1.189,4.614l-4.106-2.424
						c-1.993-1.171-4.522-0.848-6.153,0.784l-4.117,4.117c-1.632,1.633-1.954,4.164-0.781,6.155l2.422,4.104l-4.617,1.19
						C99.405,58.783,97.844,60.8,97.844,63.11z M102.892,63.045l7.833-2.018c0.761-0.196,1.385-0.738,1.686-1.464
						c0.301-0.726,0.243-1.551-0.156-2.227l-4.101-7.045l4.196-4.128l6.966,4.111c0.676,0.399,1.5,0.457,2.228,0.157
						c0.726-0.3,1.268-0.925,1.464-1.686l2.082-7.88l5.886,0.048l2.019,7.833c0.196,0.761,0.738,1.385,1.464,1.686
						c0.727,0.301,1.553,0.244,2.228-0.157l7.046-4.1l4.127,4.196l-4.111,6.966c-0.399,0.676-0.457,1.501-0.156,2.227
						c0.301,0.726,0.925,1.269,1.686,1.464l7.881,2.083l-0.048,5.886l-7.833,2.018c-0.761,0.196-1.385,0.738-1.686,1.464
						c-0.301,0.726-0.243,1.551,0.156,2.228l4.101,7.045l-4.196,4.128l-6.966-4.111c-0.676-0.4-1.502-0.458-2.228-0.157
						c-0.726,0.3-1.268,0.925-1.464,1.686l-2.083,7.88l-5.885-0.048l-2.019-7.833c-0.196-0.761-0.738-1.385-1.464-1.686
						c-0.308-0.127-0.633-0.19-0.957-0.19c-0.441,0-0.881,0.117-1.271,0.347l-7.046,4.1l-4.127-4.196l4.111-6.965
						c0.399-0.677,0.457-1.502,0.156-2.228c-0.301-0.726-0.925-1.269-1.686-1.464l-7.881-2.083L102.892,63.045z"/>
				</g>
			</g>
		</g>
		<g>
			<g>
				<g>
					<path class="st1" d="M139.423,66.021c0-6.299-5.124-11.423-11.423-11.423s-11.423,5.125-11.423,11.423
						c0,6.298,5.124,11.423,11.423,11.423S139.423,72.319,139.423,66.021z M121.577,66.021c0-3.542,2.881-6.423,6.423-6.423
						s6.423,2.881,6.423,6.423c0,3.542-2.881,6.423-6.423,6.423S121.577,69.562,121.577,66.021z"/>
				</g>
			</g>
		</g>
	</g>
	<g>
		<g>
			<g>
				<g>
					<g>
						<path class="st8" d="M168.146,154.669c1.381,0,2.5-1.119,2.5-2.5v-46.727c0-1.381-1.119-2.5-2.5-2.5H87.854
							c-1.381,0-2.5,1.119-2.5,2.5v46.727c0,1.381,1.119,2.5,2.5,2.5s2.5-1.119,2.5-2.5v-44.227h75.291v44.227
							C165.646,153.55,166.765,154.669,168.146,154.669z"/>
					</g>
				</g>
			</g>
			<g>
				<g>
					<g>
						<path class="st8" d="M168.146,121.396c1.381,0,2.5-1.119,2.5-2.5s-1.119-2.5-2.5-2.5H87.854c-1.381,0-2.5,1.119-2.5,2.5
							s1.119,2.5,2.5,2.5H168.146z"/>
					</g>
				</g>
			</g>
			<g>
				<g>
					<g>
						<path class="st8" d="M145.937,152.169v-46.727c0-1.381-1.119-2.5-2.5-2.5s-2.5,1.119-2.5,2.5v46.727
							c0,1.381,1.119,2.5,2.5,2.5S145.937,153.55,145.937,152.169z"/>
					</g>
				</g>
			</g>
		</g>
		<g>
			<g>
				<g>
					<path class="st9" d="M167.146,116.396v-8.454c0-0.828-0.672-1.5-1.5-1.5h-19.709c-0.828,0-1.5,0.672-1.5,1.5v8.454
						c0,0.828,0.672,1.5,1.5,1.5h19.709C166.474,117.896,167.146,117.225,167.146,116.396z M145.937,107.942h19.709v8.454h-19.709
						V107.942z"/>
					<path class="st9" d="M168.146,154.669c1.381,0,2.5-1.119,2.5-2.5v-46.727c0-1.381-1.119-2.5-2.5-2.5H87.854
						c-1.381,0-2.5,1.119-2.5,2.5v46.727c0,1.381,1.119,2.5,2.5,2.5s2.5-1.119,2.5-2.5v-30.772h50.582v30.772
						c0,1.381,1.119,2.5,2.5,2.5s2.5-1.119,2.5-2.5v-30.772h19.709v30.772C165.646,153.55,166.765,154.669,168.146,154.669z
						 M145.937,119.896c-0.828,0-1.5,0.672-1.5,1.5v30.772c0,0.551-0.449,1-1,1s-1-0.449-1-1v-30.772c0-0.828-0.672-1.5-1.5-1.5
						H90.354c-0.828,0-1.5,0.672-1.5,1.5v30.772c0,0.551-0.449,1-1,1s-1-0.449-1-1v-46.727c0-0.551,0.449-1,1-1h80.291
						c0.551,0,1,0.449,1,1v46.727c0,0.551-0.449,1-1,1s-1-0.449-1-1v-30.772c0-0.828-0.672-1.5-1.5-1.5H145.937z"/>
					<path class="st9" d="M140.937,106.442H90.354c-0.828,0-1.5,0.672-1.5,1.5v8.454c0,0.828,0.672,1.5,1.5,1.5h50.582
						c0.828,0,1.5-0.672,1.5-1.5v-8.454C142.437,107.114,141.765,106.442,140.937,106.442z M140.937,116.396H90.354v-8.454h50.582
						V116.396z"/>
				</g>
			</g>
		</g>
		<g>
			<g>
				<g>
					<g>
						<path class="st2" d="M116.279,181.327c0.084-1.378-0.965-2.563-2.344-2.647c-1.398-0.089-2.563,0.966-2.646,2.344
							c-0.331,5.438-3.99,10.368-11.188,15.071c-0.925,0.605-1.344,1.747-1.028,2.806c0.316,1.06,1.291,1.787,2.396,1.787h53.061
							c1.105,0,2.08-0.727,2.396-1.787c0.315-1.06-0.104-2.201-1.028-2.806c-7.197-4.704-10.857-9.633-11.188-15.071
							c-0.083-1.378-1.256-2.43-2.647-2.344c-1.378,0.084-2.427,1.27-2.343,2.647c0.319,5.24,2.782,9.98,7.489,14.36h-38.418
							C113.498,191.308,115.961,186.567,116.279,181.327z"/>
					</g>
				</g>
			</g>
			<g>
				<g>
					<g>
						<g>
							<g>
								<path class="st2" d="M56.531,64.521h33.813c1.381,0,2.5-1.119,2.5-2.5s-1.119-2.5-2.5-2.5H56.531
									c-3.369,0-6.109,2.741-6.109,6.109v103.445c0,3.369,2.74,6.109,6.109,6.109h142.938c3.369,0,6.109-2.741,6.109-6.109V65.63
									c0-3.369-2.74-6.109-6.109-6.109h-33.813c-1.381,0-2.5,1.119-2.5,2.5s1.119,2.5,2.5,2.5h33.813
									c0.611,0,1.109,0.498,1.109,1.109v103.445c0,0.612-0.498,1.109-1.109,1.109H56.531c-0.611,0-1.109-0.498-1.109-1.109V65.63
									C55.422,65.018,55.92,64.521,56.531,64.521z"/>
							</g>
						</g>
					</g>
					<g>
						<g>
							<g>
								<path class="st2" d="M96.512,77.48c1.381,0,2.5-1.119,2.5-2.5s-1.119-2.5-2.5-2.5H66.021c-1.381,0-2.5,1.119-2.5,2.5v77.189
									c0,1.381,1.119,2.5,2.5,2.5h123.959c1.381,0,2.5-1.119,2.5-2.5V74.98c0-1.381-1.119-2.5-2.5-2.5h-30.807
									c-1.381,0-2.5,1.119-2.5,2.5s1.119,2.5,2.5,2.5h28.307v72.189H68.521V77.48H96.512z"/>
							</g>
						</g>
					</g>
				</g>
			</g>
			<g>
				<g>
					<g>
						<path class="st2" d="M163.254,211.345c4.317,0,7.829-3.512,7.829-7.829s-3.512-7.829-7.829-7.829H92.746
							c-4.317,0-7.829,3.512-7.829,7.829s3.512,7.829,7.829,7.829H163.254z M89.917,203.516c0-1.56,1.27-2.829,2.829-2.829h70.508
							c1.56,0,2.829,1.269,2.829,2.829s-1.27,2.829-2.829,2.829H92.746C91.187,206.345,89.917,205.076,89.917,203.516z"/>
					</g>
				</g>
			</g>
		</g>
		<g>
			<g>
				<g>
					<g>
						<path class="st3" d="M56.531,64.521h33.813c1.381,0,2.5-1.119,2.5-2.5s-1.119-2.5-2.5-2.5H56.531
							c-3.369,0-6.109,2.741-6.109,6.109v103.445c0,3.369,2.74,6.109,6.109,6.109h142.938c3.369,0,6.109-2.741,6.109-6.109V65.63
							c0-3.369-2.74-6.109-6.109-6.109h-33.813c-1.381,0-2.5,1.119-2.5,2.5s1.119,2.5,2.5,2.5h33.813
							c0.611,0,1.109,0.498,1.109,1.109v103.445c0,0.612-0.498,1.109-1.109,1.109H56.531c-0.611,0-1.109-0.498-1.109-1.109V65.63
							C55.422,65.018,55.92,64.521,56.531,64.521z M56.531,171.685h142.938c1.439,0,2.609-1.171,2.609-2.609V65.63
							c0-1.439-1.171-2.609-2.609-2.609h-33.813c-0.551,0-1-0.449-1-1s0.449-1,1-1h33.813c2.542,0,4.609,2.068,4.609,4.609v103.445
							c0,2.542-2.068,4.609-4.609,4.609H56.531c-2.542,0-4.609-2.068-4.609-4.609V65.63c0-2.542,2.068-4.609,4.609-4.609h33.813
							c0.551,0,1,0.449,1,1s-0.449,1-1,1H56.531c-1.439,0-2.609,1.171-2.609,2.609v103.445
							C53.922,170.514,55.092,171.685,56.531,171.685z"/>
					</g>
				</g>
			</g>
			<g>
				<g>
					<g>
						<path class="st3" d="M96.512,77.48c1.381,0,2.5-1.119,2.5-2.5s-1.119-2.5-2.5-2.5H66.021c-1.381,0-2.5,1.119-2.5,2.5v77.189
							c0,1.381,1.119,2.5,2.5,2.5h123.959c1.381,0,2.5-1.119,2.5-2.5V74.98c0-1.381-1.119-2.5-2.5-2.5h-30.807
							c-1.381,0-2.5,1.119-2.5,2.5s1.119,2.5,2.5,2.5h28.307v72.189H68.521V77.48H96.512z M68.521,151.169h118.959
							c0.828,0,1.5-0.672,1.5-1.5V77.48c0-0.828-0.672-1.5-1.5-1.5h-28.307c-0.551,0-1-0.449-1-1s0.449-1,1-1h30.807
							c0.551,0,1,0.449,1,1v77.189c0,0.551-0.449,1-1,1H66.021c-0.551,0-1-0.449-1-1V74.98c0-0.551,0.449-1,1-1h30.491
							c0.551,0,1,0.449,1,1s-0.449,1-1,1H68.521c-0.828,0-1.5,0.672-1.5,1.5v72.189C67.021,150.497,67.692,151.169,68.521,151.169z"
							/>
					</g>
				</g>
			</g>
			<g>
				<g>
					<g>
						<path class="st3" d="M92.746,199.187c-2.387,0-4.329,1.942-4.329,4.329s1.942,4.329,4.329,4.329h70.508
							c2.387,0,4.329-1.942,4.329-4.329s-1.942-4.329-4.329-4.329H92.746z M163.254,200.687c1.56,0,2.829,1.269,2.829,2.829
							s-1.27,2.829-2.829,2.829H92.746c-1.56,0-2.829-1.269-2.829-2.829s1.27-2.829,2.829-2.829H163.254z"/>
						<path class="st3" d="M116.279,181.327c0.084-1.378-0.965-2.563-2.344-2.647c-0.055-0.004-0.11-0.005-0.164-0.005
							c-1.324,0-2.403,1.025-2.482,2.349c-0.322,5.281-3.792,10.083-10.585,14.664h-7.958c-4.317,0-7.829,3.512-7.829,7.829
							s3.512,7.829,7.829,7.829h70.508c4.317,0,7.829-3.512,7.829-7.829s-3.512-7.829-7.829-7.829h-7.958
							c-6.792-4.581-10.264-9.382-10.586-14.664c-0.08-1.325-1.167-2.349-2.488-2.349c-0.053,0-0.106,0.002-0.16,0.005
							c-1.378,0.084-2.427,1.27-2.343,2.647c0.319,5.24,2.782,9.98,7.489,14.36h-38.417
							C113.498,191.307,115.961,186.567,116.279,181.327z M107.77,194.589c-0.451,0.42-0.6,1.073-0.374,1.647
							c0.226,0.574,0.779,0.951,1.396,0.951h38.417c0.617,0,1.17-0.377,1.396-0.951c0.226-0.574,0.077-1.227-0.374-1.647
							c-4.422-4.115-6.717-8.483-7.013-13.353c-0.016-0.267,0.072-0.524,0.249-0.724c0.177-0.2,0.421-0.319,0.689-0.335l0.067-0.002
							c0.532,0,0.958,0.404,0.991,0.94c0.352,5.777,4.03,10.95,11.244,15.816c0.248,0.167,0.54,0.256,0.839,0.256h7.958
							c3.49,0,6.329,2.839,6.329,6.329s-2.839,6.329-6.329,6.329H92.746c-3.49,0-6.329-2.839-6.329-6.329s2.839-6.329,6.329-6.329
							h7.958c0.299,0,0.591-0.089,0.839-0.256c7.214-4.865,10.891-10.039,11.243-15.817c0.032-0.536,0.456-0.939,0.985-0.939
							c0,0,0,0,0,0l0.073,0.002c0.267,0.016,0.511,0.135,0.688,0.335s0.266,0.457,0.249,0.724
							C114.486,186.106,112.192,190.473,107.77,194.589z"/>
					</g>
				</g>
			</g>
		</g>
		<g>
			<g>
				<g>
					<path class="st8" d="M97.844,59.11v5.821c0,2.31,1.562,4.327,3.8,4.907l4.614,1.189l-2.423,4.105
						c-1.172,1.99-0.85,4.521,0.783,6.154l4.116,4.116c1.631,1.632,4.161,1.955,6.156,0.782l4.104-2.422l1.19,4.616
						c0.578,2.236,2.595,3.798,4.904,3.798h5.821c2.311,0,4.327-1.562,4.906-3.8l1.189-4.614l4.106,2.424
						c1.99,1.171,4.521,0.847,6.153-0.784l4.117-4.117c1.632-1.633,1.954-4.164,0.781-6.156l-2.422-4.103l4.617-1.19
						c2.235-0.579,3.797-2.596,3.797-4.906V59.11c0-2.31-1.562-4.327-3.797-4.906c-0.001,0-0.002-0.001-0.003-0.001l-4.614-1.189
						l2.423-4.105c1.172-1.99,0.85-4.52-0.783-6.154l-4.117-4.118c-1.632-1.631-4.162-1.953-6.155-0.781l-4.104,2.422l-1.19-4.616
						c-0.578-2.236-2.595-3.798-4.905-3.798h-5.821c-2.31,0-4.326,1.562-4.905,3.8l-1.189,4.614l-4.106-2.424
						c-1.993-1.171-4.522-0.849-6.153,0.784l-4.117,4.117c-1.632,1.633-1.954,4.164-0.781,6.155l2.422,4.104l-4.617,1.19
						C99.405,54.783,97.844,56.8,97.844,59.11z M102.892,59.045l7.833-2.018c0.761-0.196,1.385-0.738,1.686-1.464
						c0.301-0.726,0.243-1.551-0.156-2.227l-4.101-7.045l4.196-4.128l6.966,4.111c0.676,0.399,1.5,0.457,2.228,0.157
						c0.726-0.3,1.268-0.925,1.464-1.686l2.082-7.88l5.886,0.048l2.019,7.833c0.196,0.761,0.738,1.385,1.464,1.686
						c0.727,0.301,1.553,0.244,2.228-0.157l7.046-4.1l4.127,4.196l-4.111,6.966c-0.399,0.676-0.457,1.501-0.156,2.227
						c0.301,0.726,0.925,1.269,1.686,1.464l7.881,2.083l-0.048,5.886l-7.833,2.018c-0.761,0.196-1.385,0.738-1.686,1.464
						c-0.301,0.726-0.243,1.551,0.156,2.228l4.101,7.045l-4.196,4.128l-6.966-4.111c-0.676-0.4-1.502-0.458-2.228-0.157
						c-0.726,0.3-1.268,0.925-1.464,1.686l-2.083,7.88l-5.885-0.048l-2.019-7.833c-0.196-0.761-0.738-1.385-1.464-1.686
						c-0.308-0.127-0.633-0.19-0.957-0.19c-0.441,0-0.881,0.117-1.271,0.347l-7.046,4.1l-4.127-4.196l4.111-6.965
						c0.399-0.677,0.457-1.502,0.156-2.228c-0.301-0.726-0.925-1.269-1.686-1.464l-7.881-2.083L102.892,59.045z"/>
				</g>
			</g>
		</g>
		<g>
			<g>
				<g>
					<g>
						<path class="st9" d="M97.844,59.11v5.821c0,2.31,1.562,4.327,3.8,4.907l4.614,1.189l-2.423,4.105
							c-1.172,1.99-0.85,4.521,0.783,6.154l4.116,4.116c0.975,0.976,2.271,1.484,3.583,1.484c0.882,0,1.771-0.23,2.573-0.701
							l4.104-2.422l1.19,4.616c0.578,2.236,2.595,3.798,4.904,3.798h5.821c2.311,0,4.327-1.562,4.906-3.8l1.189-4.614l4.106,2.424
							c0.8,0.471,1.686,0.7,2.567,0.7c1.311,0,2.609-0.508,3.586-1.484l4.117-4.117c1.632-1.633,1.954-4.164,0.781-6.156
							l-2.422-4.103l4.617-1.19c2.235-0.579,3.797-2.596,3.797-4.906V59.11c0-2.31-1.562-4.327-3.797-4.906
							c-0.001,0-0.002-0.001-0.003-0.001l-4.614-1.189l2.423-4.105c1.172-1.99,0.85-4.52-0.783-6.154l-4.117-4.118
							c-0.975-0.975-2.272-1.482-3.583-1.482c-0.882,0-1.771,0.23-2.573,0.701l-4.104,2.422l-1.19-4.616
							c-0.578-2.236-2.595-3.798-4.905-3.798h-5.821c-2.31,0-4.326,1.562-4.905,3.8l-1.189,4.614l-4.106-2.424
							c-0.801-0.471-1.689-0.7-2.57-0.7c-1.311,0-2.608,0.508-3.583,1.484l-4.117,4.117c-1.632,1.633-1.954,4.164-0.781,6.155
							l2.422,4.104l-4.617,1.19C99.405,54.783,97.844,56.8,97.844,59.11z M153.156,59.11l-0.048,5.886l-7.833,2.018
							c-0.761,0.196-1.385,0.738-1.686,1.464c-0.301,0.726-0.243,1.551,0.156,2.228l4.101,7.045l-4.196,4.128l-6.966-4.111
							c-0.39-0.231-0.829-0.348-1.27-0.348c-0.324,0-0.65,0.063-0.957,0.191c-0.726,0.3-1.268,0.925-1.464,1.686l-2.083,7.88
							l-5.885-0.048l-2.019-7.833c-0.196-0.761-0.738-1.385-1.464-1.686c-0.308-0.127-0.633-0.19-0.957-0.19
							c-0.441,0-0.881,0.117-1.271,0.347l-7.046,4.1l-4.127-4.196l4.111-6.965c0.399-0.677,0.457-1.502,0.156-2.228
							c-0.301-0.726-0.925-1.269-1.686-1.464l-7.881-2.083l0.048-5.886l7.833-2.018c0.761-0.196,1.385-0.738,1.686-1.464
							c0.301-0.726,0.243-1.551-0.156-2.227l-4.101-7.045l4.196-4.128l6.966,4.111c0.39,0.23,0.828,0.347,1.27,0.347
							c0.324,0,0.65-0.063,0.958-0.19c0.726-0.3,1.268-0.925,1.464-1.686l2.082-7.88l5.886,0.048l2.019,7.833
							c0.196,0.761,0.738,1.385,1.464,1.686c0.308,0.128,0.634,0.191,0.958,0.191c0.441,0,0.88-0.117,1.269-0.348l7.046-4.1
							l4.127,4.196l-4.111,6.966c-0.399,0.676-0.457,1.501-0.156,2.227c0.301,0.726,0.925,1.269,1.686,1.464L153.156,59.11z
							 M106.632,54.467c0.456-0.118,0.831-0.443,1.011-0.879c0.18-0.435,0.146-0.93-0.094-1.336l-2.421-4.102
							c-0.825-1.402-0.599-3.184,0.549-4.333l4.118-4.117c0.673-0.673,1.568-1.044,2.522-1.044c0.635,0,1.261,0.171,1.808,0.492
							l4.106,2.424c0.234,0.138,0.498,0.208,0.763,0.208c0.194,0,0.39-0.038,0.574-0.114c0.436-0.18,0.761-0.555,0.879-1.011
							l1.189-4.613c0.408-1.575,1.828-2.676,3.453-2.676h5.821c1.626,0,3.046,1.099,3.453,2.672l1.19,4.616
							c0.118,0.456,0.443,0.831,0.879,1.011c0.184,0.076,0.38,0.114,0.574,0.114c0.265,0,0.528-0.07,0.763-0.208l4.101-2.421
							c0.55-0.323,1.177-0.494,1.813-0.494c0.953,0,1.849,0.37,2.522,1.042l4.117,4.117c1.15,1.15,1.377,2.932,0.552,4.331
							l-2.423,4.105c-0.24,0.406-0.274,0.901-0.094,1.336c0.18,0.435,0.555,0.761,1.011,0.878l3.531,0.91
							c-0.296,0.198-0.524,0.501-0.619,0.873l-0.25,0.969l-6.381-1.644c-0.302-0.078-0.554-0.297-0.674-0.586
							c-0.12-0.289-0.096-0.621,0.062-0.89l4.111-6.966c0.345-0.585,0.254-1.33-0.222-1.814l-4.127-4.196
							c-0.29-0.295-0.678-0.448-1.07-0.448c-0.258,0-0.519,0.067-0.754,0.203l-7.057,4.106c-0.152,0.09-0.326,0.138-0.504,0.138
							c-0.132,0-0.261-0.026-0.385-0.077c-0.288-0.119-0.507-0.371-0.585-0.674l-2.019-7.833c-0.17-0.658-0.761-1.12-1.44-1.126
							l-5.886-0.048c-0.004,0-0.008,0-0.012,0c-0.68,0-1.276,0.458-1.45,1.117l-2.084,7.889c-0.078,0.303-0.297,0.555-0.584,0.674
							c-0.123,0.051-0.253,0.077-0.386,0.077c-0.178,0-0.353-0.048-0.507-0.139l-6.966-4.111c-0.237-0.14-0.5-0.208-0.762-0.208
							c-0.384,0-0.764,0.147-1.052,0.431l-4.196,4.128c-0.489,0.481-0.589,1.231-0.245,1.824l4.105,7.054
							c0.159,0.269,0.182,0.601,0.062,0.89c-0.12,0.289-0.372,0.508-0.674,0.586l-7.833,2.018c-0.658,0.17-1.12,0.761-1.126,1.44
							l-0.048,5.886c-0.005,0.685,0.454,1.287,1.117,1.462l7.89,2.085c0.302,0.078,0.554,0.297,0.674,0.586
							c0.12,0.289,0.096,0.622-0.062,0.891l-4.111,6.965c-0.345,0.585-0.254,1.33,0.222,1.814l4.127,4.196
							c0.29,0.295,0.678,0.448,1.07,0.448c0.258,0,0.519-0.067,0.754-0.203l7.055-4.105c0.153-0.09,0.328-0.138,0.507-0.138
							c0.132,0,0.261,0.026,0.383,0.076c0.288,0.119,0.507,0.371,0.585,0.674l2.019,7.833c0.17,0.658,0.761,1.12,1.44,1.126
							l5.885,0.048c0.004,0,0.008,0,0.012,0c0.68,0,1.276-0.458,1.45-1.117l2.085-7.889c0.078-0.303,0.297-0.555,0.587-0.675
							c0.121-0.051,0.25-0.076,0.381-0.076c0.178,0,0.353,0.048,0.508,0.14l6.966,4.111c0.237,0.14,0.5,0.208,0.762,0.208
							c0.384,0,0.764-0.147,1.052-0.431l4.196-4.128c0.489-0.481,0.589-1.231,0.245-1.824l-4.105-7.053
							c-0.159-0.269-0.182-0.602-0.062-0.891s0.372-0.508,0.674-0.586l7.833-2.018c0.658-0.17,1.12-0.761,1.126-1.44l0.047-5.72
							l0.539-2.325c0.059-0.255,0.049-0.511-0.017-0.746c0.909,0.656,1.48,1.721,1.48,2.893v5.821c0,1.626-1.099,3.046-2.671,3.453
							l-4.617,1.19c-0.456,0.118-0.831,0.443-1.011,0.879s-0.146,0.931,0.094,1.337l2.421,4.101c0.826,1.403,0.6,3.185-0.549,4.335
							l-4.117,4.116c-0.675,0.674-1.572,1.045-2.526,1.045c-0.634,0-1.259-0.17-1.805-0.492l-4.106-2.424
							c-0.234-0.138-0.498-0.208-0.763-0.208c-0.194,0-0.39,0.038-0.574,0.114c-0.436,0.18-0.761,0.555-0.879,1.011l-1.189,4.613
							c-0.408,1.575-1.828,2.676-3.454,2.676h-5.821c-1.626,0-3.045-1.099-3.452-2.672l-1.19-4.616
							c-0.118-0.456-0.443-0.831-0.879-1.011c-0.184-0.076-0.38-0.114-0.574-0.114c-0.265,0-0.528,0.07-0.763,0.208l-4.101,2.421
							c-0.55,0.323-1.177,0.495-1.813,0.495c-0.954,0-1.849-0.371-2.522-1.044l-4.116-4.116c-1.15-1.15-1.376-2.931-0.552-4.331
							l2.423-4.105c0.24-0.406,0.274-0.901,0.094-1.336c-0.18-0.435-0.555-0.761-1.011-0.878l-4.612-1.188
							c-1.576-0.408-2.676-1.829-2.676-3.455V59.11c0-1.626,1.099-3.046,2.671-3.453L106.632,54.467z"/>
					</g>
				</g>
			</g>
		</g>
		<g>
			<g>
				<g>
					<path class="st4" d="M139.423,62.021c0-6.299-5.124-11.423-11.423-11.423s-11.423,5.125-11.423,11.423
						c0,6.298,5.124,11.423,11.423,11.423S139.423,68.319,139.423,62.021z M121.577,62.021c0-3.542,2.881-6.423,6.423-6.423
						s6.423,2.881,6.423,6.423c0,3.542-2.881,6.423-6.423,6.423S121.577,65.562,121.577,62.021z"/>
				</g>
			</g>
		</g>
		<g>
			<g>
				<g>
					<g>
						<path class="st5" d="M139.423,62.021c0-6.299-5.124-11.423-11.423-11.423s-11.423,5.125-11.423,11.423
							c0,6.298,5.124,11.423,11.423,11.423S139.423,68.319,139.423,62.021z M118.077,62.021c0-5.472,4.451-9.923,9.923-9.923
							s9.923,4.452,9.923,9.923c0,5.471-4.451,9.923-9.923,9.923S118.077,67.492,118.077,62.021z"/>
						<path class="st5" d="M135.923,62.021c0-4.369-3.554-7.923-7.923-7.923s-7.923,3.554-7.923,7.923
							c0,4.369,3.554,7.923,7.923,7.923S135.923,66.389,135.923,62.021z M121.577,62.021c0-3.542,2.881-6.423,6.423-6.423
							s6.423,2.881,6.423,6.423c0,3.542-2.881,6.423-6.423,6.423S121.577,65.562,121.577,62.021z"/>
					</g>
				</g>
			</g>
		</g>
	</g>
</g>
</svg>
