<?xml version="1.0" encoding="utf-8"?>
<!-- Generator: Adobe Illustrator 24.0.0, SVG Export Plug-In . SVG Version: 6.00 Build 0)  -->
<svg version="1.1" id="Layer_1" xmlns="http://www.w3.org/2000/svg" xmlns:xlink="http://www.w3.org/1999/xlink" x="0px" y="0px"
	 viewBox="0 0 256 256" style="enable-background:new 0 0 256 256;" xml:space="preserve">
<style type="text/css">
	.st0{fill:#382B73;}
	.st1{fill:#291B4A;}
	.st2{fill:#ED9ABC;}
	.st3{fill:#E54890;}
	.st4{fill:#D3D3D3;}
	.st5{fill:#EBE7F2;}
	.st6{fill:#F9B087;}
	.st7{fill:#FF8639;}
	.st8{fill:#65C1D6;}
	.st9{fill:#149CB2;}
</style>
<g>
	<g>
		<g>
			<g>
				<g>
					
						<ellipse transform="matrix(0.7071 -0.7071 0.7071 0.7071 -53.0193 128)" class="st0" cx="128" cy="128" rx="119.4" ry="119.4"/>
				</g>
			</g>
		</g>
	</g>
	<g>
		<g>
			<g>
				<g>
					<path class="st1" d="M200.059,176.407c1.381,0,2.5-1.119,2.5-2.5V70.08c0-1.381-1.119-2.5-2.5-2.5H55.941
						c-1.381,0-2.5,1.119-2.5,2.5v103.827c0,1.381,1.119,2.5,2.5,2.5s2.5-1.119,2.5-2.5V72.58h139.118v101.327
						C197.559,175.288,198.678,176.407,200.059,176.407z"/>
				</g>
			</g>
		</g>
		<g>
			<g>
				<g>
					<path class="st1" d="M67.05,82v86.256c0,1.381,1.119,2.5,2.5,2.5H186.45c1.381,0,2.5-1.119,2.5-2.5V82
						c0-1.381-1.119-2.5-2.5-2.5H69.55C68.169,79.5,67.05,80.62,67.05,82z M72.05,84.5H183.95v9.188H72.05V84.5z M72.05,98.688
						H183.95v67.068H72.05V98.688z"/>
				</g>
			</g>
		</g>
		<g>
			<g>
				<g>
					<path class="st1" d="M38.842,183.92c0,1.381,1.119,2.5,2.5,2.5h173.316c1.381,0,2.5-1.119,2.5-2.5s-1.119-2.5-2.5-2.5H41.342
						C39.961,181.42,38.842,182.539,38.842,183.92z"/>
				</g>
			</g>
		</g>
		<g>
			<g>
				<g>
					<path class="st1" d="M96.285,111.309c-0.029,0.015-0.059,0.023-0.087,0.04c-0.024,0.014-0.043,0.033-0.066,0.048
						c-6.74,3.997-11.271,11.343-11.271,19.731c0,12.642,10.285,22.927,22.927,22.927s22.927-10.285,22.927-22.927
						s-10.285-22.927-22.927-22.927C103.598,108.202,99.669,109.337,96.285,111.309z M107.789,149.056
						c-9.885,0-17.927-8.042-17.927-17.927c0-5.683,2.667-10.747,6.806-14.034l8.965,15.298c0.448,0.766,1.27,1.236,2.157,1.236
						h17.732C124.298,142.331,116.823,149.056,107.789,149.056z M125.521,128.628h-16.299l-8.247-14.073
						c2.103-0.868,4.402-1.353,6.814-1.353C116.823,113.202,124.298,119.926,125.521,128.628z"/>
				</g>
			</g>
		</g>
		<g>
			<g>
				<g>
					<path class="st1" d="M144.738,114.981c0,1.381,1.119,2.5,2.5,2.5h21.4c1.381,0,2.5-1.119,2.5-2.5s-1.119-2.5-2.5-2.5h-21.4
						C145.857,112.481,144.738,113.601,144.738,114.981z"/>
				</g>
			</g>
		</g>
		<g>
			<g>
				<g>
					<path class="st1" d="M144.738,131.128c0,1.381,1.119,2.5,2.5,2.5h21.4c1.381,0,2.5-1.119,2.5-2.5s-1.119-2.5-2.5-2.5h-21.4
						C145.857,128.628,144.738,129.748,144.738,131.128z"/>
				</g>
			</g>
		</g>
		<g>
			<g>
				<g>
					<path class="st1" d="M144.738,147.275c0,1.381,1.119,2.5,2.5,2.5h21.4c1.381,0,2.5-1.119,2.5-2.5s-1.119-2.5-2.5-2.5h-21.4
						C145.857,144.775,144.738,145.895,144.738,147.275z"/>
				</g>
			</g>
		</g>
	</g>
	<g>
		<g>
			<g>
				<g>
					<path class="st4" d="M67.05,92.188c0,1.381,1.119,2.5,2.5,2.5H186.45c1.381,0,2.5-1.119,2.5-2.5s-1.119-2.5-2.5-2.5H69.55
						C68.169,89.688,67.05,90.807,67.05,92.188z"/>
				</g>
			</g>
		</g>
		<g>
			<g>
				<g>
					<g>
						<path class="st5" d="M67.05,92.188c0,1.381,1.119,2.5,2.5,2.5H186.45c1.381,0,2.5-1.119,2.5-2.5s-1.119-2.5-2.5-2.5H69.55
							C68.169,89.688,67.05,90.807,67.05,92.188z M187.45,92.188c0,0.551-0.449,1-1,1H69.55c-0.551,0-1-0.449-1-1s0.449-1,1-1
							H186.45C187.001,91.188,187.45,91.637,187.45,92.188z"/>
					</g>
				</g>
			</g>
		</g>
		<g>
			<g>
				<g>
					<g>
						<path class="st8" d="M200.059,172.407c1.381,0,2.5-1.119,2.5-2.5V66.08c0-1.381-1.119-2.5-2.5-2.5H55.941
							c-1.381,0-2.5,1.119-2.5,2.5v103.827c0,1.381,1.119,2.5,2.5,2.5s2.5-1.119,2.5-2.5V68.58h139.118v101.327
							C197.559,171.288,198.678,172.407,200.059,172.407z"/>
					</g>
				</g>
			</g>
			<g>
				<g>
					<g>
						<path class="st8" d="M67.05,78v86.256c0,1.381,1.119,2.5,2.5,2.5H186.45c1.381,0,2.5-1.119,2.5-2.5V78
							c0-1.381-1.119-2.5-2.5-2.5H69.55C68.169,75.5,67.05,76.62,67.05,78z M72.05,80.5H183.95v81.256H72.05V80.5z"/>
					</g>
				</g>
			</g>
			<g>
				<g>
					<g>
						<path class="st8" d="M38.842,179.92c0,1.381,1.119,2.5,2.5,2.5h173.316c1.381,0,2.5-1.119,2.5-2.5s-1.119-2.5-2.5-2.5H41.342
							C39.961,177.42,38.842,178.539,38.842,179.92z"/>
					</g>
				</g>
			</g>
		</g>
		<g>
			<g>
				<g>
					<g>
						<path class="st9" d="M200.059,172.407c1.381,0,2.5-1.119,2.5-2.5V66.08c0-1.381-1.119-2.5-2.5-2.5H55.941
							c-1.381,0-2.5,1.119-2.5,2.5v103.827c0,1.381,1.119,2.5,2.5,2.5s2.5-1.119,2.5-2.5V68.58h139.118v101.327
							C197.559,171.288,198.678,172.407,200.059,172.407z M58.441,67.08c-0.828,0-1.5,0.672-1.5,1.5v101.327c0,0.551-0.449,1-1,1
							s-1-0.449-1-1V66.08c0-0.551,0.449-1,1-1h144.118c0.551,0,1,0.449,1,1v103.827c0,0.551-0.449,1-1,1s-1-0.449-1-1V68.58
							c0-0.828-0.672-1.5-1.5-1.5H58.441z"/>
					</g>
				</g>
			</g>
			<g>
				<g>
					<g>
						<path class="st9" d="M67.05,78v86.256c0,1.381,1.119,2.5,2.5,2.5H186.45c1.381,0,2.5-1.119,2.5-2.5V78
							c0-1.381-1.119-2.5-2.5-2.5H69.55C68.169,75.5,67.05,76.62,67.05,78z M187.45,78v86.256c0,0.551-0.449,1-1,1H69.55
							c-0.551,0-1-0.449-1-1V78c0-0.551,0.449-1,1-1H186.45C187.001,77,187.45,77.449,187.45,78z"/>
						<path class="st9" d="M72.05,163.256H183.95c0.828,0,1.5-0.672,1.5-1.5V80.5c0-0.828-0.672-1.5-1.5-1.5H72.05
							c-0.828,0-1.5,0.672-1.5,1.5v81.256C70.55,162.585,71.222,163.256,72.05,163.256z M72.05,80.5H183.95v81.256H72.05V80.5z"/>
					</g>
				</g>
			</g>
			<g>
				<g>
					<g>
						<path class="st9" d="M38.842,179.92c0,1.381,1.119,2.5,2.5,2.5h173.316c1.381,0,2.5-1.119,2.5-2.5s-1.119-2.5-2.5-2.5H41.342
							C39.961,177.42,38.842,178.539,38.842,179.92z M215.658,179.92c0,0.551-0.449,1-1,1H41.342c-0.551,0-1-0.449-1-1s0.449-1,1-1
							h173.316C215.21,178.92,215.658,179.369,215.658,179.92z"/>
					</g>
				</g>
			</g>
		</g>
		<g>
			<g>
				<g>
					<g>
						<path class="st6" d="M84.862,127.128c0,12.642,10.285,22.927,22.927,22.927s22.927-10.285,22.927-22.927
							s-10.285-22.927-22.927-22.927S84.862,114.486,84.862,127.128z M125.716,127.128c0,9.885-8.042,17.927-17.927,17.927
							c-9.885,0-17.927-8.042-17.927-17.927c0-9.885,8.042-17.927,17.927-17.927C117.674,109.202,125.716,117.244,125.716,127.128z"
							/>
					</g>
				</g>
			</g>
			<g>
				<g>
					<g>
						<path class="st6" d="M109.222,124.628l-9.603-16.387c-0.698-1.191-2.229-1.591-3.421-0.893
							c-1.191,0.698-1.591,2.229-0.893,3.421l10.327,17.623c0.448,0.766,1.27,1.236,2.157,1.236h20.427c1.381,0,2.5-1.119,2.5-2.5
							s-1.119-2.5-2.5-2.5H109.222z"/>
					</g>
				</g>
			</g>
		</g>
		<g>
			<g>
				<g>
					<path class="st6" d="M144.738,110.981c0,1.381,1.119,2.5,2.5,2.5h21.4c1.381,0,2.5-1.119,2.5-2.5s-1.119-2.5-2.5-2.5h-21.4
						C145.857,108.481,144.738,109.601,144.738,110.981z"/>
				</g>
			</g>
		</g>
		<g>
			<g>
				<g>
					<path class="st4" d="M144.738,127.128c0,1.381,1.119,2.5,2.5,2.5h21.4c1.381,0,2.5-1.119,2.5-2.5s-1.119-2.5-2.5-2.5h-21.4
						C145.857,124.628,144.738,125.748,144.738,127.128z"/>
				</g>
			</g>
		</g>
		<g>
			<g>
				<g>
					<g>
						<path class="st5" d="M144.738,127.128c0,1.381,1.119,2.5,2.5,2.5h21.4c1.381,0,2.5-1.119,2.5-2.5s-1.119-2.5-2.5-2.5h-21.4
							C145.857,124.628,144.738,125.748,144.738,127.128z M147.238,126.128h21.4c0.551,0,1,0.449,1,1s-0.449,1-1,1h-21.4
							c-0.551,0-1-0.449-1-1S146.687,126.128,147.238,126.128z"/>
					</g>
				</g>
			</g>
		</g>
		<g>
			<g>
				<g>
					<path class="st6" d="M144.738,143.275c0,1.381,1.119,2.5,2.5,2.5h21.4c1.381,0,2.5-1.119,2.5-2.5s-1.119-2.5-2.5-2.5h-21.4
						C145.857,140.775,144.738,141.895,144.738,143.275z"/>
				</g>
			</g>
		</g>
		<g>
			<g>
				<g>
					<g>
						<path class="st7" d="M125.521,128.128h-17.732c-0.354,0-0.684-0.189-0.863-0.494l-8.965-15.298
							c-0.22-0.375-0.591-0.636-1.019-0.716c-0.092-0.017-0.184-0.026-0.276-0.026c-0.336,0-0.665,0.113-0.933,0.325
							c-4.686,3.721-7.373,9.264-7.373,15.209c0,10.712,8.715,19.427,19.427,19.427c9.616,0,17.878-7.187,19.217-16.719
							c0.06-0.43-0.068-0.865-0.353-1.193C126.368,128.317,125.955,128.128,125.521,128.128z M107.789,145.056
							c-9.885,0-17.927-8.042-17.927-17.927c0-5.683,2.667-10.747,6.806-14.034l8.965,15.298c0.448,0.766,1.27,1.236,2.157,1.236
							h17.732C124.298,138.331,116.823,145.056,107.789,145.056z"/>
						<path class="st7" d="M100.403,109.168c-0.401,0.166-0.711,0.497-0.849,0.908s-0.092,0.862,0.128,1.237l8.247,14.073
							c0.269,0.459,0.762,0.742,1.294,0.742h16.299c0.434,0,0.847-0.188,1.132-0.516c0.285-0.328,0.414-0.763,0.353-1.193
							c-1.339-9.531-9.601-16.718-19.217-16.718C105.246,107.702,102.761,108.195,100.403,109.168z M125.521,124.628h-16.299
							l-8.247-14.073c2.103-0.868,4.402-1.353,6.814-1.353C116.823,109.202,124.298,115.926,125.521,124.628z"/>
						<path class="st7" d="M96.285,107.309c-0.028,0.015-0.059,0.023-0.087,0.04c-0.024,0.014-0.043,0.033-0.066,0.048
							c-6.74,3.997-11.271,11.343-11.271,19.731c0,12.642,10.285,22.927,22.927,22.927s22.927-10.285,22.927-22.927
							s-10.285-22.927-22.927-22.927C103.598,104.202,99.669,105.337,96.285,107.309z M129.216,127.128
							c0,11.815-9.612,21.427-21.427,21.427c-11.815,0-21.427-9.612-21.427-21.427c0-7.521,4.037-14.587,10.57-18.462
							c0.009-0.006,0.018-0.011,0.026-0.017c0.014-0.007,0.026-0.013,0.036-0.019c0.016-0.008,0.031-0.017,0.046-0.026
							c3.26-1.9,6.977-2.904,10.749-2.904C119.604,105.702,129.216,115.314,129.216,127.128z"/>
					</g>
				</g>
			</g>
			<g>
				<g>
					<g>
						<path class="st7" d="M144.738,110.981c0,1.381,1.119,2.5,2.5,2.5h21.4c1.381,0,2.5-1.119,2.5-2.5s-1.119-2.5-2.5-2.5h-21.4
							C145.857,108.481,144.738,109.601,144.738,110.981z M147.238,109.981h21.4c0.551,0,1,0.449,1,1s-0.449,1-1,1h-21.4
							c-0.551,0-1-0.449-1-1S146.687,109.981,147.238,109.981z"/>
					</g>
				</g>
			</g>
			<g>
				<g>
					<g>
						<path class="st7" d="M144.738,143.275c0,1.381,1.119,2.5,2.5,2.5h21.4c1.381,0,2.5-1.119,2.5-2.5s-1.119-2.5-2.5-2.5h-21.4
							C145.857,140.775,144.738,141.895,144.738,143.275z M147.238,142.275h21.4c0.551,0,1,0.449,1,1s-0.449,1-1,1h-21.4
							c-0.551,0-1-0.449-1-1S146.687,142.275,147.238,142.275z"/>
					</g>
				</g>
			</g>
		</g>
	</g>
</g>
</svg>
