<?xml version="1.0" encoding="utf-8"?>
<!-- Generator: Adobe Illustrator 24.0.0, SVG Export Plug-In . SVG Version: 6.00 Build 0)  -->
<svg version="1.1" id="Layer_1" xmlns="http://www.w3.org/2000/svg" xmlns:xlink="http://www.w3.org/1999/xlink" x="0px" y="0px"
	 viewBox="0 0 256 256" style="enable-background:new 0 0 256 256;" xml:space="preserve">
<style type="text/css">
	.st0{fill:#382B73;}
	.st1{fill:#291B4A;}
	.st2{fill:#ED9ABC;}
	.st3{fill:#E54890;}
	.st4{fill:#D3D3D3;}
	.st5{fill:#EBE7F2;}
	.st6{fill:#F9B087;}
	.st7{fill:#FF8639;}
	.st8{fill:#65C1D6;}
	.st9{fill:#149CB2;}
</style>
<g>
	<g>
		<g>
			<g>
				<g>
					
						<ellipse transform="matrix(0.7071 -0.7071 0.7071 0.7071 -53.0193 128)" class="st0" cx="128" cy="128" rx="119.4" ry="119.4"/>
				</g>
			</g>
		</g>
	</g>
	<g>
		<g>
			<g>
				<g>
					<path class="st1" d="M138.041,83.255c0.671-1.207,0.237-2.729-0.969-3.4c-1.207-0.672-2.729-0.237-3.4,0.969
						c-2.309,4.149-7.562,5.648-11.712,3.339c-1.207-0.673-2.729-0.237-3.4,0.969c-0.671,1.207-0.237,2.729,0.969,3.4
						c2.09,1.163,4.356,1.714,6.594,1.714c0.389,0,0.776-0.023,1.163-0.056c1.288,1.515,2.237,3.287,2.723,5.212
						c0.286,1.133,1.304,1.889,2.422,1.889c0.203,0,0.409-0.025,0.614-0.077c1.339-0.338,2.15-1.697,1.812-3.036
						c-0.493-1.955-1.314-3.808-2.419-5.483C134.722,87.508,136.698,85.668,138.041,83.255z"/>
				</g>
			</g>
		</g>
		<g>
			<g>
				<g>
					<path class="st1" d="M173.71,66.513c-3.488-8.344-11.685-13.858-20.817-13.858c-1.875,0-3.733,0.232-5.542,0.69
						c-4.065-3.428-9.168-5.3-14.522-5.3c-3.988,0-7.851,1.037-11.27,3.013c-3.418-1.976-7.281-3.013-11.269-3.013
						c-6.101,0-11.926,2.475-16.165,6.83c-0.962-0.13-1.929-0.196-2.887-0.196c-10.34,0-19.335,7.536-21.196,17.636
						c-0.032,0.042-0.064,0.083-0.096,0.125c-6.1,2.902-10.003,9.045-10.003,15.839c0,0.624,0.034,1.25,0.1,1.872
						c-4.359,3.607-6.92,8.989-6.92,14.69c0,9.62,8.523,19.062,17.207,19.062H94.3c1.381,0,2.5-1.119,2.5-2.5
						c0-0.8-0.382-1.503-0.966-1.961c-1.188-4.362-0.044-9.019,3.085-12.342c2.103-2.232,4.935-3.655,7.975-4.006
						c1.372-0.158,2.355-1.398,2.197-2.77c-0.159-1.372-1.4-2.359-2.77-2.197c-4.21,0.486-8.132,2.455-11.042,5.545
						c-3.891,4.132-5.554,9.753-4.662,15.23H70.331c-5.818,0-12.207-7.359-12.207-14.062c0-4.597,2.258-8.914,6.042-11.547
						c0.816-0.568,1.218-1.566,1.023-2.542c-0.163-0.814-0.245-1.646-0.245-2.473c0-4.855,2.793-9.237,7.149-11.314
						c1.902,0.385,3.719,1.179,5.279,2.361c0.379,0.287,0.734,0.6,1.076,0.924c-2.738,1.642-5.015,3.992-6.56,6.825
						c-2.304,4.225-2.825,9.094-1.466,13.71c0.963,3.274,2.803,6.129,5.291,8.343c-1.328,0.275-2.201,1.558-1.953,2.898
						c0.223,1.204,1.273,2.046,2.456,2.046c0.151,0,0.304-0.014,0.458-0.042c3.575-0.661,6.679-2.675,8.739-5.671
						c2.061-2.996,2.831-6.614,2.17-10.189c-0.252-1.358-1.559-2.255-2.913-2.004c-1.358,0.251-2.255,1.556-2.004,2.913
						c0.418,2.262-0.069,4.551-1.373,6.446c-0.246,0.357-0.521,0.684-0.811,0.996c-2.54-1.689-4.392-4.187-5.263-7.147
						c-0.981-3.335-0.605-6.853,1.059-9.905c1.18-2.163,2.955-3.931,5.086-5.121c0.359,0.794,0.649,1.622,0.843,2.481
						c0.262,1.162,1.293,1.95,2.436,1.95c0.182,0,0.368-0.02,0.553-0.062c1.347-0.304,2.192-1.642,1.888-2.989
						c-0.933-4.135-3.31-7.824-6.692-10.387c-1.6-1.212-3.394-2.14-5.288-2.761c1.681-7.43,8.414-12.902,16.135-12.902
						c0.247,0,0.496,0.024,0.744,0.036c-0.921,6.685,2.022,13.396,7.565,17.254c-1.554,1.999-2.529,4.391-2.788,6.973
						c-0.137,1.374,0.865,2.599,2.239,2.737c0.085,0.008,0.169,0.012,0.252,0.012c1.269,0,2.355-0.962,2.485-2.251
						c0.229-2.289,1.335-4.352,3.115-5.808c1.78-1.456,4.02-2.133,6.31-1.903c1.381,0.136,2.599-0.865,2.737-2.239
						c0.137-1.374-0.865-2.599-2.239-2.737c-2.89-0.287-5.723,0.349-8.183,1.783c-5.15-2.878-7.743-8.938-6.234-14.658
						c3.333-3.705,8.07-5.833,13.049-5.833c3.036,0,5.976,0.777,8.591,2.248c-0.31,4.851,1.333,9.607,4.63,13.243
						c0.493,0.544,1.171,0.82,1.853,0.82c0.599,0,1.2-0.214,1.679-0.648c1.022-0.927,1.1-2.508,0.172-3.531
						c-2.407-2.654-3.581-6.137-3.324-9.681c2.702-1.602,5.768-2.45,8.939-2.45c4.548,0,8.864,1.736,12.151,4.89
						c0.664,0.638,1.624,0.856,2.501,0.574c1.75-0.567,3.57-0.854,5.412-0.854c7.024,0,13.336,4.192,16.104,10.558
						c-2.605,2.983-6.401,4.639-10.402,4.447c-2.717-0.129-5.32-1.111-7.441-2.783c-0.057-3.055-1.124-5.982-3.096-8.376
						c-0.879-1.066-2.454-1.217-3.52-0.34c-1.065,0.878-1.218,2.454-0.34,3.52c1.463,1.775,2.146,4.014,1.925,6.303
						s-1.321,4.356-3.096,5.818c-1.066,0.878-1.218,2.454-0.34,3.519c0.495,0.6,1.21,0.911,1.931,0.911
						c0.56,0,1.123-0.187,1.588-0.57c1.789-1.474,3.138-3.338,3.976-5.432c2.479,1.435,5.277,2.286,8.175,2.424
						c0.289,0.014,0.577,0.021,0.864,0.021c5.244,0,10.174-2.271,13.592-6.216c7.195,2.166,12.299,8.81,12.48,16.409
						c-1.885,0.311-3.68,0.905-5.331,1.757c-4.122,1.923-9.086,0.305-11.243-3.757c-0.647-1.22-2.163-1.685-3.38-1.036
						c-1.22,0.647-1.684,2.161-1.036,3.38c1.704,3.211,4.557,5.567,8.034,6.633c0.414,0.127,0.832,0.227,1.252,0.313
						c-0.721,1.017-1.347,2.119-1.859,3.297c-0.55,1.267,0.03,2.739,1.297,3.289c0.324,0.141,0.662,0.208,0.995,0.208
						c0.966,0,1.885-0.563,2.294-1.504c1.29-2.969,3.569-5.265,6.369-6.584c0.007-0.004,0.015-0.006,0.022-0.01c0,0,0,0,0,0
						c1.388-0.651,2.904-1.059,4.493-1.188c5.077,2.147,8.339,7.032,8.339,12.573c0,6.699-4.985,12.507-11.596,13.51
						c-0.052,0.008-0.104,0.018-0.155,0.028c-0.388,0.084-0.775,0.127-1.152,0.127h-15.17c0.061-0.321,0.117-0.642,0.161-0.965
						c1.334-9.844-5.589-18.938-15.433-20.272c-1.372-0.181-2.627,0.774-2.813,2.142c-0.185,1.368,0.773,2.628,2.142,2.813
						c3.445,0.467,6.502,2.248,8.608,5.014s3.009,6.187,2.542,9.631c-0.073,0.534-0.178,1.067-0.314,1.585
						c-0.005,0.017-0.004,0.035-0.008,0.052H161.3c-1.381,0-2.5,1.119-2.5,2.5s1.119,2.5,2.5,2.5h21.337
						c0.706,0,1.423-0.075,2.132-0.224c8.996-1.403,15.771-9.317,15.771-18.441c0-7.141-3.959-13.494-10.23-16.652
						c0.001-0.103,0.002-0.205,0.002-0.307C190.312,78.106,183.409,69.167,173.71,66.513z"/>
				</g>
			</g>
		</g>
		<g>
			<g>
				<g>
					<path class="st1" d="M116.25,129.945c0,6.479,5.271,11.75,11.75,11.75c6.479,0,11.75-5.271,11.75-11.75
						c0-6.479-5.271-11.75-11.75-11.75C121.521,118.195,116.25,123.466,116.25,129.945z M134.75,129.945
						c0,3.722-3.028,6.75-6.75,6.75c-3.722,0-6.75-3.028-6.75-6.75c0-3.722,3.028-6.75,6.75-6.75
						C131.722,123.195,134.75,126.223,134.75,129.945z"/>
				</g>
			</g>
		</g>
		<g>
			<g>
				<g>
					<path class="st1" d="M120.867,189.147c-1.381,0-2.5,1.119-2.5,2.5s1.119,2.5,2.5,2.5H128c1.381,0,2.5-1.119,2.5-2.5
						s-1.119-2.5-2.5-2.5H120.867z"/>
				</g>
			</g>
		</g>
		<g>
			<g>
				<g>
					<path class="st1" d="M120.867,199.32c-1.381,0-2.5,1.119-2.5,2.5s1.119,2.5,2.5,2.5h14.266c1.381,0,2.5-1.119,2.5-2.5
						s-1.119-2.5-2.5-2.5H120.867z"/>
				</g>
			</g>
		</g>
		<g>
			<g>
				<g>
					<path class="st1" d="M151.002,110.986l-4.044-4.044c-1.618-1.619-4.126-1.937-6.101-0.775l-3.981,2.35l-1.154-4.479
						c-0.574-2.216-2.573-3.764-4.862-3.764h-5.719c-2.289,0-4.288,1.548-4.862,3.766l-1.153,4.477l-3.984-2.352
						c-1.972-1.16-4.48-0.842-6.099,0.777l-4.044,4.044c-1.62,1.619-1.938,4.127-0.775,6.101l2.35,3.981l-4.48,1.155
						c-2.215,0.575-3.763,2.574-3.763,4.862v5.719c0,2.289,1.548,4.289,3.766,4.863l4.477,1.154l-2.351,3.983
						c-1.162,1.973-0.842,4.48,0.777,6.099l4.043,4.043c1.618,1.618,4.125,1.939,6.102,0.776l3.981-2.35l1.155,4.48
						c0.574,2.216,2.573,3.763,4.861,3.763h0.761v7.136h-45.6c-1.381,0-2.5,1.119-2.5,2.5v9.636H67.774
						c-3.02,0-5.477,2.457-5.477,5.477v25.053c0,3.02,2.457,5.477,5.477,5.477h25.053c3.02,0,5.477-2.457,5.477-5.477v-25.053
						c0-3.02-2.457-5.477-5.477-5.477H82.801v-7.136h43.1v7.136h-10.427c-3.02,0-5.477,2.457-5.477,5.477v25.053
						c0,3.02,2.457,5.477,5.477,5.477h25.053c3.02,0,5.477-2.457,5.477-5.477v-25.053c0-3.02-2.457-5.477-5.477-5.477h-9.625v-7.136
						h42.298v7.136h-10.026c-3.02,0-5.477,2.457-5.477,5.477v25.053c0,3.02,2.457,5.477,5.477,5.477h25.053
						c3.02,0,5.477-2.457,5.477-5.477v-25.053c0-3.02-2.457-5.477-5.477-5.477h-10.026v-9.636c0-1.381-1.119-2.5-2.5-2.5h-44.798
						v-7.14c2.271-0.019,4.25-1.558,4.821-3.763l1.154-4.477l3.984,2.352c1.973,1.161,4.481,0.841,6.099-0.777l4.044-4.044
						c1.619-1.619,1.938-4.126,0.775-6.102l-2.35-3.98l4.479-1.154c2.216-0.574,3.764-2.573,3.764-4.862v-5.719
						c0-2.288-1.547-4.287-3.763-4.862c-0.001,0-0.002,0-0.004-0.001l-4.477-1.154l2.351-3.983
						C152.941,115.113,152.622,112.605,151.002,110.986z M92.827,183.889c0.263,0,0.477,0.214,0.477,0.477v25.053
						c0,0.263-0.214,0.477-0.477,0.477H67.774c-0.263,0-0.477-0.214-0.477-0.477v-25.053c0-0.263,0.214-0.477,0.477-0.477H92.827z
						 M188.226,183.889c0.263,0,0.477,0.214,0.477,0.477v25.053c0,0.263-0.214,0.477-0.477,0.477h-25.053
						c-0.263,0-0.477-0.214-0.477-0.477v-25.053c0-0.263,0.214-0.477,0.477-0.477H188.226z M140.526,183.889
						c0.263,0,0.477,0.214,0.477,0.477v25.053c0,0.263-0.214,0.477-0.477,0.477h-25.053c-0.263,0-0.477-0.214-0.477-0.477v-25.053
						c0-0.263,0.214-0.477,0.477-0.477H140.526z M152.657,127.064l0.624-2.421l-0.61,2.442l-0.014,5.74l-7.696,1.983
						c-0.761,0.196-1.385,0.738-1.686,1.464c-0.301,0.726-0.243,1.551,0.157,2.228l4.035,6.868l-4.068,4.049l-6.844-4.04
						c-0.677-0.4-1.503-0.458-2.228-0.157c-0.726,0.3-1.269,0.925-1.464,1.686l-2.004,7.71l-5.74-0.014l-1.983-7.696
						c-0.196-0.761-0.738-1.385-1.464-1.686c-0.307-0.127-0.632-0.19-0.957-0.19c-0.441,0-0.881,0.117-1.271,0.347l-6.868,4.035
						l-4.049-4.069l4.039-6.843c0.399-0.676,0.458-1.501,0.157-2.227c-0.301-0.726-0.925-1.269-1.686-1.464l-7.709-2.004l0.014-5.74
						l7.695-1.983c0.761-0.196,1.385-0.738,1.686-1.464c0.301-0.726,0.243-1.551-0.157-2.227l-4.034-6.869l4.068-4.049l6.844,4.04
						c0.676,0.399,1.502,0.458,2.228,0.157c0.726-0.3,1.269-0.925,1.464-1.686l2.003-7.709l5.74,0.014l1.983,7.695
						c0.196,0.761,0.738,1.385,1.464,1.686c0.726,0.301,1.552,0.243,2.228-0.157l6.868-4.035l4.049,4.068l-4.04,6.844
						c-0.399,0.677-0.458,1.502-0.157,2.228c0.3,0.726,0.925,1.269,1.686,1.464L152.657,127.064z"/>
				</g>
			</g>
		</g>
		<g>
			<g>
				<g>
					<path class="st1" d="M175.699,194.147c1.381,0,2.5-1.119,2.5-2.5s-1.119-2.5-2.5-2.5h-7.133c-1.381,0-2.5,1.119-2.5,2.5
						s1.119,2.5,2.5,2.5H175.699z"/>
				</g>
			</g>
		</g>
		<g>
			<g>
				<g>
					<path class="st1" d="M182.832,204.32c1.381,0,2.5-1.119,2.5-2.5s-1.119-2.5-2.5-2.5h-14.266c-1.381,0-2.5,1.119-2.5,2.5
						s1.119,2.5,2.5,2.5H182.832z"/>
				</g>
			</g>
		</g>
		<g>
			<g>
				<g>
					<path class="st1" d="M73.168,189.147c-1.381,0-2.5,1.119-2.5,2.5s1.119,2.5,2.5,2.5h7.133c1.381,0,2.5-1.119,2.5-2.5
						s-1.119-2.5-2.5-2.5H73.168z"/>
				</g>
			</g>
		</g>
		<g>
			<g>
				<g>
					<path class="st1" d="M73.168,199.32c-1.381,0-2.5,1.119-2.5,2.5s1.119,2.5,2.5,2.5h14.266c1.381,0,2.5-1.119,2.5-2.5
						s-1.119-2.5-2.5-2.5H73.168z"/>
				</g>
			</g>
		</g>
	</g>
	<g>
		<g>
			<g>
				<g>
					<g>
						<path class="st4" d="M125.901,153.116v24.272c0,1.381,1.119,2.5,2.5,2.5s2.5-1.119,2.5-2.5v-24.272c0-1.381-1.119-2.5-2.5-2.5
							S125.901,151.735,125.901,153.116z"/>
					</g>
				</g>
			</g>
			<g>
				<g>
					<g>
						<path class="st4" d="M175.699,179.889c1.381,0,2.5-1.119,2.5-2.5v-12.136c0-1.381-1.119-2.5-2.5-2.5H80.301
							c-1.381,0-2.5,1.119-2.5,2.5v12.136c0,1.381,1.119,2.5,2.5,2.5s2.5-1.119,2.5-2.5v-9.636h90.398v9.636
							C173.199,178.77,174.318,179.889,175.699,179.889z"/>
					</g>
				</g>
			</g>
		</g>
		<g>
			<g>
				<g>
					<path class="st5" d="M175.699,179.889c1.381,0,2.5-1.119,2.5-2.5v-12.136c0-1.381-1.119-2.5-2.5-2.5h-44.798v-9.636
						c0-1.381-1.119-2.5-2.5-2.5s-2.5,1.119-2.5,2.5v9.636h-45.6c-1.381,0-2.5,1.119-2.5,2.5v12.136c0,1.381,1.119,2.5,2.5,2.5
						s2.5-1.119,2.5-2.5v-9.636h43.1v9.636c0,1.381,1.119,2.5,2.5,2.5s2.5-1.119,2.5-2.5v-9.636h42.298v9.636
						C173.199,178.77,174.318,179.889,175.699,179.889z M130.901,166.252c-0.828,0-1.5,0.672-1.5,1.5v9.636c0,0.551-0.449,1-1,1
						s-1-0.449-1-1v-9.636c0-0.828-0.672-1.5-1.5-1.5h-43.1c-0.828,0-1.5,0.672-1.5,1.5v9.636c0,0.551-0.449,1-1,1s-1-0.449-1-1
						v-12.136c0-0.551,0.449-1,1-1h45.6c0.828,0,1.5-0.672,1.5-1.5v-9.636c0-0.551,0.449-1,1-1s1,0.449,1,1v9.636
						c0,0.828,0.672,1.5,1.5,1.5h44.798c0.551,0,1,0.449,1,1v12.136c0,0.551-0.449,1-1,1s-1-0.449-1-1v-9.636
						c0-0.828-0.672-1.5-1.5-1.5H130.901z"/>
				</g>
			</g>
		</g>
		<g>
			<g>
				<g>
					<g>
						<g>
							<path class="st2" d="M174.022,97.952c0.966,0,1.885-0.563,2.294-1.504c1.989-4.579,6.325-7.575,11.315-7.818
								c1.379-0.067,2.442-1.24,2.375-2.619c-0.068-1.379-1.246-2.442-2.619-2.375c-6.904,0.337-12.904,4.483-15.657,10.82
								c-0.55,1.267,0.03,2.739,1.297,3.289C173.352,97.885,173.69,97.952,174.022,97.952z"/>
						</g>
					</g>
				</g>
				<g>
					<g>
						<g>
							<path class="st2" d="M82.978,79.573c1.287-0.5,1.924-1.95,1.423-3.236c-0.501-1.287-1.952-1.924-3.236-1.423
								c-3.951,1.537-7.245,4.436-9.276,8.162c-2.304,4.225-2.825,9.094-1.466,13.71c1.358,4.616,4.433,8.427,8.658,10.731
								c0.38,0.208,0.79,0.306,1.194,0.306c0.886,0,1.744-0.472,2.197-1.304c0.661-1.212,0.214-2.73-0.998-3.392
								c-3.052-1.665-5.274-4.418-6.255-7.753c-0.981-3.335-0.605-6.853,1.059-9.905C77.746,82.778,80.125,80.684,82.978,79.573z"/>
						</g>
					</g>
				</g>
				<g>
					<g>
						<g>
							<path class="st2" d="M172.338,90.844c1.318,0.404,2.666,0.604,4.006,0.604c2.194,0,4.37-0.537,6.364-1.595
								c1.22-0.647,1.684-2.161,1.036-3.38c-0.647-1.22-2.163-1.685-3.38-1.036c-4.195,2.225-9.417,0.625-11.644-3.569
								c-0.647-1.22-2.163-1.684-3.38-1.036c-1.22,0.647-1.684,2.161-1.036,3.38C166.008,87.423,168.861,89.778,172.338,90.844z"/>
						</g>
					</g>
				</g>
				<g>
					<g>
						<g>
							<path class="st2" d="M146.833,65.34c-0.939,1.013-0.879,2.594,0.133,3.533c3.107,2.882,7.154,4.58,11.394,4.78
								c0.289,0.014,0.577,0.021,0.864,0.021c5.792,0,11.207-2.762,14.618-7.5c0.807-1.12,0.552-2.683-0.568-3.489
								c-1.12-0.807-2.683-0.553-3.489,0.568c-2.588,3.595-6.771,5.619-11.188,5.407c-3.063-0.145-5.986-1.371-8.229-3.452
								C149.353,64.269,147.771,64.329,146.833,65.34z"/>
						</g>
					</g>
				</g>
				<g>
					<g>
						<g>
							<path class="st2" d="M95.758,51.166c-1.32-0.413-2.72,0.319-3.134,1.636c-2.689,8.564,1.423,17.893,9.566,21.7
								c0.342,0.16,0.703,0.236,1.057,0.236c0.94,0,1.842-0.533,2.266-1.442c0.585-1.25,0.045-2.739-1.206-3.323
								c-5.883-2.75-8.855-9.488-6.913-15.672C97.808,52.982,97.075,51.579,95.758,51.166z"/>
						</g>
					</g>
				</g>
				<g>
					<g>
						<g>
							<path class="st2" d="M126.64,81.897c-0.98,0.973-0.986,2.556-0.013,3.535c1.645,1.657,2.814,3.721,3.382,5.97
								c0.286,1.133,1.304,1.889,2.422,1.889c0.203,0,0.409-0.025,0.614-0.077c1.339-0.338,2.15-1.697,1.812-3.036
								c-0.787-3.118-2.406-5.977-4.682-8.269C129.202,80.93,127.619,80.924,126.64,81.897z"/>
						</g>
					</g>
				</g>
				<g>
					<g>
						<g>
							<path class="st2" d="M106.894,99.094c1.372-0.158,2.355-1.398,2.197-2.77c-0.159-1.372-1.4-2.355-2.77-2.197
								c-4.21,0.486-8.132,2.455-11.042,5.545c-4.617,4.903-6.112,11.904-3.902,18.271c0.359,1.033,1.327,1.681,2.362,1.681
								c0.272,0,0.548-0.044,0.82-0.139c1.304-0.453,1.995-1.877,1.542-3.182c-1.598-4.602-0.518-9.662,2.818-13.204
								C101.021,100.868,103.854,99.445,106.894,99.094z"/>
						</g>
					</g>
				</g>
				<g>
					<g>
						<g>
							<path class="st2" d="M80.391,71.341c-2.402-1.82-5.238-3.017-8.202-3.459c-1.367-0.201-2.638,0.738-2.842,2.103
								c-0.204,1.366,0.738,2.638,2.103,2.842c2.138,0.319,4.186,1.184,5.922,2.5c2.443,1.852,4.16,4.516,4.834,7.502
								c0.262,1.162,1.293,1.95,2.436,1.95c0.182,0,0.368-0.02,0.553-0.062c1.347-0.304,2.192-1.642,1.888-2.989
								C86.15,77.593,83.773,73.904,80.391,71.341z"/>
						</g>
					</g>
				</g>
				<g>
					<g>
						<g>
							<path class="st2" d="M121.871,47.686c-1.375-0.207-2.636,0.743-2.838,2.108c-0.79,5.359,0.842,10.732,4.479,14.742
								c0.493,0.544,1.171,0.82,1.853,0.82c0.599,0,1.2-0.214,1.679-0.648c1.022-0.927,1.1-2.508,0.172-3.531
								c-2.627-2.896-3.806-6.779-3.235-10.653C124.181,49.157,123.236,47.887,121.871,47.686z"/>
						</g>
					</g>
				</g>
				<g>
					<g>
						<g>
							<path class="st2" d="M162.36,114.851c-0.351,1.335,0.448,2.702,1.783,3.053c0.213,0.056,0.426,0.083,0.636,0.083
								c1.109,0,2.122-0.743,2.417-1.866c0.188-0.713,0.333-1.448,0.433-2.182c1.334-9.844-5.589-18.938-15.433-20.272
								c-1.372-0.181-2.627,0.774-2.813,2.142c-0.185,1.368,0.773,2.628,2.142,2.813c3.445,0.467,6.502,2.248,8.608,5.014
								s3.009,6.187,2.542,9.631C162.602,113.799,162.497,114.333,162.36,114.851z"/>
						</g>
					</g>
				</g>
				<g>
					<g>
						<g>
							<path class="st2" d="M143.029,72.802c-1.066,0.878-1.218,2.454-0.34,3.519c0.495,0.6,1.21,0.911,1.931,0.911
								c0.56,0,1.123-0.187,1.588-0.57c2.806-2.312,4.544-5.578,4.894-9.197c0.35-3.619-0.731-7.158-3.043-9.964
								c-0.879-1.066-2.454-1.217-3.52-0.34c-1.065,0.878-1.218,2.454-0.34,3.52c1.463,1.775,2.146,4.014,1.925,6.303
								S144.804,71.34,143.029,72.802z"/>
						</g>
					</g>
				</g>
				<g>
					<g>
						<g>
							<path class="st2" d="M133.672,76.824c-2.309,4.149-7.562,5.649-11.712,3.339c-1.207-0.672-2.729-0.237-3.4,0.969
								c-0.671,1.207-0.237,2.729,0.969,3.4c2.09,1.163,4.356,1.714,6.594,1.714c4.784,0,9.432-2.523,11.918-6.992
								c0.671-1.207,0.237-2.729-0.969-3.4C135.865,75.182,134.343,75.618,133.672,76.824z"/>
						</g>
					</g>
				</g>
				<g>
					<g>
						<g>
							<path class="st2" d="M101.684,70.761c-2.814,2.302-4.563,5.563-4.925,9.18c-0.137,1.374,0.865,2.599,2.239,2.737
								c0.085,0.008,0.169,0.012,0.252,0.012c1.269,0,2.355-0.962,2.485-2.251c0.229-2.289,1.335-4.352,3.115-5.808
								c1.78-1.456,4.02-2.134,6.31-1.903c1.381,0.129,2.599-0.865,2.737-2.239c0.137-1.374-0.865-2.599-2.239-2.737
								C108.039,67.392,104.499,68.458,101.684,70.761z"/>
						</g>
					</g>
				</g>
				<g>
					<g>
						<g>
							<path class="st2" d="M75.764,105.114c-1.357,0.251-2.255,1.555-2.004,2.913c0.223,1.204,1.273,2.046,2.456,2.046
								c0.151,0,0.304-0.014,0.458-0.042c3.575-0.661,6.679-2.675,8.739-5.671c2.061-2.996,2.831-6.614,2.17-10.189
								c-0.252-1.358-1.559-2.257-2.913-2.004c-1.358,0.251-2.255,1.556-2.004,2.913c0.418,2.262-0.069,4.551-1.373,6.446
								C79.989,103.422,78.026,104.696,75.764,105.114z"/>
						</g>
					</g>
				</g>
				<g>
					<g>
						<g>
							<path class="st2" d="M173.71,62.513c-3.488-8.344-11.685-13.858-20.817-13.858c-1.875,0-3.733,0.232-5.542,0.69
								c-4.065-3.428-9.168-5.3-14.522-5.3c-3.988,0-7.851,1.037-11.27,3.013c-3.418-1.976-7.281-3.013-11.269-3.013
								c-6.101,0-11.926,2.475-16.165,6.83c-0.962-0.13-1.929-0.196-2.887-0.196c-10.34,0-19.335,7.536-21.196,17.636
								c-0.032,0.042-0.064,0.083-0.096,0.125c-6.1,2.902-10.003,9.045-10.003,15.839c0,0.624,0.034,1.25,0.1,1.872
								c-4.359,3.607-6.92,8.989-6.92,14.69c0,9.62,8.523,19.062,17.207,19.062H94.3c1.381,0,2.5-1.119,2.5-2.5s-1.119-2.5-2.5-2.5
								H70.331c-5.818,0-12.207-7.359-12.207-14.062c0-4.597,2.258-8.914,6.042-11.547c0.816-0.568,1.218-1.566,1.023-2.542
								c-0.163-0.814-0.245-1.646-0.245-2.473c0-5.023,2.985-9.549,7.604-11.529c0.411-0.176,0.767-0.459,1.031-0.82
								c0.259-0.353,0.526-0.699,0.795-1.043c0.264-0.338,0.436-0.738,0.5-1.163c1.215-8.007,8.25-14.045,16.363-14.045
								c1.04,0,2.095,0.101,3.137,0.301c0.417,0.081,0.848,0.053,1.252-0.081l0.32-0.108c0.434-0.139,0.822-0.393,1.122-0.736
								c3.34-3.82,8.16-6.01,13.222-6.01c3.538,0,6.949,1.048,9.863,3.03c0.849,0.578,1.964,0.578,2.812,0
								c2.915-1.982,6.326-3.03,9.864-3.03c4.548,0,8.864,1.736,12.151,4.89c0.664,0.637,1.624,0.857,2.501,0.574
								c1.75-0.567,3.57-0.854,5.412-0.854c7.472,0,14.14,4.742,16.591,11.801c0.289,0.831,0.993,1.449,1.854,1.627
								c8.098,1.681,13.975,8.913,13.975,17.196c0,0.535-0.026,1.077-0.081,1.656c-0.104,1.112,0.543,2.159,1.584,2.563
								c5.3,2.057,8.724,7.058,8.724,12.74c0,6.699-4.985,12.507-11.596,13.51c-0.052,0.008-0.104,0.018-0.155,0.028
								c-0.388,0.084-0.775,0.127-1.152,0.127H161.3c-1.381,0-2.5,1.119-2.5,2.5s1.119,2.5,2.5,2.5h21.337
								c0.706,0,1.423-0.075,2.132-0.224c8.996-1.403,15.771-9.317,15.771-18.441c0-7.141-3.959-13.494-10.23-16.652
								c0.001-0.103,0.002-0.205,0.002-0.307C190.312,74.106,183.409,65.167,173.71,62.513z"/>
						</g>
					</g>
				</g>
			</g>
		</g>
		<g>
			<g>
				<g>
					<g>
						<path class="st3" d="M138.041,79.255c0.671-1.207,0.237-2.729-0.969-3.4c-0.385-0.215-0.802-0.316-1.213-0.316
							c-0.878,0-1.73,0.464-2.187,1.286c-1.573,2.827-4.513,4.424-7.54,4.424c-1.415,0-2.849-0.349-4.172-1.085
							c-0.385-0.214-0.802-0.316-1.214-0.316c-0.878,0-1.73,0.464-2.186,1.285c-0.671,1.207-0.237,2.729,0.969,3.4
							c2.09,1.163,4.356,1.714,6.594,1.714c0.389,0,0.776-0.023,1.163-0.056c1.288,1.515,2.237,3.287,2.723,5.212
							c0.286,1.133,1.304,1.889,2.422,1.889c0.203,0,0.409-0.025,0.614-0.077c1.339-0.338,2.15-1.697,1.812-3.036
							c-0.493-1.955-1.314-3.808-2.419-5.483C134.722,83.508,136.698,81.668,138.041,79.255z M131.746,83.365
							c-0.377,0.196-0.653,0.542-0.76,0.954c-0.107,0.411-0.034,0.848,0.199,1.203c1.02,1.547,1.766,3.238,2.217,5.025
							c0.135,0.535-0.19,1.079-0.725,1.214c-0.082,0.021-0.165,0.031-0.247,0.031c-0.457,0-0.855-0.311-0.968-0.756
							c-0.528-2.091-1.577-4.102-3.035-5.816c-0.286-0.337-0.705-0.528-1.143-0.528c-0.043,0-0.086,0.002-0.129,0.005
							c-0.4,0.034-0.728,0.05-1.034,0.05c-2.043,0-4.071-0.527-5.865-1.525c-0.233-0.13-0.402-0.343-0.475-0.599
							c-0.073-0.257-0.042-0.527,0.088-0.761c0.176-0.317,0.511-0.514,0.875-0.514c0.17,0,0.333,0.043,0.484,0.127
							c1.498,0.833,3.193,1.274,4.901,1.274c3.676,0,7.068-1.991,8.851-5.195c0.177-0.318,0.512-0.515,0.876-0.515
							c0.17,0,0.332,0.043,0.484,0.127c0.233,0.13,0.402,0.343,0.475,0.599c0.073,0.257,0.042,0.527-0.088,0.76
							C135.579,80.595,133.856,82.268,131.746,83.365z"/>
					</g>
				</g>
			</g>
			<g>
				<g>
					<g>
						<path class="st3" d="M173.71,62.513c-3.488-8.344-11.685-13.858-20.817-13.858c-1.875,0-3.733,0.232-5.542,0.69
							c-4.065-3.428-9.168-5.3-14.522-5.3c-3.988,0-7.851,1.037-11.27,3.013c-3.418-1.976-7.281-3.013-11.269-3.013
							c-6.101,0-11.926,2.475-16.165,6.83c-0.962-0.13-1.929-0.196-2.887-0.196c-10.34,0-19.335,7.536-21.196,17.636
							c-0.032,0.042-0.064,0.083-0.096,0.125c-6.1,2.902-10.003,9.045-10.003,15.839c0,0.624,0.034,1.25,0.1,1.872
							c-4.359,3.607-6.92,8.989-6.92,14.69c0,9.62,8.523,19.062,17.207,19.062H94.3c1.381,0,2.5-1.119,2.5-2.5
							c0-0.8-0.382-1.503-0.966-1.961c-1.188-4.362-0.044-9.019,3.085-12.342c2.103-2.232,4.935-3.655,7.975-4.006
							c1.372-0.158,2.355-1.398,2.197-2.77c-0.147-1.274-1.229-2.214-2.48-2.214c-0.096,0-0.192,0.006-0.29,0.017
							c-4.21,0.486-8.132,2.455-11.042,5.545c-3.891,4.132-5.554,9.753-4.662,15.23H70.331c-5.818,0-12.207-7.359-12.207-14.062
							c0-4.597,2.258-8.914,6.042-11.547c0.816-0.568,1.218-1.566,1.023-2.542c-0.163-0.814-0.245-1.646-0.245-2.473
							c0-4.855,2.793-9.237,7.149-11.314c1.902,0.385,3.719,1.179,5.279,2.361c0.379,0.287,0.734,0.6,1.076,0.924
							c-2.738,1.642-5.015,3.992-6.56,6.825c-2.304,4.225-2.825,9.094-1.466,13.71c0.963,3.274,2.803,6.129,5.291,8.343
							c-1.328,0.275-2.201,1.558-1.953,2.898c0.223,1.204,1.273,2.046,2.456,2.046c0.151,0,0.304-0.014,0.458-0.042
							c3.575-0.661,6.679-2.675,8.739-5.671c2.061-2.996,2.831-6.614,2.17-10.189c-0.223-1.203-1.275-2.047-2.454-2.047
							c-0.151,0-0.305,0.014-0.459,0.043c-1.358,0.251-2.255,1.556-2.004,2.913c0.418,2.262-0.069,4.551-1.373,6.446
							c-0.246,0.357-0.521,0.684-0.811,0.996c-2.54-1.689-4.392-4.187-5.263-7.147c-0.981-3.335-0.605-6.853,1.059-9.905
							c1.18-2.163,2.955-3.931,5.086-5.121c0.359,0.794,0.649,1.622,0.843,2.481c0.262,1.162,1.293,1.95,2.436,1.95
							c0.182,0,0.368-0.02,0.553-0.062c1.347-0.304,2.192-1.642,1.888-2.989c-0.933-4.135-3.31-7.824-6.692-10.387
							c-1.6-1.212-3.394-2.14-5.288-2.761c1.681-7.43,8.414-12.902,16.135-12.902c0.247,0,0.496,0.024,0.744,0.036
							c-0.921,6.685,2.022,13.396,7.565,17.254c-1.554,1.999-2.529,4.391-2.788,6.973c-0.137,1.374,0.865,2.599,2.239,2.737
							c0.085,0.008,0.169,0.012,0.252,0.012c1.269,0,2.355-0.962,2.485-2.251c0.229-2.289,1.335-4.352,3.115-5.808
							c1.552-1.27,3.454-1.948,5.434-1.948c0.291,0,0.583,0.015,0.876,0.044c0.081,0.008,0.162,0.011,0.241,0.011
							c1.279,0,2.366-0.957,2.495-2.25c0.137-1.374-0.865-2.599-2.239-2.737c-0.454-0.045-0.907-0.068-1.358-0.068
							c-2.414,0-4.752,0.642-6.825,1.851c-5.149-2.879-7.742-8.938-6.233-14.658c3.333-3.705,8.07-5.833,13.049-5.833
							c3.036,0,5.976,0.777,8.591,2.248c-0.31,4.851,1.333,9.607,4.63,13.243c0.493,0.544,1.171,0.82,1.853,0.82
							c0.599,0,1.2-0.214,1.679-0.648c1.022-0.927,1.1-2.508,0.172-3.531c-2.407-2.654-3.581-6.137-3.324-9.681
							c2.702-1.602,5.768-2.45,8.939-2.45c4.548,0,8.864,1.736,12.151,4.89c0.473,0.453,1.095,0.696,1.731,0.696
							c0.258,0,0.517-0.04,0.77-0.121c1.75-0.567,3.57-0.854,5.412-0.854c7.024,0,13.336,4.192,16.104,10.558
							c-2.469,2.827-6.007,4.462-9.776,4.462c-0.208,0-0.417-0.005-0.626-0.015c-2.717-0.129-5.32-1.111-7.441-2.783
							c-0.057-3.055-1.124-5.982-3.096-8.376c-0.495-0.6-1.21-0.91-1.931-0.91c-0.56,0-1.123,0.187-1.589,0.57
							c-1.065,0.878-1.218,2.454-0.34,3.52c1.463,1.775,2.146,4.014,1.925,6.303s-1.321,4.356-3.096,5.818
							c-1.066,0.878-1.218,2.454-0.34,3.519c0.495,0.6,1.21,0.911,1.931,0.911c0.56,0,1.123-0.187,1.588-0.57
							c1.789-1.474,3.138-3.338,3.976-5.432c2.479,1.435,5.277,2.286,8.175,2.424c0.289,0.014,0.577,0.021,0.864,0.021
							c5.244,0,10.174-2.271,13.592-6.216c7.195,2.166,12.299,8.81,12.48,16.409c-1.886,0.311-3.681,0.905-5.332,1.758
							c-1.171,0.546-2.409,0.807-3.632,0.807c-3.083,0-6.066-1.656-7.61-4.564c-0.449-0.846-1.316-1.329-2.211-1.329
							c-0.395,0-0.796,0.094-1.169,0.292c-1.22,0.647-1.684,2.161-1.036,3.38c1.704,3.211,4.557,5.567,8.034,6.633
							c0.414,0.127,0.832,0.227,1.252,0.313c-0.721,1.017-1.347,2.119-1.859,3.297c-0.55,1.267,0.03,2.739,1.297,3.289
							c0.324,0.141,0.662,0.208,0.995,0.208c0.966,0,1.885-0.563,2.294-1.504c1.29-2.969,3.569-5.265,6.369-6.584
							c0.007-0.004,0.015-0.006,0.022-0.01c0,0,0,0,0,0c1.388-0.651,2.904-1.059,4.493-1.188c5.077,2.147,8.339,7.032,8.339,12.573
							c0,6.699-4.985,12.507-11.596,13.51c-0.052,0.008-0.104,0.018-0.155,0.028c-0.388,0.084-0.775,0.127-1.152,0.127h-15.17
							c0.061-0.321,0.117-0.642,0.161-0.965c1.334-9.844-5.589-18.938-15.433-20.272c-0.112-0.015-0.224-0.022-0.334-0.022
							c-1.236,0-2.309,0.908-2.479,2.164c-0.185,1.368,0.773,2.628,2.142,2.813c3.445,0.467,6.502,2.248,8.608,5.014
							s3.009,6.187,2.542,9.631c-0.073,0.534-0.178,1.067-0.314,1.585c-0.005,0.017-0.004,0.035-0.008,0.052H161.3
							c-1.381,0-2.5,1.119-2.5,2.5s1.119,2.5,2.5,2.5h21.337c0.706,0,1.423-0.075,2.132-0.224
							c8.996-1.403,15.771-9.317,15.771-18.441c0-7.141-3.959-13.494-10.23-16.652c0.001-0.103,0.002-0.205,0.002-0.307
							C190.312,74.106,183.409,65.167,173.71,62.513z M199.041,101.238c0,8.379-6.234,15.67-14.502,16.959
							c-0.026,0.004-0.051,0.009-0.076,0.014c-0.608,0.127-1.222,0.192-1.825,0.192H161.3c-0.551,0-1-0.449-1-1s0.449-1,1-1h1.052
							c0.693,0,1.295-0.474,1.458-1.148c0.008-0.033,0.015-0.066,0.021-0.099c0.142-0.551,0.253-1.119,0.331-1.69
							c0.521-3.841-0.486-7.656-2.835-10.741c-2.349-3.085-5.758-5.071-9.6-5.591c-0.546-0.074-0.931-0.579-0.857-1.125
							c0.067-0.494,0.494-0.866,0.993-0.866c0.045,0,0.091,0.003,0.133,0.009c9.024,1.223,15.371,9.56,14.148,18.583
							c-0.04,0.296-0.092,0.592-0.149,0.886c-0.084,0.439,0.033,0.893,0.318,1.237c0.285,0.344,0.709,0.544,1.156,0.544h15.17
							c0.484,0,0.979-0.054,1.459-0.159l0.072-0.013c7.338-1.113,12.871-7.559,12.871-14.993c0-6.1-3.633-11.577-9.255-13.955
							c-0.185-0.078-0.384-0.118-0.584-0.118c-0.041,0-0.081,0.002-0.122,0.005c-1.749,0.142-3.432,0.587-5.002,1.322
							c-0.01,0.005-0.021,0.009-0.031,0.014l0,0c-3.175,1.495-5.698,4.103-7.106,7.344c-0.159,0.366-0.519,0.602-0.919,0.602
							c-0.136,0-0.27-0.028-0.397-0.083c-0.506-0.22-0.739-0.81-0.519-1.316c0.463-1.066,1.037-2.084,1.706-3.027
							c0.293-0.413,0.358-0.946,0.173-1.417s-0.596-0.817-1.091-0.92c-0.435-0.09-0.79-0.179-1.116-0.279
							c-3.093-0.948-5.632-3.044-7.149-5.902c-0.125-0.236-0.151-0.506-0.073-0.761c0.078-0.255,0.251-0.465,0.488-0.591
							c0.146-0.078,0.302-0.117,0.465-0.117c0.372,0,0.712,0.204,0.886,0.532c1.756,3.306,5.179,5.36,8.935,5.36
							c1.483,0,2.919-0.319,4.266-0.947c0.018-0.008,0.036-0.017,0.054-0.026c1.52-0.785,3.165-1.327,4.888-1.61
							c0.738-0.122,1.274-0.768,1.256-1.516c-0.196-8.273-5.64-15.43-13.547-17.81c-0.143-0.043-0.288-0.064-0.432-0.064
							c-0.428,0-0.844,0.184-1.134,0.518c-3.138,3.621-7.679,5.698-12.458,5.698c-0.263,0-0.528-0.006-0.793-0.019
							c-2.604-0.123-5.195-0.892-7.494-2.224c-0.231-0.134-0.491-0.202-0.752-0.202c-0.165,0-0.33,0.027-0.49,0.082
							c-0.412,0.142-0.741,0.456-0.903,0.861c-0.749,1.871-1.972,3.541-3.537,4.831c-0.229,0.189-0.471,0.228-0.634,0.228
							c-0.301,0-0.583-0.133-0.773-0.365c-0.17-0.206-0.249-0.466-0.223-0.732c0.026-0.266,0.154-0.506,0.36-0.676
							c2.084-1.717,3.375-4.144,3.635-6.832c0.26-2.689-0.543-5.318-2.26-7.401c-0.351-0.426-0.289-1.058,0.135-1.408
							c0.229-0.189,0.472-0.229,0.635-0.229c0.301,0,0.583,0.133,0.773,0.364c1.75,2.125,2.702,4.701,2.754,7.45
							c0.008,0.449,0.218,0.872,0.571,1.15c2.392,1.886,5.262,2.96,8.297,3.103c0.233,0.011,0.466,0.017,0.698,0.017
							c4.169,0,8.143-1.813,10.906-4.975c0.381-0.436,0.477-1.053,0.246-1.585c-3.027-6.961-9.888-11.46-17.479-11.46
							c-1.999,0-3.976,0.312-5.872,0.926c-0.101,0.032-0.205,0.049-0.31,0.049c-0.259,0-0.505-0.099-0.692-0.278
							c-3.568-3.422-8.252-5.307-13.19-5.307c-3.414,0-6.77,0.92-9.704,2.66c-0.422,0.251-0.695,0.692-0.731,1.182
							c-0.29,4.006,1.028,7.84,3.709,10.797c0.18,0.198,0.271,0.454,0.258,0.721c-0.013,0.267-0.129,0.512-0.327,0.692
							c-0.184,0.167-0.423,0.259-0.671,0.259c-0.286,0-0.55-0.116-0.741-0.328c-3.024-3.334-4.531-7.645-4.244-12.139
							c0.037-0.575-0.259-1.12-0.761-1.403c-2.838-1.597-6.063-2.441-9.326-2.441c-5.382,0-10.545,2.307-14.164,6.329
							c-0.159,0.177-0.274,0.39-0.335,0.621c-1.687,6.395,1.172,13.118,6.952,16.35c0.228,0.127,0.48,0.191,0.732,0.191
							c0.261,0,0.522-0.068,0.756-0.204c1.847-1.077,3.946-1.647,6.07-1.647c0.401,0,0.808,0.02,1.208,0.06
							c0.549,0.055,0.951,0.546,0.896,1.095c-0.051,0.513-0.483,0.9-1.003,0.9c-0.034,0-0.067-0.002-0.091-0.004
							c-0.341-0.034-0.686-0.052-1.027-0.052c-2.347,0-4.555,0.791-6.384,2.287c-2.091,1.711-3.39,4.133-3.658,6.819
							c-0.052,0.514-0.478,0.901-0.992,0.901c-0.035,0-0.07-0.002-0.102-0.005c-0.549-0.055-0.951-0.546-0.896-1.095
							c0.226-2.261,1.084-4.406,2.48-6.202c0.253-0.325,0.36-0.739,0.298-1.146s-0.288-0.77-0.626-1.005
							c-5.053-3.516-7.775-9.725-6.936-15.818c0.058-0.417-0.063-0.84-0.333-1.164c-0.27-0.324-0.663-0.52-1.084-0.539l-0.231-0.014
							c-0.194-0.012-0.389-0.024-0.582-0.024c-8.352,0-15.753,5.918-17.598,14.071c-0.171,0.755,0.261,1.516,0.996,1.756
							c1.764,0.578,3.396,1.43,4.849,2.531c3.101,2.349,5.279,5.731,6.135,9.522c0.059,0.26,0.013,0.528-0.13,0.754
							c-0.143,0.226-0.365,0.382-0.627,0.442c-0.073,0.016-0.147,0.025-0.221,0.025c-0.462,0-0.871-0.328-0.973-0.781
							c-0.207-0.917-0.523-1.849-0.939-2.769c-0.173-0.383-0.499-0.675-0.897-0.807c-0.153-0.05-0.311-0.075-0.469-0.075
							c-0.254,0-0.506,0.064-0.732,0.191c-2.405,1.344-4.365,3.319-5.671,5.713c-1.856,3.404-2.276,7.327-1.181,11.047
							c0.959,3.261,3.044,6.093,5.871,7.973c0.254,0.169,0.543,0.251,0.83,0.251c0.405,0,0.806-0.163,1.098-0.478
							c0.377-0.405,0.687-0.786,0.949-1.168c1.531-2.225,2.103-4.913,1.612-7.569c-0.1-0.542,0.26-1.065,0.805-1.166
							c0.061-0.011,0.122-0.017,0.183-0.017c0.479,0,0.891,0.345,0.979,0.819c0.588,3.181-0.097,6.401-1.931,9.066
							c-1.833,2.666-4.595,4.458-7.775,5.046c-0.062,0.011-0.124,0.017-0.186,0.017c-0.48,0-0.893-0.344-0.981-0.818
							c-0.099-0.537,0.244-1.046,0.782-1.157c0.555-0.115,0.998-0.533,1.145-1.081c0.147-0.548-0.028-1.131-0.452-1.509
							c-2.304-2.05-3.981-4.693-4.849-7.645c-1.245-4.232-0.768-8.696,1.344-12.569c1.404-2.576,3.484-4.739,6.014-6.256
							c0.402-0.241,0.669-0.657,0.72-1.124c0.051-0.467-0.119-0.93-0.46-1.252c-0.434-0.411-0.816-0.739-1.201-1.03
							c-1.7-1.289-3.736-2.2-5.887-2.636c-0.099-0.02-0.198-0.03-0.298-0.03c-0.222,0-0.443,0.049-0.646,0.146
							c-4.862,2.318-8.003,7.29-8.003,12.668c0,0.925,0.092,1.856,0.274,2.767c0.078,0.39-0.083,0.789-0.409,1.016
							c-4.186,2.913-6.685,7.69-6.685,12.778c0,7.563,7.045,15.562,13.707,15.562h20.286c0.44,0,0.858-0.193,1.143-0.528
							c0.285-0.335,0.408-0.779,0.338-1.213c-0.832-5.105,0.726-10.194,4.273-13.961c2.667-2.833,6.262-4.638,10.122-5.084
							c0.039-0.005,0.078-0.007,0.117-0.007c0.506,0,0.932,0.381,0.99,0.885c0.031,0.265-0.044,0.527-0.21,0.736
							c-0.166,0.209-0.403,0.341-0.669,0.372c-3.391,0.392-6.55,1.978-8.895,4.468c-3.491,3.708-4.778,8.853-3.44,13.764
							c0.085,0.312,0.268,0.588,0.522,0.787c0.249,0.195,0.391,0.479,0.391,0.78c0,0.551-0.449,1-1,1H70.331
							c-7.927,0-15.707-8.699-15.707-17.562c0-5.248,2.324-10.182,6.376-13.534c0.388-0.321,0.589-0.814,0.535-1.315
							c-0.061-0.57-0.092-1.146-0.092-1.713c0-6.156,3.591-11.841,9.147-14.485c0.218-0.104,0.407-0.258,0.552-0.45l0.089-0.117
							c0.144-0.188,0.242-0.408,0.285-0.641c1.723-9.354,10.201-16.407,19.721-16.407c0.887,0,1.791,0.061,2.686,0.182
							c0.067,0.009,0.134,0.014,0.201,0.014c0.402,0,0.79-0.162,1.075-0.454c3.945-4.052,9.445-6.376,15.09-6.376
							c3.699,0,7.336,0.972,10.518,2.811c0.232,0.134,0.491,0.201,0.751,0.201s0.518-0.067,0.751-0.201
							c3.183-1.839,6.82-2.811,10.519-2.811c4.958,0,9.772,1.757,13.555,4.947c0.274,0.231,0.617,0.353,0.967,0.353
							c0.123,0,0.247-0.015,0.368-0.046c1.687-0.428,3.428-0.644,5.173-0.644c8.52,0,16.148,5.078,19.433,12.937
							c0.178,0.426,0.543,0.746,0.988,0.868c9.125,2.497,15.498,10.853,15.498,20.319l-0.002,0.285
							c-0.008,0.574,0.312,1.103,0.825,1.361C195.437,88.847,199.041,94.715,199.041,101.238z"/>
					</g>
				</g>
			</g>
		</g>
		<g>
			<g>
				<g>
					<path class="st6" d="M128,114.195c-6.479,0-11.75,5.271-11.75,11.75c0,6.479,5.271,11.75,11.75,11.75
						c6.479,0,11.75-5.271,11.75-11.75C139.75,119.466,134.479,114.195,128,114.195z M128,132.694c-3.722,0-6.75-3.028-6.75-6.75
						c0-3.722,3.028-6.75,6.75-6.75c3.722,0,6.75,3.028,6.75,6.75C134.75,129.667,131.722,132.694,128,132.694z"/>
					<path class="st6" d="M151.002,106.986l-4.044-4.044c-1.618-1.618-4.126-1.937-6.101-0.775l-3.981,2.35l-1.154-4.479
						c-0.574-2.216-2.573-3.764-4.862-3.764h-5.719c-2.289,0-4.288,1.548-4.862,3.766l-1.153,4.477l-3.984-2.352
						c-1.972-1.16-4.48-0.841-6.099,0.777l-4.044,4.044c-1.62,1.619-1.938,4.127-0.775,6.101l2.35,3.981l-4.48,1.155
						c-2.215,0.575-3.763,2.574-3.763,4.862v5.719c0,2.289,1.548,4.289,3.766,4.863l4.477,1.154l-2.351,3.983
						c-1.162,1.973-0.842,4.481,0.777,6.1l4.043,4.043c1.618,1.618,4.125,1.94,6.102,0.776l3.981-2.35l1.155,4.48
						c0.574,2.216,2.573,3.763,4.861,3.763h5.719c2.289,0,4.288-1.547,4.863-3.767l1.154-4.477l3.984,2.352
						c1.973,1.16,4.481,0.841,6.099-0.777l4.044-4.044c1.619-1.619,1.938-4.127,0.775-6.102l-2.35-3.98l4.479-1.154
						c2.216-0.574,3.764-2.573,3.764-4.862v-5.719c0-2.288-1.547-4.287-3.763-4.862c-0.001,0-0.002,0-0.004-0.001l-4.477-1.154
						l2.351-3.983C152.941,111.113,152.622,108.605,151.002,106.986z M152.657,123.064l0.624-2.421l-0.61,2.442l-0.014,5.74
						l-7.696,1.983c-0.761,0.196-1.385,0.738-1.686,1.464c-0.301,0.726-0.243,1.551,0.157,2.228l4.035,6.868l-4.068,4.049
						l-6.844-4.04c-0.677-0.4-1.503-0.458-2.228-0.157c-0.726,0.3-1.269,0.925-1.464,1.686l-2.004,7.71l-5.74-0.014l-1.983-7.696
						c-0.196-0.761-0.738-1.385-1.464-1.686c-0.307-0.127-0.632-0.19-0.957-0.19c-0.441,0-0.881,0.117-1.271,0.347l-6.868,4.035
						l-4.049-4.069l4.039-6.843c0.399-0.676,0.458-1.501,0.157-2.227c-0.301-0.726-0.925-1.269-1.686-1.464l-7.709-2.004l0.014-5.74
						l7.695-1.983c0.761-0.196,1.385-0.738,1.686-1.464c0.301-0.726,0.243-1.551-0.157-2.227l-4.034-6.869l4.068-4.049l6.844,4.04
						c0.676,0.399,1.502,0.457,2.228,0.157c0.726-0.3,1.269-0.925,1.464-1.686l2.003-7.709l5.74,0.014l1.983,7.695
						c0.196,0.761,0.738,1.385,1.464,1.686c0.726,0.301,1.552,0.244,2.228-0.157l6.868-4.035l4.049,4.068l-4.04,6.844
						c-0.399,0.677-0.458,1.502-0.157,2.228c0.3,0.726,0.925,1.269,1.686,1.464L152.657,123.064z"/>
				</g>
			</g>
		</g>
		<g>
			<g>
				<g>
					<g>
						<g>
							<path class="st6" d="M115.474,174.889c-3.02,0-5.477,2.457-5.477,5.477v25.053c0,3.02,2.457,5.477,5.477,5.477h25.053
								c3.02,0,5.477-2.457,5.477-5.477v-25.053c0-3.02-2.457-5.477-5.477-5.477H115.474z M141.003,180.365v25.053
								c0,0.263-0.214,0.477-0.477,0.477h-25.053c-0.263,0-0.477-0.214-0.477-0.477v-25.053c0-0.263,0.214-0.477,0.477-0.477h25.053
								C140.789,179.889,141.003,180.103,141.003,180.365z"/>
						</g>
					</g>
				</g>
				<g>
					<g>
						<g>
							<path class="st6" d="M120.867,185.147c-1.381,0-2.5,1.119-2.5,2.5s1.119,2.5,2.5,2.5H128c1.381,0,2.5-1.119,2.5-2.5
								s-1.119-2.5-2.5-2.5H120.867z"/>
						</g>
					</g>
				</g>
				<g>
					<g>
						<g>
							<path class="st6" d="M120.867,195.32c-1.381,0-2.5,1.119-2.5,2.5s1.119,2.5,2.5,2.5h14.266c1.381,0,2.5-1.119,2.5-2.5
								s-1.119-2.5-2.5-2.5H120.867z"/>
						</g>
					</g>
				</g>
			</g>
			<g>
				<g>
					<g>
						<g>
							<path class="st6" d="M188.226,210.895c3.02,0,5.477-2.457,5.477-5.477v-25.053c0-3.02-2.457-5.477-5.477-5.477h-25.053
								c-3.02,0-5.477,2.457-5.477,5.477v25.053c0,3.02,2.457,5.477,5.477,5.477H188.226z M162.696,205.418v-25.053
								c0-0.263,0.214-0.477,0.477-0.477h25.053c0.263,0,0.477,0.214,0.477,0.477v25.053c0,0.263-0.214,0.477-0.477,0.477h-25.053
								C162.91,205.895,162.696,205.681,162.696,205.418z"/>
						</g>
					</g>
				</g>
				<g>
					<g>
						<g>
							<path class="st6" d="M175.699,190.147c1.381,0,2.5-1.119,2.5-2.5s-1.119-2.5-2.5-2.5h-7.133c-1.381,0-2.5,1.119-2.5,2.5
								s1.119,2.5,2.5,2.5H175.699z"/>
						</g>
					</g>
				</g>
				<g>
					<g>
						<g>
							<path class="st6" d="M182.832,200.32c1.381,0,2.5-1.119,2.5-2.5s-1.119-2.5-2.5-2.5h-14.266c-1.381,0-2.5,1.119-2.5,2.5
								s1.119,2.5,2.5,2.5H182.832z"/>
						</g>
					</g>
				</g>
			</g>
			<g>
				<g>
					<g>
						<g>
							<path class="st6" d="M67.774,174.889c-3.02,0-5.477,2.457-5.477,5.477v25.053c0,3.02,2.457,5.477,5.477,5.477h25.053
								c3.02,0,5.477-2.457,5.477-5.477v-25.053c0-3.02-2.457-5.477-5.477-5.477H67.774z M93.304,180.365v25.053
								c0,0.263-0.214,0.477-0.477,0.477H67.774c-0.263,0-0.477-0.214-0.477-0.477v-25.053c0-0.263,0.214-0.477,0.477-0.477h25.053
								C93.09,179.889,93.304,180.103,93.304,180.365z"/>
						</g>
					</g>
				</g>
				<g>
					<g>
						<g>
							<path class="st6" d="M73.168,185.147c-1.381,0-2.5,1.119-2.5,2.5s1.119,2.5,2.5,2.5h7.133c1.381,0,2.5-1.119,2.5-2.5
								s-1.119-2.5-2.5-2.5H73.168z"/>
						</g>
					</g>
				</g>
				<g>
					<g>
						<g>
							<path class="st6" d="M73.168,195.32c-1.381,0-2.5,1.119-2.5,2.5s1.119,2.5,2.5,2.5h14.266c1.381,0,2.5-1.119,2.5-2.5
								s-1.119-2.5-2.5-2.5H73.168z"/>
						</g>
					</g>
				</g>
			</g>
		</g>
		<g>
			<g>
				<g>
					<g>
						<path class="st7" d="M116.25,125.945c0,6.479,5.271,11.75,11.75,11.75c6.479,0,11.75-5.271,11.75-11.75
							c0-6.479-5.271-11.75-11.75-11.75C121.521,114.195,116.25,119.466,116.25,125.945z M138.25,125.945
							c0,5.652-4.598,10.25-10.25,10.25c-5.652,0-10.25-4.598-10.25-10.25c0-5.652,4.598-10.25,10.25-10.25
							C133.652,115.695,138.25,120.293,138.25,125.945z"/>
						<path class="st7" d="M119.75,125.945c0,4.549,3.701,8.25,8.25,8.25c4.549,0,8.25-3.701,8.25-8.25
							c0-4.549-3.701-8.25-8.25-8.25C123.451,117.695,119.75,121.396,119.75,125.945z M134.75,125.945c0,3.722-3.028,6.75-6.75,6.75
							c-3.722,0-6.75-3.028-6.75-6.75c0-3.722,3.028-6.75,6.75-6.75C131.722,119.195,134.75,122.223,134.75,125.945z"/>
					</g>
				</g>
			</g>
			<g>
				<g>
					<g>
						<path class="st7" d="M151.002,106.986l-4.044-4.044c-0.967-0.967-2.252-1.47-3.551-1.47c-0.875,0-1.755,0.228-2.55,0.695
							l-3.981,2.35l-1.154-4.479c-0.574-2.216-2.573-3.764-4.862-3.764h-5.719c-2.289,0-4.288,1.548-4.862,3.766l-1.153,4.477
							l-3.984-2.352c-0.793-0.466-1.672-0.694-2.545-0.694c-1.299,0-2.586,0.503-3.553,1.471l-4.044,4.044
							c-1.62,1.619-1.938,4.127-0.775,6.101l2.35,3.981l-4.48,1.155c-2.215,0.575-3.763,2.574-3.763,4.862v5.719
							c0,2.289,1.548,4.289,3.766,4.863l4.477,1.154l-2.351,3.983c-1.162,1.973-0.842,4.481,0.777,6.1l4.043,4.043
							c0.967,0.968,2.253,1.472,3.553,1.472c0.874,0,1.754-0.228,2.549-0.696l3.981-2.35l1.155,4.48
							c0.574,2.216,2.573,3.763,4.861,3.763h5.719c2.289,0,4.288-1.547,4.863-3.767l1.154-4.477l3.984,2.352
							c0.793,0.466,1.673,0.693,2.546,0.693c1.299,0,2.585-0.503,3.552-1.471l4.044-4.044c1.619-1.619,1.938-4.127,0.775-6.102
							l-2.35-3.98l4.479-1.154c2.216-0.574,3.764-2.573,3.764-4.862v-5.719c0-2.288-1.547-4.287-3.763-4.862
							c-0.001,0-0.002,0-0.004-0.001l-4.477-1.154l2.351-3.983C152.941,111.113,152.622,108.605,151.002,106.986z M153.281,120.643
							l-0.61,2.442l-0.014,5.74l-7.696,1.983c-0.761,0.196-1.385,0.738-1.686,1.464c-0.301,0.726-0.243,1.551,0.157,2.228
							l4.035,6.868l-4.068,4.049l-6.844-4.04c-0.39-0.231-0.83-0.348-1.272-0.348c-0.324,0-0.649,0.063-0.956,0.191
							c-0.726,0.3-1.269,0.925-1.464,1.686l-2.004,7.71l-5.74-0.014l-1.983-7.696c-0.196-0.761-0.738-1.385-1.464-1.686
							c-0.307-0.127-0.632-0.19-0.957-0.19c-0.441,0-0.881,0.117-1.271,0.347l-6.868,4.035l-4.049-4.069l4.039-6.843
							c0.399-0.676,0.458-1.501,0.157-2.227c-0.301-0.726-0.925-1.269-1.686-1.464l-7.709-2.004l0.014-5.74l7.695-1.983
							c0.761-0.196,1.385-0.738,1.686-1.464c0.301-0.726,0.243-1.551-0.157-2.227l-4.034-6.869l4.068-4.049l6.844,4.04
							c0.39,0.23,0.829,0.347,1.271,0.347c0.324,0,0.65-0.063,0.957-0.19c0.726-0.3,1.269-0.925,1.464-1.686l2.003-7.709l5.74,0.014
							l1.983,7.695c0.196,0.761,0.738,1.385,1.464,1.686c0.307,0.128,0.633,0.191,0.958,0.191c0.441,0,0.881-0.117,1.27-0.348
							l6.868-4.035l4.049,4.068l-4.04,6.844c-0.399,0.677-0.458,1.502-0.157,2.228c0.3,0.726,0.925,1.269,1.686,1.464l7.696,1.983
							L153.281,120.643z M150.487,112.323l-2.351,3.983c-0.24,0.406-0.274,0.901-0.094,1.336c0.18,0.436,0.555,0.761,1.011,0.879
							l3.395,0.875c-0.296,0.198-0.523,0.501-0.619,0.873l-0.25,0.969l-6.244-1.609c-0.302-0.078-0.554-0.297-0.674-0.586
							c-0.12-0.288-0.096-0.621,0.063-0.891l4.04-6.844c0.347-0.588,0.253-1.336-0.229-1.821l-4.049-4.068
							c-0.289-0.291-0.674-0.442-1.064-0.442c-0.26,0-0.523,0.068-0.759,0.207l-6.873,4.037c-0.153,0.09-0.327,0.138-0.505,0.138
							c-0.132,0-0.26-0.026-0.384-0.077c-0.289-0.119-0.507-0.371-0.585-0.674l-1.983-7.695c-0.17-0.661-0.766-1.124-1.449-1.126
							l-5.74-0.014c-0.001,0-0.003,0-0.004,0c-0.683,0-1.28,0.461-1.452,1.123l-2.004,7.713c-0.078,0.302-0.297,0.554-0.585,0.673
							c-0.122,0.051-0.251,0.076-0.383,0.076c-0.179,0-0.354-0.048-0.508-0.139l-6.844-4.04c-0.237-0.14-0.5-0.208-0.762-0.208
							c-0.387,0-0.77,0.149-1.059,0.437l-4.068,4.049c-0.485,0.483-0.582,1.233-0.235,1.823l4.036,6.872
							c0.159,0.269,0.182,0.601,0.063,0.89c-0.12,0.289-0.372,0.508-0.674,0.586l-7.695,1.983c-0.661,0.17-1.124,0.766-1.126,1.449
							l-0.014,5.74c-0.002,0.684,0.46,1.283,1.123,1.455l7.713,2.005c0.302,0.078,0.554,0.297,0.674,0.586
							c0.12,0.288,0.096,0.621-0.063,0.89l-4.039,6.843c-0.347,0.588-0.253,1.336,0.228,1.82l4.049,4.069
							c0.289,0.291,0.674,0.442,1.064,0.442c0.26,0,0.523-0.068,0.759-0.207l6.871-4.036c0.154-0.091,0.329-0.139,0.508-0.139
							c0.132,0,0.26,0.026,0.383,0.077c0.288,0.119,0.507,0.371,0.585,0.674l1.983,7.696c0.17,0.661,0.766,1.124,1.449,1.126
							l5.74,0.014c0.001,0,0.002,0,0.004,0c0.683,0,1.28-0.461,1.452-1.123l2.005-7.713c0.078-0.302,0.296-0.554,0.589-0.675
							c0.12-0.05,0.248-0.076,0.379-0.076c0.179,0,0.355,0.048,0.509,0.139l6.844,4.04c0.237,0.14,0.5,0.208,0.762,0.208
							c0.387,0,0.77-0.149,1.059-0.437l4.068-4.049c0.485-0.483,0.582-1.233,0.235-1.823l-4.036-6.871
							c-0.159-0.269-0.182-0.602-0.062-0.892c0.119-0.288,0.371-0.507,0.674-0.585l7.696-1.983c0.661-0.17,1.124-0.766,1.126-1.449
							l0.014-5.558l0.566-2.265c0.065-0.261,0.058-0.524-0.01-0.766c0.888,0.649,1.445,1.695,1.445,2.844v5.719
							c0,1.605-1.085,3.008-2.638,3.41l-4.479,1.154c-0.457,0.118-0.831,0.443-1.012,0.879c-0.18,0.436-0.146,0.931,0.094,1.336
							l2.349,3.979c0.816,1.385,0.592,3.145-0.543,4.28l-4.044,4.044c-0.665,0.665-1.549,1.031-2.491,1.031
							c-0.627,0-1.244-0.168-1.784-0.485l-3.984-2.352c-0.234-0.138-0.498-0.208-0.763-0.208c-0.194,0-0.389,0.038-0.574,0.114
							c-0.436,0.18-0.761,0.555-0.879,1.011l-1.153,4.475c-0.403,1.556-1.805,2.643-3.411,2.643h-5.719
							c-1.605,0-3.007-1.085-3.409-2.638l-1.155-4.48c-0.118-0.456-0.443-0.831-0.879-1.011c-0.184-0.076-0.379-0.114-0.574-0.114
							c-0.265,0-0.529,0.07-0.763,0.208l-3.98,2.349c-0.542,0.319-1.161,0.488-1.788,0.488c-0.942,0-1.827-0.367-2.492-1.032
							l-4.044-4.044c-1.135-1.135-1.359-2.894-0.546-4.276l2.351-3.983c0.24-0.406,0.274-0.901,0.094-1.336
							c-0.18-0.436-0.555-0.761-1.011-0.879l-4.476-1.153c-1.556-0.403-2.642-1.805-2.642-3.411v-5.719
							c0-1.604,1.085-3.007,2.637-3.409l4.48-1.155c0.456-0.118,0.831-0.443,1.011-0.879c0.18-0.435,0.146-0.93-0.094-1.336
							l-2.349-3.981c-0.816-1.384-0.592-3.143,0.544-4.279l4.044-4.044c0.665-0.665,1.551-1.032,2.493-1.032
							c0.627,0,1.244,0.168,1.783,0.485l3.984,2.352c0.234,0.138,0.498,0.208,0.763,0.208c0.194,0,0.39-0.038,0.574-0.114
							c0.436-0.18,0.761-0.555,0.879-1.012l1.153-4.475c0.403-1.556,1.805-2.642,3.41-2.642h5.719c1.605,0,3.008,1.085,3.41,2.638
							l1.154,4.479c0.118,0.457,0.443,0.831,0.879,1.012c0.184,0.076,0.38,0.114,0.574,0.114c0.265,0,0.529-0.07,0.763-0.208
							l3.979-2.349c0.543-0.319,1.162-0.488,1.789-0.488c0.942,0,1.826,0.366,2.491,1.031l4.045,4.045
							C151.078,109.182,151.302,110.941,150.487,112.323z"/>
					</g>
				</g>
			</g>
			<g>
				<g>
					<g>
						<path class="st7" d="M115.474,174.889c-3.02,0-5.477,2.457-5.477,5.477v25.053c0,3.02,2.457,5.477,5.477,5.477h25.053
							c3.02,0,5.477-2.457,5.477-5.477v-25.053c0-3.02-2.457-5.477-5.477-5.477H115.474z M144.503,180.365v25.053
							c0,2.193-1.784,3.977-3.977,3.977h-25.053c-2.193,0-3.977-1.784-3.977-3.977v-25.053c0-2.193,1.784-3.977,3.977-3.977h25.053
							C142.719,176.389,144.503,178.173,144.503,180.365z"/>
						<path class="st7" d="M115.474,178.389c-1.09,0-1.977,0.887-1.977,1.977v25.053c0,1.09,0.887,1.977,1.977,1.977h25.053
							c1.09,0,1.977-0.887,1.977-1.977v-25.053c0-1.09-0.887-1.977-1.977-1.977H115.474z M141.003,180.365v25.053
							c0,0.263-0.214,0.477-0.477,0.477h-25.053c-0.263,0-0.477-0.214-0.477-0.477v-25.053c0-0.263,0.214-0.477,0.477-0.477h25.053
							C140.789,179.889,141.003,180.103,141.003,180.365z"/>
					</g>
				</g>
			</g>
			<g>
				<g>
					<g>
						<path class="st7" d="M120.867,185.147c-1.381,0-2.5,1.119-2.5,2.5s1.119,2.5,2.5,2.5H128c1.381,0,2.5-1.119,2.5-2.5
							s-1.119-2.5-2.5-2.5H120.867z M129,187.647c0,0.551-0.449,1-1,1h-7.133c-0.551,0-1-0.449-1-1s0.449-1,1-1H128
							C128.551,186.647,129,187.096,129,187.647z"/>
					</g>
				</g>
			</g>
			<g>
				<g>
					<g>
						<path class="st7" d="M120.867,195.32c-1.381,0-2.5,1.119-2.5,2.5s1.119,2.5,2.5,2.5h14.266c1.381,0,2.5-1.119,2.5-2.5
							s-1.119-2.5-2.5-2.5H120.867z M136.133,197.82c0,0.551-0.449,1-1,1h-14.266c-0.551,0-1-0.449-1-1s0.449-1,1-1h14.266
							C135.684,196.82,136.133,197.268,136.133,197.82z"/>
					</g>
				</g>
			</g>
			<g>
				<g>
					<g>
						<path class="st7" d="M188.226,210.895c3.02,0,5.477-2.457,5.477-5.477v-25.053c0-3.02-2.457-5.477-5.477-5.477h-25.053
							c-3.02,0-5.477,2.457-5.477,5.477v25.053c0,3.02,2.457,5.477,5.477,5.477H188.226z M159.196,205.418v-25.053
							c0-2.193,1.784-3.977,3.977-3.977h25.053c2.193,0,3.977,1.784,3.977,3.977v25.053c0,2.193-1.784,3.977-3.977,3.977h-25.053
							C160.98,209.395,159.196,207.611,159.196,205.418z"/>
						<path class="st7" d="M188.226,207.395c1.09,0,1.977-0.887,1.977-1.977v-25.053c0-1.09-0.887-1.977-1.977-1.977h-25.053
							c-1.09,0-1.977,0.887-1.977,1.977v25.053c0,1.09,0.887,1.977,1.977,1.977H188.226z M162.696,205.418v-25.053
							c0-0.263,0.214-0.477,0.477-0.477h25.053c0.263,0,0.477,0.214,0.477,0.477v25.053c0,0.263-0.214,0.477-0.477,0.477h-25.053
							C162.91,205.895,162.696,205.681,162.696,205.418z"/>
					</g>
				</g>
			</g>
			<g>
				<g>
					<g>
						<path class="st7" d="M175.699,190.147c1.381,0,2.5-1.119,2.5-2.5s-1.119-2.5-2.5-2.5h-7.133c-1.381,0-2.5,1.119-2.5,2.5
							s1.119,2.5,2.5,2.5H175.699z M167.566,187.647c0-0.551,0.449-1,1-1h7.133c0.551,0,1,0.449,1,1s-0.449,1-1,1h-7.133
							C168.015,188.647,167.566,188.199,167.566,187.647z"/>
					</g>
				</g>
			</g>
			<g>
				<g>
					<g>
						<path class="st7" d="M182.832,200.32c1.381,0,2.5-1.119,2.5-2.5s-1.119-2.5-2.5-2.5h-14.266c-1.381,0-2.5,1.119-2.5,2.5
							s1.119,2.5,2.5,2.5H182.832z M167.566,197.82c0-0.551,0.449-1,1-1h14.266c0.551,0,1,0.449,1,1s-0.449,1-1,1h-14.266
							C168.015,198.82,167.566,198.371,167.566,197.82z"/>
					</g>
				</g>
			</g>
			<g>
				<g>
					<g>
						<path class="st7" d="M67.774,174.889c-3.02,0-5.477,2.457-5.477,5.477v25.053c0,3.02,2.457,5.477,5.477,5.477h25.053
							c3.02,0,5.477-2.457,5.477-5.477v-25.053c0-3.02-2.457-5.477-5.477-5.477H67.774z M96.804,180.365v25.053
							c0,2.193-1.784,3.977-3.977,3.977H67.774c-2.193,0-3.977-1.784-3.977-3.977v-25.053c0-2.193,1.784-3.977,3.977-3.977h25.053
							C95.02,176.389,96.804,178.173,96.804,180.365z"/>
						<path class="st7" d="M67.774,178.389c-1.09,0-1.977,0.887-1.977,1.977v25.053c0,1.09,0.887,1.977,1.977,1.977h25.053
							c1.09,0,1.977-0.887,1.977-1.977v-25.053c0-1.09-0.887-1.977-1.977-1.977H67.774z M93.304,180.365v25.053
							c0,0.263-0.214,0.477-0.477,0.477H67.774c-0.263,0-0.477-0.214-0.477-0.477v-25.053c0-0.263,0.214-0.477,0.477-0.477h25.053
							C93.09,179.889,93.304,180.103,93.304,180.365z"/>
					</g>
				</g>
			</g>
			<g>
				<g>
					<g>
						<path class="st7" d="M73.168,185.147c-1.381,0-2.5,1.119-2.5,2.5s1.119,2.5,2.5,2.5h7.133c1.381,0,2.5-1.119,2.5-2.5
							s-1.119-2.5-2.5-2.5H73.168z M81.301,187.647c0,0.551-0.449,1-1,1h-7.133c-0.551,0-1-0.449-1-1s0.449-1,1-1h7.133
							C80.852,186.647,81.301,187.096,81.301,187.647z"/>
					</g>
				</g>
			</g>
			<g>
				<g>
					<g>
						<path class="st7" d="M73.168,195.32c-1.381,0-2.5,1.119-2.5,2.5s1.119,2.5,2.5,2.5h14.266c1.381,0,2.5-1.119,2.5-2.5
							s-1.119-2.5-2.5-2.5H73.168z M88.434,197.82c0,0.551-0.449,1-1,1H73.168c-0.551,0-1-0.449-1-1s0.449-1,1-1h14.266
							C87.985,196.82,88.434,197.268,88.434,197.82z"/>
					</g>
				</g>
			</g>
		</g>
	</g>
</g>
</svg>
