<svg xmlns="http://www.w3.org/2000/svg" viewBox="0 0 100 100"><defs><style>.cls-1{fill:#69d7f9;}.cls-2{fill:none;stroke:#3a00ba;stroke-miterlimit:10;stroke-width:2px;}</style></defs><g id="Layer_5" data-name="Layer 5"><path class="cls-1" d="M59,22.53S61.8,36,51.33,39.22s-13.26-.33-13.26-.33,1.8,5.57,11.13,5.57S66.87,30.87,59,22.53Z"/><path class="cls-1" d="M49.86,56.56s12.1.66,15.87-10.8L58.36,45S61.64,51.16,49.86,56.56Z"/><path class="cls-1" d="M64.58,63.44S58.36,76.2,47.4,76.69c0,0,9.49.17,17.18-2Z"/><path class="cls-1" d="M66.06,61.47s6-6.21,5.89-11.78A16.51,16.51,0,0,1,77.67,61Z"/></g><g id="Layer_3" data-name="Layer 3"><path class="cls-2" d="M48.28,76.77a63,63,0,0,1-29.65-7.31V61.83A16.25,16.25,0,0,1,21,53.33a16.49,16.49,0,0,1,6.3-5.93,16.31,16.31,0,0,1,7.54-1.87l26.77,0a15.59,15.59,0,0,1,2.89.24,16.27,16.27,0,0,1,11,7.53l0,.06a16.11,16.11,0,0,1,2.34,8.41"/><path class="cls-2" d="M58.76,45.5a10.53,10.53,0,0,1-21.06,0Z"/><circle class="cls-2" cx="48.2" cy="30.43" r="13.92"/><path class="cls-2" d="M64.6,74.61a63.24,63.24,0,0,1-16.32,2.16,63,63,0,0,1-29.65-7.31V61.83A16.25,16.25,0,0,1,21,53.33a16.49,16.49,0,0,1,6.3-5.93,16.31,16.31,0,0,1,7.54-1.87l26.77,0a15.59,15.59,0,0,1,2.89.24,16.27,16.27,0,0,1,11,7.53l0,.06a16.11,16.11,0,0,1,2.34,8.41"/><path class="cls-2" d="M58.76,45.5a10.53,10.53,0,0,1-21.06,0Z"/><path class="cls-2" d="M59.75,38.19a13.91,13.91,0,1,1,2.37-7.79,13.88,13.88,0,0,1-2.37,7.79"/><path class="cls-2" d="M84.83,81.29l-7.24,5.36a2.48,2.48,0,0,1-2.87,0l-7.24-5.36a7.56,7.56,0,0,1-2.74-5.7V61.29H87.57v14.3A7.56,7.56,0,0,1,84.83,81.29Z"/><path class="cls-2" d="M73.41,69.42V68.07a2.44,2.44,0,0,1,2.44-2.44h.61a2.44,2.44,0,0,1,2.44,2.44v2"/><rect class="cls-2" x="70.38" y="70.04" width="11.55" height="7.57"/></g></svg>