<?xml version="1.0" encoding="utf-8"?>
<!-- Generator: Adobe Illustrator 24.0.0, SVG Export Plug-In . SVG Version: 6.00 Build 0)  -->
<svg version="1.1" id="Layer_1" xmlns="http://www.w3.org/2000/svg" xmlns:xlink="http://www.w3.org/1999/xlink" x="0px" y="0px"
	 viewBox="0 0 256 256" style="enable-background:new 0 0 256 256;" xml:space="preserve">
<style type="text/css">
	.st0{fill:#382B73;}
	.st1{fill:#291B4A;}
	.st2{fill:#ED9ABC;}
	.st3{fill:#E54890;}
	.st4{fill:#D3D3D3;}
	.st5{fill:#EBE7F2;}
	.st6{fill:#F9B087;}
	.st7{fill:#FF8639;}
	.st8{fill:#65C1D6;}
	.st9{fill:#149CB2;}
</style>
<g>
	<g>
		<g>
			<g>
				<g>
					<circle class="st0" cx="128" cy="128" r="119.4"/>
				</g>
			</g>
		</g>
	</g>
	<g>
		<g>
			<g>
				<g>
					<path class="st1" d="M56.531,68.521h39.256c1.381,0,2.5-1.119,2.5-2.5s-1.119-2.5-2.5-2.5H56.531
						c-3.369,0-6.109,2.74-6.109,6.109v103.445c0,3.369,2.74,6.109,6.109,6.109h142.938c3.369,0,6.109-2.74,6.109-6.109V69.63
						c0-3.369-2.74-6.109-6.109-6.109h-36.286c-1.381,0-2.5,1.119-2.5,2.5s1.119,2.5,2.5,2.5h36.286
						c0.611,0,1.109,0.498,1.109,1.109v103.445c0,0.611-0.498,1.109-1.109,1.109H56.531c-0.611,0-1.109-0.498-1.109-1.109V69.63
						C55.422,69.019,55.92,68.521,56.531,68.521z"/>
				</g>
			</g>
		</g>
		<g>
			<g>
				<g>
					<path class="st1" d="M94.757,81.48c1.381,0,2.5-1.119,2.5-2.5s-1.119-2.5-2.5-2.5H66.021c-1.381,0-2.5,1.119-2.5,2.5v77.188
						c0,1.381,1.119,2.5,2.5,2.5h123.959c1.381,0,2.5-1.119,2.5-2.5V78.98c0-1.381-1.119-2.5-2.5-2.5h-26.963
						c-1.381,0-2.5,1.119-2.5,2.5s1.119,2.5,2.5,2.5h24.463v72.188H68.521V81.48H94.757z"/>
				</g>
			</g>
		</g>
		<g>
			<g>
				<g>
					<path class="st1" d="M116.279,185.327c0.084-1.378-0.965-2.563-2.344-2.646c-1.398-0.09-2.563,0.965-2.646,2.344
						c-0.322,5.281-3.793,10.082-10.585,14.663h-7.958c-4.317,0-7.829,3.512-7.829,7.829s3.512,7.829,7.829,7.829h70.508
						c4.317,0,7.829-3.512,7.829-7.829s-3.512-7.829-7.829-7.829h-7.958c-6.793-4.581-10.265-9.382-10.586-14.664
						c-0.083-1.378-1.256-2.429-2.647-2.343c-1.378,0.084-2.427,1.269-2.343,2.647c0.319,5.239,2.782,9.979,7.489,14.359h-38.418
						C113.498,195.308,115.961,190.567,116.279,185.327z M163.254,204.688c1.56,0,2.829,1.27,2.829,2.829s-1.27,2.829-2.829,2.829
						H92.746c-1.56,0-2.829-1.27-2.829-2.829s1.27-2.829,2.829-2.829H163.254z"/>
				</g>
			</g>
		</g>
		<g>
			<g>
				<g>
					<path class="st1" d="M149.145,147.355c3.02,0,5.477-2.457,5.477-5.477v-15.271h17.159c3.021,0,5.478-2.457,5.478-5.477V96.079
						c0-3.02-2.457-5.477-5.478-5.477h-25.052c-3.021,0-5.478,2.457-5.478,5.477v15.271h-17.159c-3.02,0-5.477,2.457-5.477,5.477
						v25.053c0,3.02,2.457,5.477,5.477,5.477H149.145z M146.251,96.079c0-0.263,0.214-0.477,0.478-0.477h25.052
						c0.264,0,0.478,0.214,0.478,0.477v25.053c0,0.263-0.214,0.477-0.478,0.477h-25.052c-0.264,0-0.478-0.214-0.478-0.477V96.079z
						 M123.615,141.879v-25.053c0-0.263,0.214-0.477,0.477-0.477h17.159v4.782c0,3.02,2.457,5.477,5.478,5.477h2.893v15.271
						c0,0.263-0.214,0.477-0.477,0.477h-25.053C123.829,142.355,123.615,142.142,123.615,141.879z"/>
				</g>
			</g>
		</g>
		<g>
			<g>
				<g>
					<path class="st1" d="M136.618,126.608c1.381,0,2.5-1.119,2.5-2.5s-1.119-2.5-2.5-2.5h-7.133c-1.381,0-2.5,1.119-2.5,2.5
						s1.119,2.5,2.5,2.5H136.618z"/>
				</g>
			</g>
		</g>
		<g>
			<g>
				<g>
					<path class="st1" d="M143.751,136.78c1.381,0,2.5-1.119,2.5-2.5s-1.119-2.5-2.5-2.5h-14.266c-1.381,0-2.5,1.119-2.5,2.5
						s1.119,2.5,2.5,2.5H143.751z"/>
				</g>
			</g>
		</g>
		<g>
			<g>
				<g>
					<path class="st1" d="M159.254,105.861c1.381,0,2.5-1.119,2.5-2.5s-1.119-2.5-2.5-2.5h-7.133c-1.381,0-2.5,1.119-2.5,2.5
						s1.119,2.5,2.5,2.5H159.254z"/>
				</g>
			</g>
		</g>
		<g>
			<g>
				<g>
					<path class="st1" d="M166.388,116.033c1.381,0,2.5-1.119,2.5-2.5s-1.119-2.5-2.5-2.5h-14.267c-1.381,0-2.5,1.119-2.5,2.5
						s1.119,2.5,2.5,2.5H166.388z"/>
				</g>
			</g>
		</g>
		<g>
			<g>
				<g>
					<path class="st1" d="M109.271,126.608c3.021,0,5.478-2.457,5.478-5.477V96.079c0-3.02-2.457-5.477-5.478-5.477H84.22
						c-3.021,0-5.478,2.457-5.478,5.477v25.053c0,3.02,2.457,5.477,5.478,5.477H109.271z M83.742,121.132V96.079
						c0-0.263,0.214-0.477,0.478-0.477h25.052c0.264,0,0.478,0.214,0.478,0.477v25.053c0,0.263-0.214,0.477-0.478,0.477H84.22
						C83.956,121.608,83.742,121.395,83.742,121.132z"/>
				</g>
			</g>
		</g>
		<g>
			<g>
				<g>
					<path class="st1" d="M96.746,105.861c1.381,0,2.5-1.119,2.5-2.5s-1.119-2.5-2.5-2.5h-7.134c-1.381,0-2.5,1.119-2.5,2.5
						s1.119,2.5,2.5,2.5H96.746z"/>
				</g>
			</g>
		</g>
		<g>
			<g>
				<g>
					<path class="st1" d="M103.879,116.033c1.381,0,2.5-1.119,2.5-2.5s-1.119-2.5-2.5-2.5H89.612c-1.381,0-2.5,1.119-2.5,2.5
						s1.119,2.5,2.5,2.5H103.879z"/>
				</g>
			</g>
		</g>
		<g>
			<g>
				<g>
					<path class="st1" d="M157.03,57.903c0-15.188-12.356-27.545-27.545-27.545c-15.188,0-27.544,12.356-27.544,27.545
						c0,15.188,12.356,27.544,27.544,27.544C144.674,85.447,157.03,73.091,157.03,57.903z M106.941,57.903
						c0-12.432,10.113-22.545,22.544-22.545c12.432,0,22.545,10.113,22.545,22.545c0,12.431-10.113,22.544-22.545,22.544
						C117.055,80.447,106.941,70.334,106.941,57.903z"/>
				</g>
			</g>
		</g>
		<g>
			<g>
				<g>
					<path class="st1" d="M129.485,56.244c-1.381,0-2.5,1.119-2.5,2.5v6.498c0,1.381,1.119,2.5,2.5,2.5s2.5-1.119,2.5-2.5v-4.312
						c4.349-1.115,7.573-5.068,7.573-9.76c0-5.554-4.519-10.072-10.073-10.072c-5.554,0-10.072,4.519-10.072,10.072
						c0,1.381,1.119,2.5,2.5,2.5s2.5-1.119,2.5-2.5c0-2.797,2.275-5.072,5.072-5.072c2.798,0,5.073,2.275,5.073,5.072
						C134.559,53.969,132.283,56.244,129.485,56.244z"/>
				</g>
			</g>
		</g>
		<g>
			<g>
				<g>
					<path class="st1" d="M131.985,73.136v-0.742c0-1.381-1.119-2.5-2.5-2.5s-2.5,1.119-2.5,2.5v0.742c0,1.381,1.119,2.5,2.5,2.5
						S131.985,74.517,131.985,73.136z"/>
				</g>
			</g>
		</g>
	</g>
	<g>
		<g>
			<g>
				<g>
					<g>
						<path class="st8" d="M116.279,181.327c0.084-1.378-0.965-2.563-2.344-2.646c-1.398-0.098-2.563,0.965-2.646,2.344
							c-0.331,5.438-3.99,10.367-11.188,15.07c-0.925,0.605-1.344,1.746-1.028,2.807c0.316,1.06,1.291,1.786,2.396,1.786h53.061
							c1.105,0,2.08-0.727,2.396-1.786c0.315-1.061-0.104-2.201-1.028-2.807c-7.197-4.703-10.857-9.633-11.188-15.071
							c-0.083-1.378-1.256-2.438-2.647-2.343c-1.378,0.084-2.427,1.269-2.343,2.647c0.319,5.239,2.782,9.979,7.489,14.359h-38.418
							C113.498,191.308,115.961,186.567,116.279,181.327z"/>
					</g>
				</g>
			</g>
			<g>
				<g>
					<g>
						<g>
							<g>
								<path class="st8" d="M56.531,64.521h39.256c1.381,0,2.5-1.119,2.5-2.5s-1.119-2.5-2.5-2.5H56.531
									c-3.369,0-6.109,2.74-6.109,6.109v103.445c0,3.369,2.74,6.109,6.109,6.109h142.938c3.369,0,6.109-2.74,6.109-6.109V65.63
									c0-3.369-2.74-6.109-6.109-6.109h-36.286c-1.381,0-2.5,1.119-2.5,2.5s1.119,2.5,2.5,2.5h36.286
									c0.611,0,1.109,0.498,1.109,1.109v103.445c0,0.611-0.498,1.109-1.109,1.109H56.531c-0.611,0-1.109-0.498-1.109-1.109V65.63
									C55.422,65.019,55.92,64.521,56.531,64.521z"/>
							</g>
						</g>
					</g>
					<g>
						<g>
							<g>
								<path class="st8" d="M94.757,77.48c1.381,0,2.5-1.119,2.5-2.5s-1.119-2.5-2.5-2.5H66.021c-1.381,0-2.5,1.119-2.5,2.5v77.188
									c0,1.381,1.119,2.5,2.5,2.5h123.959c1.381,0,2.5-1.119,2.5-2.5V74.98c0-1.381-1.119-2.5-2.5-2.5h-26.963
									c-1.381,0-2.5,1.119-2.5,2.5s1.119,2.5,2.5,2.5h24.463v72.188H68.521V77.48H94.757z"/>
							</g>
						</g>
					</g>
				</g>
			</g>
			<g>
				<g>
					<g>
						<path class="st8" d="M163.254,211.346c4.317,0,7.829-3.512,7.829-7.829s-3.512-7.829-7.829-7.829H92.746
							c-4.317,0-7.829,3.512-7.829,7.829s3.512,7.829,7.829,7.829H163.254z M89.917,203.517c0-1.56,1.27-2.829,2.829-2.829h70.508
							c1.56,0,2.829,1.27,2.829,2.829s-1.27,2.829-2.829,2.829H92.746C91.187,206.346,89.917,205.076,89.917,203.517z"/>
					</g>
				</g>
			</g>
		</g>
		<g>
			<g>
				<g>
					<g>
						<path class="st9" d="M56.531,64.521h39.256c1.381,0,2.5-1.119,2.5-2.5s-1.119-2.5-2.5-2.5H56.531
							c-3.369,0-6.109,2.74-6.109,6.109v103.445c0,3.369,2.74,6.109,6.109,6.109h142.938c3.369,0,6.109-2.74,6.109-6.109V65.63
							c0-3.369-2.74-6.109-6.109-6.109h-36.286c-1.381,0-2.5,1.119-2.5,2.5s1.119,2.5,2.5,2.5h36.286
							c0.611,0,1.109,0.498,1.109,1.109v103.445c0,0.611-0.498,1.109-1.109,1.109H56.531c-0.611,0-1.109-0.498-1.109-1.109V65.63
							C55.422,65.019,55.92,64.521,56.531,64.521z M56.531,171.685h142.938c1.439,0,2.609-1.171,2.609-2.609V65.63
							c0-1.439-1.171-2.609-2.609-2.609h-36.286c-0.551,0-1-0.448-1-1s0.449-1,1-1h36.286c2.542,0,4.609,2.068,4.609,4.609v103.445
							c0,2.542-2.068,4.609-4.609,4.609H56.531c-2.542,0-4.609-2.068-4.609-4.609V65.63c0-2.542,2.068-4.609,4.609-4.609h39.256
							c0.551,0,1,0.448,1,1s-0.449,1-1,1H56.531c-1.439,0-2.609,1.171-2.609,2.609v103.445
							C53.922,170.514,55.092,171.685,56.531,171.685z"/>
					</g>
				</g>
			</g>
			<g>
				<g>
					<g>
						<path class="st9" d="M94.757,77.48c1.381,0,2.5-1.119,2.5-2.5s-1.119-2.5-2.5-2.5H66.021c-1.381,0-2.5,1.119-2.5,2.5v77.188
							c0,1.381,1.119,2.5,2.5,2.5h123.959c1.381,0,2.5-1.119,2.5-2.5V74.98c0-1.381-1.119-2.5-2.5-2.5h-26.963
							c-1.381,0-2.5,1.119-2.5,2.5s1.119,2.5,2.5,2.5h24.463v72.188H68.521V77.48H94.757z M68.521,151.169h118.959
							c0.828,0,1.5-0.672,1.5-1.5V77.48c0-0.828-0.672-1.5-1.5-1.5h-24.463c-0.551,0-1-0.448-1-1s0.449-1,1-1h26.963
							c0.551,0,1,0.448,1,1v77.188c0,0.552-0.449,1-1,1H66.021c-0.551,0-1-0.448-1-1V74.98c0-0.552,0.449-1,1-1h28.736
							c0.551,0,1,0.448,1,1s-0.449,1-1,1H68.521c-0.828,0-1.5,0.672-1.5,1.5v72.188C67.021,150.497,67.692,151.169,68.521,151.169z"
							/>
					</g>
				</g>
			</g>
			<g>
				<g>
					<g>
						<path class="st9" d="M88.417,203.517c0,2.387,1.942,4.329,4.329,4.329h70.508c2.387,0,4.329-1.942,4.329-4.329
							s-1.942-4.329-4.329-4.329H92.746C90.359,199.188,88.417,201.13,88.417,203.517z M166.083,203.517
							c0,1.56-1.27,2.829-2.829,2.829H92.746c-1.56,0-2.829-1.27-2.829-2.829s1.27-2.829,2.829-2.829h70.508
							C164.813,200.688,166.083,201.957,166.083,203.517z"/>
						<path class="st9" d="M116.279,181.327c0.084-1.378-0.965-2.563-2.344-2.646c-0.06-0.004-0.119-0.006-0.178-0.006
							c-1.318,0-2.389,1.03-2.469,2.35c-0.322,5.281-3.793,10.082-10.585,14.663h-7.958c-4.317,0-7.829,3.512-7.829,7.829
							s3.512,7.829,7.829,7.829h70.508c4.317,0,7.829-3.512,7.829-7.829s-3.512-7.829-7.829-7.829h-7.958
							c-6.793-4.581-10.265-9.382-10.586-14.664c-0.08-1.321-1.16-2.349-2.475-2.349c-0.057,0-0.115,0.002-0.173,0.006
							c-1.378,0.084-2.427,1.269-2.343,2.647c0.319,5.239,2.782,9.979,7.489,14.359h-38.418
							C113.498,191.308,115.961,186.567,116.279,181.327z M107.769,194.589c-0.451,0.42-0.6,1.073-0.374,1.647
							c0.226,0.574,0.779,0.951,1.396,0.951h38.418c0.617,0,1.17-0.377,1.396-0.951c0.226-0.574,0.077-1.227-0.374-1.647
							c-4.423-4.115-6.717-8.483-7.014-13.352c-0.033-0.551,0.387-1.026,0.947-1.06l0.071-0.002c0.516,0,0.946,0.412,0.978,0.94
							c0.352,5.777,4.03,10.951,11.245,15.817c0.248,0.167,0.54,0.256,0.839,0.256h7.958c3.49,0,6.329,2.839,6.329,6.329
							s-2.839,6.329-6.329,6.329H92.746c-3.49,0-6.329-2.839-6.329-6.329s2.839-6.329,6.329-6.329h7.958
							c0.299,0,0.591-0.089,0.839-0.256c7.214-4.865,10.892-10.039,11.244-15.817c0.032-0.536,0.45-0.94,0.971-0.94c0,0,0,0,0,0
							c0.024,0,0.049,0.001,0.088,0.003c0.266,0.016,0.511,0.135,0.688,0.335c0.177,0.2,0.265,0.457,0.249,0.723
							C114.486,186.106,112.192,190.474,107.769,194.589z"/>
					</g>
				</g>
			</g>
		</g>
		<g>
			<g>
				<g>
					<g>
						<g>
							<g>
								<path class="st6" d="M124.092,112.35h18.742c1.381,0,2.5-1.119,2.5-2.5s-1.119-2.5-2.5-2.5h-18.742
									c-3.02,0-5.477,2.457-5.477,5.477v25.053c0,3.02,2.457,5.477,5.477,5.477h25.053c3.02,0,5.477-2.457,5.477-5.477v-17.187
									c0-1.381-1.119-2.5-2.5-2.5s-2.5,1.119-2.5,2.5v17.187c0,0.263-0.214,0.477-0.477,0.477h-25.053
									c-0.263,0-0.477-0.214-0.477-0.477v-25.053C123.615,112.563,123.829,112.35,124.092,112.35z"/>
							</g>
						</g>
					</g>
					<g>
						<g>
							<g>
								<path class="st6" d="M136.618,122.608c1.381,0,2.5-1.119,2.5-2.5s-1.119-2.5-2.5-2.5h-7.133c-1.381,0-2.5,1.119-2.5,2.5
									s1.119,2.5,2.5,2.5H136.618z"/>
							</g>
						</g>
					</g>
					<g>
						<g>
							<g>
								<path class="st6" d="M143.751,132.78c1.381,0,2.5-1.119,2.5-2.5s-1.119-2.5-2.5-2.5h-14.266c-1.381,0-2.5,1.119-2.5,2.5
									s1.119,2.5,2.5,2.5H143.751z"/>
							</g>
						</g>
					</g>
				</g>
			</g>
			<g>
				<g>
					<g>
						<g>
							<g>
								<path class="st6" d="M171.78,122.608c3.021,0,5.478-2.457,5.478-5.477V92.079c0-3.02-2.457-5.477-5.478-5.477h-25.052
									c-3.021,0-5.478,2.457-5.478,5.477v25.053c0,3.02,2.457,5.477,5.478,5.477H171.78z M146.251,117.132V92.079
									c0-0.263,0.214-0.477,0.478-0.477h25.052c0.264,0,0.478,0.214,0.478,0.477v25.053c0,0.263-0.214,0.477-0.478,0.477h-25.052
									C146.465,117.608,146.251,117.395,146.251,117.132z"/>
							</g>
						</g>
					</g>
					<g>
						<g>
							<g>
								<path class="st6" d="M159.254,101.861c1.381,0,2.5-1.119,2.5-2.5s-1.119-2.5-2.5-2.5h-7.133c-1.381,0-2.5,1.119-2.5,2.5
									s1.119,2.5,2.5,2.5H159.254z"/>
							</g>
						</g>
					</g>
					<g>
						<g>
							<g>
								<path class="st6" d="M166.388,112.033c1.381,0,2.5-1.119,2.5-2.5s-1.119-2.5-2.5-2.5h-14.267c-1.381,0-2.5,1.119-2.5,2.5
									s1.119,2.5,2.5,2.5H166.388z"/>
							</g>
						</g>
					</g>
				</g>
			</g>
			<g>
				<g>
					<g>
						<g>
							<g>
								<path class="st6" d="M109.271,122.608c3.021,0,5.478-2.457,5.478-5.477V92.079c0-3.02-2.457-5.477-5.478-5.477H84.22
									c-3.021,0-5.478,2.457-5.478,5.477v25.053c0,3.02,2.457,5.477,5.478,5.477H109.271z M83.742,117.132V92.079
									c0-0.263,0.214-0.477,0.478-0.477h25.052c0.264,0,0.478,0.214,0.478,0.477v25.053c0,0.263-0.214,0.477-0.478,0.477H84.22
									C83.956,117.608,83.742,117.395,83.742,117.132z"/>
							</g>
						</g>
					</g>
					<g>
						<g>
							<g>
								<path class="st6" d="M96.746,101.861c1.381,0,2.5-1.119,2.5-2.5s-1.119-2.5-2.5-2.5h-7.134c-1.381,0-2.5,1.119-2.5,2.5
									s1.119,2.5,2.5,2.5H96.746z"/>
							</g>
						</g>
					</g>
					<g>
						<g>
							<g>
								<path class="st6" d="M103.879,112.033c1.381,0,2.5-1.119,2.5-2.5s-1.119-2.5-2.5-2.5H89.612c-1.381,0-2.5,1.119-2.5,2.5
									s1.119,2.5,2.5,2.5H103.879z"/>
							</g>
						</g>
					</g>
				</g>
			</g>
		</g>
		<g>
			<g>
				<g>
					<g>
						<path class="st7" d="M136.618,122.608c1.381,0,2.5-1.119,2.5-2.5s-1.119-2.5-2.5-2.5h-7.133c-1.381,0-2.5,1.119-2.5,2.5
							s1.119,2.5,2.5,2.5H136.618z M128.485,120.108c0-0.552,0.449-1,1-1h7.133c0.551,0,1,0.448,1,1s-0.449,1-1,1h-7.133
							C128.934,121.108,128.485,120.66,128.485,120.108z"/>
					</g>
				</g>
			</g>
			<g>
				<g>
					<g>
						<path class="st7" d="M143.751,132.78c1.381,0,2.5-1.119,2.5-2.5s-1.119-2.5-2.5-2.5h-14.266c-1.381,0-2.5,1.119-2.5,2.5
							s1.119,2.5,2.5,2.5H143.751z M128.485,130.28c0-0.552,0.449-1,1-1h14.266c0.551,0,1,0.448,1,1s-0.449,1-1,1h-14.266
							C128.934,131.28,128.485,130.832,128.485,130.28z"/>
					</g>
				</g>
			</g>
			<g>
				<g>
					<g>
						<path class="st7" d="M149.145,143.355c3.02,0,5.477-2.457,5.477-5.477v-15.271h17.159c3.021,0,5.478-2.457,5.478-5.477V92.079
							c0-3.02-2.457-5.477-5.478-5.477h-25.052c-3.021,0-5.478,2.457-5.478,5.477v15.271h-17.159c-3.02,0-5.477,2.457-5.477,5.477
							v25.053c0,3.02,2.457,5.477,5.477,5.477H149.145z M120.115,137.879v-25.053c0-2.193,1.784-3.977,3.977-3.977h17.159
							c0.828,0,1.5-0.672,1.5-1.5V92.079c0-2.193,1.784-3.977,3.978-3.977h25.052c2.193,0,3.978,1.784,3.978,3.977v25.053
							c0,2.193-1.784,3.977-3.978,3.977h-17.159c-0.828,0-1.5,0.672-1.5,1.5v15.271c0,2.193-1.784,3.977-3.977,3.977h-25.053
							C121.899,141.855,120.115,140.072,120.115,137.879z"/>
						<path class="st7" d="M149.145,139.855c1.09,0,1.977-0.887,1.977-1.977v-15.271c0-0.828-0.672-1.5-1.5-1.5h-2.893
							c-2.193,0-3.978-1.784-3.978-3.977v-4.782c0-0.828-0.672-1.5-1.5-1.5h-17.159c-1.09,0-1.977,0.887-1.977,1.977v25.053
							c0,1.09,0.887,1.977,1.977,1.977H149.145z M123.615,137.879v-25.053c0-0.263,0.214-0.477,0.477-0.477h17.159v4.782
							c0,3.02,2.457,5.477,5.478,5.477h2.893v15.271c0,0.263-0.214,0.477-0.477,0.477h-25.053
							C123.829,138.355,123.615,138.142,123.615,137.879z"/>
						<path class="st7" d="M146.729,119.108h25.052c1.09,0,1.978-0.887,1.978-1.977V92.079c0-1.09-0.887-1.977-1.978-1.977h-25.052
							c-1.09,0-1.978,0.887-1.978,1.977v25.053C144.751,118.222,145.638,119.108,146.729,119.108z M146.251,92.079
							c0-0.263,0.214-0.477,0.478-0.477h25.052c0.264,0,0.478,0.214,0.478,0.477v25.053c0,0.263-0.214,0.477-0.478,0.477h-25.052
							c-0.264,0-0.478-0.214-0.478-0.477V92.079z"/>
					</g>
				</g>
			</g>
			<g>
				<g>
					<g>
						<path class="st7" d="M159.254,101.861c1.381,0,2.5-1.119,2.5-2.5s-1.119-2.5-2.5-2.5h-7.133c-1.381,0-2.5,1.119-2.5,2.5
							s1.119,2.5,2.5,2.5H159.254z M151.121,99.361c0-0.552,0.449-1,1-1h7.133c0.551,0,1,0.448,1,1s-0.449,1-1,1h-7.133
							C151.57,100.361,151.121,99.913,151.121,99.361z"/>
					</g>
				</g>
			</g>
			<g>
				<g>
					<g>
						<path class="st7" d="M166.388,112.033c1.381,0,2.5-1.119,2.5-2.5s-1.119-2.5-2.5-2.5h-14.267c-1.381,0-2.5,1.119-2.5,2.5
							s1.119,2.5,2.5,2.5H166.388z M151.121,109.533c0-0.552,0.449-1,1-1h14.267c0.551,0,1,0.448,1,1s-0.449,1-1,1h-14.267
							C151.57,110.533,151.121,110.085,151.121,109.533z"/>
					</g>
				</g>
			</g>
			<g>
				<g>
					<g>
						<path class="st7" d="M109.271,122.608c3.021,0,5.478-2.457,5.478-5.477V92.079c0-3.02-2.457-5.477-5.478-5.477H84.22
							c-3.021,0-5.478,2.457-5.478,5.477v25.053c0,3.02,2.457,5.477,5.478,5.477H109.271z M80.242,117.132V92.079
							c0-2.193,1.784-3.977,3.978-3.977h25.052c2.193,0,3.978,1.784,3.978,3.977v25.053c0,2.193-1.784,3.977-3.978,3.977H84.22
							C82.026,121.108,80.242,119.324,80.242,117.132z"/>
						<path class="st7" d="M109.271,119.108c1.09,0,1.978-0.887,1.978-1.977V92.079c0-1.09-0.887-1.977-1.978-1.977H84.22
							c-1.09,0-1.978,0.887-1.978,1.977v25.053c0,1.09,0.887,1.977,1.978,1.977H109.271z M83.742,117.132V92.079
							c0-0.263,0.214-0.477,0.478-0.477h25.052c0.264,0,0.478,0.214,0.478,0.477v25.053c0,0.263-0.214,0.477-0.478,0.477H84.22
							C83.956,117.608,83.742,117.395,83.742,117.132z"/>
					</g>
				</g>
			</g>
			<g>
				<g>
					<g>
						<path class="st7" d="M96.746,101.861c1.381,0,2.5-1.119,2.5-2.5s-1.119-2.5-2.5-2.5h-7.134c-1.381,0-2.5,1.119-2.5,2.5
							s1.119,2.5,2.5,2.5H96.746z M88.612,99.361c0-0.552,0.449-1,1-1h7.134c0.551,0,1,0.448,1,1s-0.449,1-1,1h-7.134
							C89.061,100.361,88.612,99.913,88.612,99.361z"/>
					</g>
				</g>
			</g>
			<g>
				<g>
					<g>
						<path class="st7" d="M103.879,112.033c1.381,0,2.5-1.119,2.5-2.5s-1.119-2.5-2.5-2.5H89.612c-1.381,0-2.5,1.119-2.5,2.5
							s1.119,2.5,2.5,2.5H103.879z M88.612,109.533c0-0.552,0.449-1,1-1h14.267c0.551,0,1,0.448,1,1s-0.449,1-1,1H89.612
							C89.061,110.533,88.612,110.085,88.612,109.533z"/>
					</g>
				</g>
			</g>
		</g>
		<g>
			<g>
				<g>
					<path class="st4" d="M157.03,53.903c0-15.188-12.356-27.545-27.545-27.545c-15.188,0-27.544,12.356-27.544,27.545
						c0,15.188,12.356,27.544,27.544,27.544C144.674,81.447,157.03,69.091,157.03,53.903z M106.941,53.903
						c0-12.432,10.113-22.545,22.544-22.545c12.432,0,22.545,10.113,22.545,22.545c0,12.431-10.113,22.544-22.545,22.544
						C117.055,76.447,106.941,66.334,106.941,53.903z"/>
				</g>
			</g>
		</g>
		<g>
			<g>
				<g>
					<g>
						<path class="st5" d="M157.03,53.903c0-15.188-12.356-27.545-27.545-27.545c-15.188,0-27.544,12.356-27.544,27.545
							c0,15.188,12.356,27.544,27.544,27.544C144.674,81.447,157.03,69.091,157.03,53.903z M103.441,53.903
							c0-14.361,11.683-26.045,26.044-26.045c14.361,0,26.045,11.684,26.045,26.045c0,14.361-11.684,26.044-26.045,26.044
							C115.125,79.947,103.441,68.264,103.441,53.903z"/>
						<path class="st5" d="M153.53,53.903c0-13.258-10.786-24.045-24.045-24.045c-13.258,0-24.044,10.787-24.044,24.045
							c0,13.258,10.786,24.044,24.044,24.044C142.744,77.947,153.53,67.161,153.53,53.903z M106.941,53.903
							c0-12.432,10.113-22.545,22.544-22.545c12.432,0,22.545,10.113,22.545,22.545c0,12.431-10.113,22.544-22.545,22.544
							C117.055,76.447,106.941,66.334,106.941,53.903z"/>
					</g>
				</g>
			</g>
		</g>
		<g>
			<g>
				<g>
					<g>
						<path class="st8" d="M129.485,52.244c-1.381,0-2.5,1.119-2.5,2.5v6.498c0,1.381,1.119,2.5,2.5,2.5s2.5-1.119,2.5-2.5v-4.312
							c4.349-1.115,7.573-5.068,7.573-9.76c0-5.554-4.519-10.072-10.073-10.072c-5.554,0-10.072,4.519-10.072,10.072
							c0,1.381,1.119,2.5,2.5,2.5s2.5-1.119,2.5-2.5c0-2.797,2.275-5.072,5.072-5.072c2.798,0,5.073,2.275,5.073,5.072
							C134.559,49.969,132.283,52.244,129.485,52.244z"/>
					</g>
				</g>
			</g>
			<g>
				<g>
					<g>
						<path class="st8" d="M131.985,69.136v-0.742c0-1.381-1.119-2.5-2.5-2.5s-2.5,1.119-2.5,2.5v0.742c0,1.381,1.119,2.5,2.5,2.5
							S131.985,70.517,131.985,69.136z"/>
					</g>
				</g>
			</g>
		</g>
		<g>
			<g>
				<g>
					<g>
						<path class="st9" d="M129.485,52.244c-1.381,0-2.5,1.119-2.5,2.5v6.498c0,1.381,1.119,2.5,2.5,2.5s2.5-1.119,2.5-2.5v-4.312
							c4.349-1.115,7.573-5.068,7.573-9.76c0-5.554-4.519-10.072-10.073-10.072c-5.554,0-10.072,4.519-10.072,10.072
							c0,1.381,1.119,2.5,2.5,2.5s2.5-1.119,2.5-2.5c0-2.797,2.275-5.072,5.072-5.072c2.798,0,5.073,2.275,5.073,5.072
							C134.559,49.969,132.283,52.244,129.485,52.244z M136.059,47.171c0-3.624-2.949-6.572-6.573-6.572
							c-3.624,0-6.572,2.948-6.572,6.572c0,0.552-0.449,1-1,1s-1-0.448-1-1c0-4.727,3.845-8.572,8.572-8.572
							c4.727,0,8.573,3.845,8.573,8.572c0,3.917-2.651,7.333-6.446,8.307c-0.663,0.17-1.127,0.768-1.127,1.453v4.312
							c0,0.552-0.449,1-1,1s-1-0.448-1-1v-6.498c0-0.552,0.449-1,1-1C133.11,53.744,136.059,50.795,136.059,47.171z"/>
					</g>
				</g>
			</g>
			<g>
				<g>
					<g>
						<path class="st9" d="M131.985,69.136v-0.742c0-1.381-1.119-2.5-2.5-2.5s-2.5,1.119-2.5,2.5v0.742c0,1.381,1.119,2.5,2.5,2.5
							S131.985,70.517,131.985,69.136z M128.485,69.136v-0.742c0-0.552,0.449-1,1-1s1,0.448,1,1v0.742c0,0.552-0.449,1-1,1
							S128.485,69.687,128.485,69.136z"/>
					</g>
				</g>
			</g>
		</g>
	</g>
</g>
</svg>
