<svg transform="scale(1)" version="1.1" id="Layer_1" xmlns="http://www.w3.org/2000/svg" xmlns:xlink="http://www.w3.org/1999/xlink" x="0px" y="0px" viewBox="0 0 500 500" xml:space="preserve" class="show_show__wrapper__graphic__5Waiy "><title>React</title><style type="text/css">
	.st0{fill:#F2EBEB;}
	.st1{fill:#3299F5;}
	.st2{fill:#EA8383;}
	.st3{fill:#000001;}
	.st4{fill:#A04040;}
</style><g id="arrow"><path class="st0" d="M277.9,438.7l-20.6-2.5l-86.6-110.5c0,0-22.1,29.8-30.9,31.5s-25-11.2-25-11.2l65.6-103.3l58.6-16.5
		c0,0,11.5,15.3,10.2,20.2s-33.1,32-33.1,32L325,367.1c0,0,6.6,9.7,6.7,16.7S286.1,442.7,277.9,438.7z"></path><path class="st1" d="M149.5,315.7c0,0-29.7,33.6-35.5,29.7s-31-129-22.4-135.6s145.6,5.5,146.7,15.8s-33.9,34.5-33.9,34.5
		S321,353.4,324.1,366.5s-54,72.5-67.7,69.1S149.5,315.7,149.5,315.7z"></path></g><g id="character"><path class="st2" d="M302.9,90.9c0,0,3.7,37.7,20.4,61.4l11.9-9.1c-10-16-17.9-33.3-23.4-51.3L302.9,90.9z"></path><path class="st2" d="M302.1,70.4c0,0-1.1-7.6,0.4-8.9c1-0.9,1.7,3.2,2.7,7.7c0.8,3.4,6.6,22.6,6.6,22.6l-8.4,4
		c0,0-7.8-13.3-7.4-15.4c0,0-2,1.3-2.4,0.7s1.5-6.4,2-7.2c0.6-0.8,1.5-1.2,2.5-1.3C298.7,71,300.4,70.1,302.1,70.4z"></path><path class="st3" d="M305.9,75.1l-3.7-0.2c-1.2-0.1-2.4-0.1-3.6,0.1c-0.1,0-0.2,0.1-0.2,0.1s0,0,0-0.1s0-0.1,0,0
		c0.1,0.2,0.3,0.4,0.4,0.5c0.4,0.4,0.9,0.8,1.4,1.1c1,0.7,2,1.4,3,2l1,0.7l-1.2,0.1c-0.4,0.1-0.8,0.2-1.2,0.4
		c-0.4,0.2-0.7,0.5-1,0.9c-0.3,0.4-0.5,0.8-0.6,1.2c-0.1,0.5-0.2,0.9-0.3,1.4l-0.1-0.7c0-0.2,0-0.5,0-0.7c0.1-0.5,0.2-1,0.4-1.4
		c0.2-0.5,0.6-0.9,1-1.2c0.4-0.3,0.9-0.5,1.5-0.6l-0.2,0.8c-1.1-0.6-2.2-1.3-3.2-2c-0.5-0.4-1-0.8-1.5-1.2c-0.3-0.3-0.5-0.6-0.6-1
		c0-0.2,0-0.3,0-0.5c0-0.2,0.2-0.3,0.3-0.4c0.2-0.1,0.4-0.2,0.6-0.3c1.3-0.1,2.6-0.1,3.9,0.2C303.5,74.4,304.7,74.7,305.9,75.1z"></path><path class="st3" d="M298.1,72.6c-0.2,1-0.4,1.9-0.6,2.8c-0.2,0.9-0.3,1.8-0.4,2.7c0,0.4,0,0.8,0.1,1.2c0,0.1,0.1,0.1,0.1,0.2
		l0.2,0.2c0.1,0.1,0.3,0.2,0.4,0.2c0.4,0,0.8-0.1,1.1-0.4c0.4-0.3,0.8-0.5,1.1-0.9c-0.2,0.5-0.5,0.9-0.8,1.2
		c-0.4,0.4-0.9,0.7-1.5,0.8c-0.3,0-0.7-0.1-0.9-0.3c-0.1-0.1-0.2-0.2-0.3-0.3c-0.1-0.1-0.2-0.3-0.3-0.4c-0.2-0.5-0.3-1.1-0.3-1.6
		c0.1-1,0.3-2,0.6-2.9C297.1,74.3,297.5,73.4,298.1,72.6z"></path><path class="st3" d="M302.1,70.4c0.5,0.4,0.8,1,1,1.6c0.1,0.3,0.1,0.6,0.1,0.9c0,0.4-0.1,0.7-0.3,1c-0.2-0.3-0.3-0.5-0.4-0.8
		c-0.1-0.3-0.2-0.5-0.3-0.8C301.9,71.7,301.9,71,302.1,70.4z"></path><path class="st3" d="M361.2,227.6c0,0,24.3,149.9,21.4,152.4s-11.2,3.2-17,0.8s-35.3-98.2-41.1-135.4c0,0-38.5-24.9-47.9-25.4
		l0.8,46.9c0,0-9.9,1.4-13.6-0.1s-20.8-63.9-3.8-79s73.4,31.6,73.4,31.6L361.2,227.6z"></path><path class="st2" d="M282,287.7c0,0-10,19.2-13.9,21.9s0.5-12.3,2.5-16.9s-6.7-25.9-6.7-25.9l13.6,0.1L282,287.7z"></path><path class="st2" d="M382.6,380c0,0-0.9,15.6,0.7,18.3s2.3,5,0.6,7s-6.5,26.7-10.2,24.8S372.9,407,371,402s-5.4-21.3-5.4-21.3
		L382.6,380z"></path><path class="st3" d="M324.5,224.4c0.4,3.5,0.7,7,1.1,10.5s0.8,7,1.2,10.4c0.8,7,1.7,13.9,2.8,20.8s2.3,13.8,3.8,20.6
		c0.2,0.9,0.4,1.7,0.6,2.6l0.7,2.5c0.4,1.7,0.8,3.4,1.4,5.1s1,3.4,1.5,5s1.2,3.3,1.8,4.9c-3.2-6.3-5.7-12.9-7.5-19.7
		c-1.8-6.8-3.3-13.7-4.3-20.7c-1.1-7-1.9-14-2.4-21C324.7,238.4,324.4,231.4,324.5,224.4z"></path><path class="st3" d="M333.9,169.8l-0.8-0.9c-3.1-3.7-11.5-15.5-11.1-17.1c0.5-1.9,14.1-9.2,14.1-9.2l9.6,12.1L333.9,169.8z"></path><path class="st1" d="M365.2,228.6c0,0-48.7-12.1-43.2-15.2c3.5-1.9,11.8-25.6,11.8-25.6s-11.4-9.2-6.3-15.3
		c4.4-5.4,9.2-10.4,14.3-15.1c11.7-10.6,22.8,0,22.8,13C364.7,205.6,365.2,228.6,365.2,228.6z"></path><path class="st3" d="M389.2,259.4c0,0,6.3,5.1,10,8.8s5,5.4,4.8,4.2s-2.6-5.9-2.6-5.9c1.2,1.5,2.5,3,4,4.2c2,1.4,3.2,0.9-0.8-4.6
		s-13.5-12-13.5-12L389.2,259.4z"></path><path class="st2" d="M393.5,247.1c2.2,4.1,4.8,7.9,7.8,11.4c4.1,4.4,10,11.1,8.6,12.3s-13.5-10.6-16.7-11.8s-3,0-2.7,1.2
		s3.7,11.1,1.4,10.4s-7.6-17.2-7.9-20.4S393.5,247.1,393.5,247.1z"></path><path class="st2" d="M393.5,247.1c0,0-20.5-57.9-22.5-62.7c0,0-14.7,2.8-14.7,7s27.8,58.8,27.8,58.8S394.1,248.7,393.5,247.1z"></path><path class="st3" d="M382.9,397.1c0,0,5.4,4.7,4.6,6.8s-10.5,29.6-13.3,29.5s-2.5-14.9-2.5-14.9S379.1,413.2,382.9,397.1z"></path><path class="st3" d="M283.9,289.5c0.6-1.4-3-6.9-3-6.9c-7.3,16.9-12.9,17.7-12.9,17.7s-2.7,4.6-4.2,4.6s-5.7-2.3-5.7-0.7
		s7.9,9.6,11.5,8.2S283.9,289.5,283.9,289.5z"></path><path class="st4" d="M360.5,113.3c0,0,7,2.5,10.7,5.6s4.9,7,3.4,11.7c-1.6,5-2.8,7.9-7.4,10s-9.2,2.6-13.3-3.1s0.7-17.2-2.4-19.9
		s-1.8-8.1,0.9-8.4S355.4,108.7,360.5,113.3z"></path><path class="st2" d="M339.8,161.2c-1.3-0.2,3.8-2.5,8-7.2c3.1-3.4,2.7-10.9,0-12.5s-7.5-11.6-7.5-11.6s-5.5-2.3-5.3-3.4
		s7.1-4.3,10.5-6.4c2.9-1.6,6.1-3,9.3-4c-0.5,0.4-1.8,5-0.5,9.4c0.8,2.7,4.3,5.8,4.3,5.8s1.1-6.3,4.4-2.5c3.3,3.8-4.1,6.6-3.9,7.7
		c0.4,2.3-3,16.5-3,19.4C356.2,156.2,344.5,161.8,339.8,161.2z"></path><path class="st0" d="M353.3,126.6c0,0-4.4-4-7.7-1.1C345.6,125.5,350.3,129.6,353.3,126.6z"></path><path class="st3" d="M353.6,126.7c-1.3-0.7-2.6-1.2-4-1.6c-0.6-0.2-1.3-0.3-2-0.2c-0.7,0.1-1.4,0.3-2,0.6c0.4-0.7,1.1-1.2,1.9-1.4
		c0.8-0.2,1.6-0.2,2.4,0c0.7,0.2,1.5,0.6,2.1,1C352.5,125.5,353.1,126.1,353.6,126.7z"></path><path class="st3" d="M352.5,128.7c-0.1-0.1-0.3-0.1-0.4-0.1c-0.1,0-0.1-0.1-0.2-0.1c0-0.1-0.1-0.3,0.1-0.7c0.4-0.2,0.6,0,0.8,0.2
		c0.1,0.1,0.1,0.3,0,0.4C352.8,128.5,352.7,128.6,352.5,128.7z"></path><path class="st3" d="M350.9,128.8c-0.4-0.2-0.5-0.3-0.6-0.4s0-0.2,0.2-0.7c0.2-0.1,0.4-0.1,0.5,0c0.1,0.1,0.2,0.2,0.3,0.3
		C351.4,128.3,351.3,128.7,350.9,128.8z"></path><path class="st4" d="M348.6,133.9c-0.3-0.7-1.1-1-1.8-0.8c-1.2,0.4,0.1,3.4,1.9,3.3S348.6,133.9,348.6,133.9z"></path><path class="st3" d="M349.1,132.4c0.3,1-0.1,2.1-1,2.7c-0.4,0.3-0.9,0.4-1.4,0.4c-0.5,0-1-0.1-1.4-0.3c0.2-0.1,0.4-0.2,0.7-0.2
		c0.2-0.1,0.4-0.1,0.6-0.2C347.7,134.3,348.6,133.5,349.1,132.4L349.1,132.4z"></path><path class="st4" d="M354.1,124.6c-0.4-0.2-0.9-0.4-1.3-0.6c-0.3-0.2-0.6-0.4-0.9-0.6s-0.5-0.4-0.8-0.6s-0.6-0.5-1.1-0.9
		c0.8-0.8,2.1-0.9,3-0.2c0.4,0.3,0.8,0.7,1,1.2C354.3,123.5,354.3,124.1,354.1,124.6z"></path><path class="st1" d="M370.4,138.9c0.5,0.6,0.9,1.3,1.2,2.1c0.2,0.4,0.2,0.9,0.2,1.3c0,0.6-0.3,1.2-0.9,1.5
		c-0.3,0.1-0.6,0.2-0.9,0.3c-0.3,0-0.5,0-0.8,0l-1.1-0.1c-0.3,0-0.7-0.1-1-0.1c-0.2,0-0.4,0-0.6,0.1l0,0c0,0.1-0.1,0.2-0.1,0.2
		c-0.1,0.3-0.1,0.7-0.1,1c0,0.1,0,0.3-0.1,0.4c-0.1,0.2-0.1,0.4-0.2,0.6c-0.1,0.2-0.4,0.4-0.6,0.5c-0.1,0.1-0.2,0.1-0.4,0.1h-0.3
		c-0.5,0-1-0.2-1.4-0.4c-0.2-0.1-0.5-0.2-0.7-0.3c0.1,0,0.1-0.2,0-0.1c-0.1,0.1-0.1,0.3-0.1,0.4c-0.2,0.7-0.3,1.5-0.3,2.3
		c-0.4-0.7-0.6-1.5-0.7-2.3c0-0.2,0-0.5,0-0.7c0-0.4,0.3-0.8,0.7-0.9c0.3-0.1,0.6-0.1,0.9-0.1c0.2,0,0.4,0.1,0.6,0.1
		c0.3,0.1,0.6,0.1,0.8,0.1l0,0c0,0-0.1,0-0.1,0c0,0-0.1,0.1-0.2,0.1s0,0,0,0c0,0,0-0.1,0-0.1c0-0.4,0-0.9,0.1-1.3
		c0.1-0.3,0.2-0.6,0.3-0.8c0.2-0.3,0.4-0.6,0.8-0.8c0.5-0.3,1.1-0.4,1.6-0.3c0.4,0,0.9,0.1,1.3,0.2l1.1,0.3c0.2,0.1,0.4,0.1,0.6,0.1
		c0.1,0,0.2,0,0.3-0.3c0.1-0.3,0.1-0.7,0.1-1C370.7,140.4,370.6,139.6,370.4,138.9z"></path><path class="st4" d="M368.7,147.6c0,0,28.2,11.1,25.9,23.2s-22.5-3.6-27.8-21.9C366.7,148.9,367.2,147,368.7,147.6z"></path><path class="st1" d="M362.7,161.2l8.3,23.1l-14.7,7C356.3,191.4,357,161.8,362.7,161.2z"></path><path class="st3" d="M351.8,179.5c1.3,2.2,2.4,4.4,3.5,6.7c1.1,2.3,2,4.6,3,6.9s1.8,4.7,2.6,7.1c0.8,2.4,1.5,4.8,2,7.3
		c-1.3-2.2-2.5-4.4-3.5-6.7c-1.1-2.3-2-4.6-3-6.9s-1.8-4.7-2.6-7.1C353,184.4,352.4,181.9,351.8,179.5z"></path><path class="st3" d="M350.5,124.9c0,0-0.1,1.2-1.8,1.8s-2.7-1.6-2.7-1.6S348.9,123.1,350.5,124.9z"></path><path class="st1" d="M387.6,294.1c2.2,3,4.3,6.1,6.3,9.2s3.9,6.3,5.8,9.5s3.7,6.4,5.5,9.7s3.5,6.6,5,10c-2.2-3-4.3-6.1-6.3-9.2
		s-3.9-6.3-5.8-9.5s-3.7-6.4-5.5-9.7S389.1,297.5,387.6,294.1z"></path><path class="st1" d="M394.7,338.3c1.4,1.5,2.7,3.2,3.8,4.9c1.2,1.7,2.3,3.4,3.4,5.2s2,3.6,3,5.4c1,1.8,1.8,3.7,2.5,5.7
		c-1.4-1.6-2.7-3.2-3.8-4.9c-1.2-1.7-2.3-3.4-3.4-5.2s-2-3.6-3-5.4C396.2,342.1,395.4,340.2,394.7,338.3z"></path><path class="st1" d="M301.9,175c-1.9-2.4-3.5-4.9-5.2-7.4s-3.2-5.1-4.7-7.7s-3-5.2-4.3-7.9s-2.7-5.4-3.8-8.2
		c1.9,2.4,3.5,4.9,5.2,7.4s3.2,5.1,4.7,7.7s2.9,5.2,4.3,7.9S300.8,172.2,301.9,175z"></path></g></svg>