<svg transform="scale(1)" version="1.1" id="Layer_1" xmlns="http://www.w3.org/2000/svg" xmlns:xlink="http://www.w3.org/1999/xlink" x="0px" y="0px" viewBox="0 0 500 500" xml:space="preserve" class="show_show__wrapper__graphic__5Waiy "><title>React</title><style type="text/css">
	.st0{fill:#EA8383;}
	.st1{fill:#3299F5;}
	.st2{fill:#000001;}
	.st3{fill:#F2EBEB;}
	.st4{clip-path:url(#SVGID_2_);}
	.st5{fill:#A04040;}
</style><g id="character"><path class="st0" d="M361.8,335.6c8.1,4.3,16.1,8.8,24,13.4c4,2.3,7.9,4.6,11.8,7l11.8,7.1l11.7,7.3c3.9,2.5,7.8,4.9,11.6,7.4
		c7.7,5,15.3,10,22.8,15.4c-8.1-4.3-16.1-8.8-24-13.4c-4-2.3-7.9-4.6-11.8-7l-11.8-7.1l-11.7-7.3c-3.9-2.5-7.7-4.9-11.6-7.4
		C376.9,346,369.3,340.9,361.8,335.6z"></path><path class="st0" d="M380.9,320.4c3.1,1.1,6.1,2.4,9,3.9c2.9,1.4,5.7,3,8.5,4.6s5.5,3.3,8.2,5.2c2.7,1.8,5.3,3.8,7.8,5.9
		c-3.1-1.1-6.1-2.4-9-3.9c-2.9-1.4-5.7-3-8.5-4.6s-5.5-3.3-8.2-5.2C386,324.5,383.4,322.5,380.9,320.4z"></path><path class="st1" d="M312.2,252c0,0,22.2-17,49.2,6.8s47.2,58.6,47.2,58.6s-39.1-16.3-56.5,6.3s-83.9,24.3-83.9,24.3l-53.1-118.3
		c0,0,32.9-15.3,49.4,0s31.1,22.6,31.1,22.6L312.2,252z"></path><path class="st2" d="M291.7,342.6c0,0,10.8,24,27.9,32.8s49.9,9.8,49.9,9.8v20.5c0,0-50.3,6.2-88.6-15.5s-44.8-34.6-44.8-34.6
		L291.7,342.6z"></path><path class="st2" d="M287,384.5c0,0,6.1,3.4,11.8,4s5,2,4.4,3.5s-4.5,30.2-4.6,35s-4.2,2.8-4.4-5s0.4-12.9-2-16.6
		s-12.4-7.6-12.4-7.6L287,384.5z"></path><path class="st1" d="M230.2,333.9c0,0-42.8,20.7-32.1,30s86.4,37.8,86.4,37.8l7.1-15.7L249,358.3c0,0,59,1.4,57.2-12.5
		s-14.5-29.7-14.5-29.7L230.2,333.9z"></path><path class="st0" d="M73.8,169.6c0,0-7.8-8.8-7-11.6c0.5-2,4.8,2.6,9.9,7.5c3.8,3.6,27.4,23.3,27.4,23.3l-14.3,17
		c0,0-14.1-15.3-15.2-18.2c0,0-1.4,3.4-2.5,2.9s-3.5-9.4-3.6-10.9c-0.2-2.1,2.1-3.7,2.1-3.7C70,173.2,71.3,170.6,73.8,169.6z"></path><path class="st2" d="M70.6,175.7c0.5,1.4,1,2.8,1.5,4.1c0.5,1.3,1.1,2.6,1.8,3.9c0.3,0.6,0.8,1.1,1.3,1.5c0.1,0.1,0.2,0.1,0.4,0.2
		l0.4,0.1c0.3,0,0.6,0,0.8-0.1c0.5-0.4,0.9-0.9,1.1-1.5c0.3-0.7,0.4-1.4,0.6-2.1c0.1,0.7,0,1.5-0.1,2.2c-0.1,0.8-0.5,1.6-1.2,2.1
		c-0.4,0.3-0.8,0.4-1.3,0.4c-0.2,0-0.4-0.1-0.6-0.1l-0.6-0.3c-0.6-0.5-1.2-1.1-1.6-1.8c-0.7-1.3-1.3-2.7-1.7-4.2
		C70.9,178.7,70.7,177.2,70.6,175.7z"></path><path class="st2" d="M73.8,169.6c0.9,0.3,1.7,0.7,2.4,1.4c0.3,0.3,0.7,0.6,0.9,1c0.3,0.4,0.5,0.9,0.5,1.4c-0.4-0.3-0.7-0.5-1.1-0.8
		s-0.7-0.6-1-0.8C74.8,171,74.2,170.3,73.8,169.6z"></path><path class="st3" d="M173.6,277.9l32-47.5c-12.2,1.4-46-0.9-68.7-16.7s-34.2-28.3-34.2-28.3L84.4,207
		C84.4,207,124.7,264.5,173.6,277.9z"></path><g id="trophy"><g id="trophy-2"><path class="st2" d="M72.8,170c0,0-2.6,10.3-5.6,12.5l9.6,2.2c0,0-1.6-7.8,0.4-13.7L72.8,170z"></path><polygon class="st2" points="56.8,197.8 58.8,183.5 84.7,189.6 79.2,203 			"></polygon><path class="st1" d="M62.7,114.3l47.9,11.2c0,0-2,19.3-11.2,31.9s-19.7,17.5-25,16.2S50.2,154.8,62.7,114.3z"></path><path class="st1" d="M62,123c0,0-14.4-4-15.3-3.6s-4.8,20,0.8,28.1s15.8,11.8,16,11.2l0.6-2.5c0,0-14-4-16.3-14.6
				c-1.4-6.6-1.4-13.4,0-20l14,3.4L62,123z"></path><polygon class="st1" points="61.6,184.2 81.7,188.9 79.7,185.4 64.5,181.8 			"></polygon><path class="st1" d="M107,133.5c0,0,14.7,2.8,15.3,3.6s-4.5,20-13.2,24.9s-19.4,3.6-19.3,3l0.6-2.5c0,0,14.3,2.6,21-5.9
				c4.1-5.3,7.1-11.4,8.8-17.9l-14-3.1L107,133.5z"></path><g><defs><path id="SVGID_1_" d="M62.7,114.3l47.9,11.2c0,0-2,19.3-11.2,31.9s-19.7,17.5-25,16.2S50.2,154.8,62.7,114.3z"></path></defs><clipPath id="SVGID_2_"><use xlink:href="#SVGID_1_" style="overflow: visible;"></use></clipPath><g class="st4"><path class="st3" d="M98.2,213.2c-0.1,0-0.1-0.1-0.1-0.2l21.4-108.2c0-0.1,0.1-0.1,0.2-0.1c0,0,0,0,0,0c0.1,0,0.1,0.1,0.1,0.2
						L98.4,213.1C98.4,213.2,98.3,213.2,98.2,213.2z"></path><path class="st3" d="M87.9,210.8c-0.1,0-0.1-0.1-0.1-0.2c0,0,0,0,0,0l24-107.3c0-0.1,0.1-0.1,0.2-0.1l0,0
						c0.1,0,0.1,0.1,0.1,0.2l-24,107.3C88.1,210.7,88,210.8,87.9,210.8z"></path><path class="st3" d="M78.3,208.5c-0.1,0-0.1-0.1-0.1-0.2c0,0,0,0,0,0l25.2-107c0-0.1,0.1-0.1,0.2-0.1c0.1,0,0.1,0.1,0.1,0.2
						l-25.2,107C78.5,208.5,78.4,208.5,78.3,208.5z"></path><path class="st3" d="M69.2,206.4L69.2,206.4c-0.1,0-0.1-0.1-0.1-0.2L95.3,99.3c0-0.1,0.1-0.1,0.2-0.1l0,0
						c0.1,0,0.1,0.1,0.1,0.2L69.4,206.2C69.4,206.3,69.3,206.4,69.2,206.4z"></path><path class="st3" d="M59.4,204L59.4,204c-0.1,0-0.1-0.1-0.1-0.2c0,0,0,0,0,0L88.4,97.7c0-0.1,0.1-0.1,0.2-0.1
						c0.1,0,0.1,0.1,0.1,0.2L59.6,203.9C59.5,204,59.5,204,59.4,204z"></path><path class="st3" d="M51.1,202.1L51.1,202.1c-0.1,0-0.1-0.1-0.1-0.2c0,0,0,0,0,0L81,96c0-0.1,0.1-0.1,0.2-0.1c0,0,0,0,0,0l0,0
						c0.1,0,0.1,0.1,0.1,0.2c0,0,0,0,0,0L51.2,202C51.2,202.1,51.1,202.1,51.1,202.1z"></path><path class="st3" d="M45.8,200.9L45.8,200.9c-0.1,0-0.1-0.1-0.1-0.2c0,0,0,0,0,0L76.2,94.9c0-0.1,0.1-0.1,0.2-0.1c0,0,0,0,0,0
						c0.1,0,0.1,0.1,0.1,0.2c0,0,0,0,0,0L46,200.8C46,200.8,45.9,200.9,45.8,200.9C45.8,200.9,45.8,200.9,45.8,200.9z"></path><path class="st3" d="M41.2,199.8L41.2,199.8c-0.1,0-0.1-0.1-0.1-0.2L70.2,93.5c0-0.1,0.1-0.1,0.2-0.1c0.1,0,0.1,0.1,0.1,0.2
						L41.4,199.7C41.4,199.7,41.3,199.8,41.2,199.8z"></path><path class="st3" d="M146.7,140.4L23,111.2c-0.1,0-0.1-0.1-0.1-0.2c0-0.1,0.1-0.1,0.2-0.1l0,0L146.7,140c0.1,0,0.1,0.1,0.1,0.2
						C146.8,140.3,146.8,140.4,146.7,140.4z"></path><path class="st3" d="M25.5,107.2c-0.1,0-0.1-0.1-0.1-0.2c0,0,0,0,0,0c0-0.1,0.1-0.1,0.2-0.1l122.3,27.7l0,0
						c0.1,0,0.1,0.1,0.1,0.2c0,0,0,0,0,0c0,0.1-0.1,0.1-0.2,0.1L25.5,107.2z"></path><path class="st3" d="M149.2,128.8l-94.4-22.3c-0.1,0-0.1-0.1-0.1-0.2c0-0.1,0.1-0.1,0.2-0.1l0,0l94.4,22.3
						c0.1,0,0.1,0.1,0.1,0.2c0,0,0,0,0,0C149.4,128.8,149.3,128.9,149.2,128.8C149.2,128.8,149.2,128.8,149.2,128.8z"></path><path class="st3" d="M150.6,123L150.6,123l-94.3-22.9c-0.1,0-0.1-0.1-0.1-0.2c0-0.1,0.1-0.1,0.2-0.1c0,0,0,0,0,0l0,0l94.3,22.9
						c0.1,0,0.1,0.1,0.1,0.2C150.8,122.9,150.7,123,150.6,123L150.6,123z"></path><path class="st3" d="M151.7,118.1L151.7,118.1L57.9,93c-0.1,0-0.1-0.1-0.1-0.2c0-0.1,0.1-0.1,0.2-0.1l0,0l93.8,25
						c0.1,0,0.1,0.1,0.1,0.2C151.9,118,151.8,118,151.7,118.1L151.7,118.1z"></path><path class="st3" d="M153,112.8L153,112.8L59.3,87.1c-0.1,0-0.1-0.1-0.1-0.2c0-0.1,0.1-0.1,0.2-0.1l93.6,25.7
						c0.1,0,0.1,0.1,0.1,0.2C153.1,112.7,153.1,112.7,153,112.8z"></path><path class="st3" d="M153.8,109.3L153.8,109.3l-93.6-26c-0.1,0-0.1-0.1-0.1-0.2c0,0,0,0,0,0c0-0.1,0.1-0.1,0.2-0.1l93.6,26
						c0.1,0,0.1,0.1,0.1,0.2C153.9,109.3,153.9,109.4,153.8,109.3C153.8,109.4,153.8,109.4,153.8,109.3z"></path><path class="st3" d="M154.8,105.1L154.8,105.1L61,80.1c-0.1,0-0.1-0.1-0.1-0.2c0-0.1,0.1-0.1,0.2-0.1l93.8,25
						c0.1,0,0.1,0.1,0.1,0.2C155,105,154.9,105.1,154.8,105.1C154.8,105.1,154.8,105.1,154.8,105.1L154.8,105.1z"></path><path class="st3" d="M-8.8,129.8c-0.1,0-0.1-0.1-0.1-0.2c0-0.1,0.1-0.1,0.2-0.1l156.2,33.9c0.1,0,0.1,0.1,0.1,0.2c0,0,0,0,0,0
						c0,0.1-0.1,0.1-0.2,0.1L-8.8,129.8z"></path><path class="st3" d="M-7,122.5c-0.1,0-0.1-0.1-0.1-0.2c0,0,0,0,0,0c0-0.1,0.1-0.1,0.2-0.1c0,0,0,0,0,0l155.4,35.8l0,0
						c0.1,0,0.1,0.1,0.1,0.2c0,0.1-0.1,0.1-0.2,0.1L-7,122.5z"></path><path class="st3" d="M149.8,152.2L-5.4,115.6c-0.1,0-0.1-0.1-0.1-0.2c0-0.1,0.1-0.1,0.2-0.1c0,0,0,0,0,0l155.2,36.6
						c0.1,0,0.1,0.1,0.1,0.2C150,152.2,149.9,152.2,149.8,152.2z"></path><path class="st3" d="M151.3,146.4L151.3,146.4L-3.9,109.1c-0.1,0-0.1-0.1-0.1-0.2c0-0.1,0.1-0.1,0.2-0.1c0,0,0,0,0,0l0,0
						l155.1,37.3c0.1,0,0.1,0.1,0.1,0.2c0,0,0,0,0,0C151.4,146.3,151.4,146.4,151.3,146.4z"></path><path class="st3" d="M152.4,141.4L152.4,141.4L-2.2,102.1c-0.1,0-0.1-0.1-0.1-0.2c0-0.1,0.1-0.1,0.2-0.1l0,0l154.6,39.3
						c0.1,0,0.1,0.1,0.1,0.2c0,0,0,0,0,0C152.5,141.4,152.4,141.4,152.4,141.4z"></path><path class="st3" d="M153.6,136.1L153.6,136.1l-154.4-40C-0.9,96.1-1,96-1,96c0,0,0,0,0,0c0-0.1,0.1-0.1,0.2-0.1c0,0,0,0,0,0
						l154.4,40c0.1,0,0.1,0.1,0.1,0.2c0,0,0,0,0,0C153.7,136.1,153.6,136.1,153.6,136.1z"></path><path class="st3" d="M154.4,132.7L154.4,132.7L0,92.3c-0.1,0-0.1-0.1-0.1-0.2c0-0.1,0.1-0.1,0.2-0.1l154.3,40.4
						c0.1,0,0.1,0.1,0.1,0.2C154.5,132.7,154.4,132.7,154.4,132.7z"></path><path class="st3" d="M155.4,128.4L155.4,128.4L0.8,89.1c-0.1,0-0.1-0.1-0.1-0.2c0-0.1,0.1-0.1,0.1-0.1c0,0,0,0,0,0l154.6,39.3
						c0.1,0,0.1,0.1,0.1,0.2C155.6,128.4,155.5,128.5,155.4,128.4z"></path><path class="st3" d="M42.9,183.8c-0.1,0-0.1-0.1-0.1-0.2l17-89.3c0-0.1,0.1-0.1,0.2-0.1c0,0,0,0,0,0c0.1,0,0.1,0.1,0.1,0.2
						l-17,89.3C43.1,183.8,43,183.8,42.9,183.8C42.9,183.8,42.9,183.8,42.9,183.8L42.9,183.8z"></path><path class="st3" d="M32.6,181.4c-0.1,0-0.1-0.1-0.1-0.2L52,92.8c0-0.1,0.1-0.1,0.2-0.1c0.1,0,0.1,0.1,0.1,0.2c0,0,0,0,0,0
						l-19.6,88.5C32.7,181.4,32.6,181.4,32.6,181.4L32.6,181.4z"></path><path class="st3" d="M23,179.1c-0.1,0-0.1-0.1-0.1-0.2c0,0,0,0,0,0l20.8-88.2c0-0.1,0.1-0.1,0.2-0.1c0.1,0,0.1,0.1,0.1,0.2
						L23.1,179C23.1,179.1,23.1,179.1,23,179.1z"></path><path class="st3" d="M13.9,177L13.9,177c-0.1,0-0.1-0.1-0.1-0.2c0,0,0,0,0,0l21.7-88c0-0.1,0.1-0.1,0.2-0.1c0,0,0,0,0,0l0,0
						c0.1,0,0.1,0.1,0.1,0.2l-21.7,88C14,177,13.9,177,13.9,177z"></path><path class="st3" d="M4,174.7L4,174.7c-0.1,0-0.1-0.1-0.1-0.2l24.7-87.3c0-0.1,0.1-0.1,0.2-0.1c0.1,0,0.1,0.1,0.1,0.1
						L4.2,174.6C4.2,174.6,4.1,174.7,4,174.7C4,174.7,4,174.7,4,174.7z"></path><path class="st3" d="M-4.3,172.7L-4.3,172.7c-0.1,0-0.1-0.1-0.1-0.2c0,0,0,0,0,0l25.5-87.1c0-0.1,0.1-0.1,0.2-0.1
						c0.1,0,0.1,0.1,0.1,0.2l0,0l-25.5,87.1C-4.1,172.7-4.2,172.7-4.3,172.7z"></path><path class="st3" d="M-9.6,171.5L-9.6,171.5c-0.1,0-0.1-0.1-0.1-0.2l26.1-86.9c0-0.1,0.1-0.1,0.2-0.1c0.1,0,0.1,0.1,0.1,0.2
						c0,0,0,0,0,0l-26.1,87C-9.4,171.5-9.5,171.5-9.6,171.5z"></path><path class="st3" d="M-14.1,170.4L-14.1,170.4c-0.1,0-0.1-0.1-0.1-0.2l24.6-87.3c0-0.1,0.1-0.1,0.2-0.1c0,0,0,0,0,0
						c0.1,0,0.1,0.1,0.1,0.2l-24.6,87.3C-14,170.4-14,170.4-14.1,170.4z"></path><path class="st3" d="M-16,173.9c-0.1,0-0.1-0.1-0.1-0.2c0-0.1,0.1-0.1,0.2-0.1l156.2,33.9c0.1,0,0.1,0.1,0.1,0.2c0,0,0,0,0,0
						c0,0.1-0.1,0.1-0.2,0.1c0,0,0,0,0,0L-16,173.9z"></path><path class="st3" d="M-14.3,166.5c-0.1,0-0.1-0.1-0.1-0.2c0-0.1,0.1-0.1,0.2-0.1l155.4,35.8l0,0c0.1,0,0.1,0.1,0.1,0.2
						c0,0.1-0.1,0.1-0.2,0.1c0,0,0,0,0,0L-14.3,166.5L-14.3,166.5z"></path><path class="st3" d="M142.5,196.2l-155.2-36.6c-0.1,0-0.1-0.1-0.1-0.2c0,0,0,0,0,0c0-0.1,0.1-0.1,0.2-0.1L142.6,196
						c0.1,0,0.1,0.1,0.1,0.2c0,0,0,0,0,0C142.7,196.2,142.6,196.3,142.5,196.2z"></path><path class="st3" d="M144,190.4L144,190.4l-155.2-37.3c-0.1,0-0.1-0.1-0.1-0.2c0-0.1,0.1-0.1,0.2-0.1c0,0,0,0,0,0l0,0
						l155.1,37.3c0.1,0,0.1,0.1,0.1,0.2c0,0,0,0,0,0C144.2,190.4,144.1,190.4,144,190.4z"></path><path class="st3" d="M145.1,185.4L145.1,185.4L-9.5,146.1c-0.1,0-0.1-0.1-0.1-0.2c0,0,0,0,0,0c0-0.1,0.1-0.1,0.2-0.1
						l154.6,39.4c0.1,0,0.1,0.1,0.1,0.2C145.3,185.4,145.2,185.5,145.1,185.4C145.1,185.5,145.1,185.5,145.1,185.4z"></path><path class="st3" d="M146.3,180.1L146.3,180.1l-154.4-40c-0.1,0-0.1-0.1-0.1-0.2c0-0.1,0.1-0.1,0.2-0.1l154.4,40
						c0.1,0,0.1,0.1,0.1,0.2C146.5,180.1,146.4,180.2,146.3,180.1z"></path><path class="st3" d="M147.1,176.8L147.1,176.8L-7.2,136.4c-0.1,0-0.1-0.1-0.1-0.2c0,0,0,0,0,0c0-0.1,0.1-0.1,0.2-0.1
						l154.4,40.4c0.1,0,0.1,0.1,0.1,0.2C147.3,176.7,147.2,176.8,147.1,176.8C147.1,176.8,147.1,176.8,147.1,176.8L147.1,176.8z"></path><path class="st3" d="M148.1,172.5L148.1,172.5L-6.5,133.1c-0.1,0-0.1-0.1-0.1-0.2c0-0.1,0.1-0.1,0.2-0.1l154.6,39.3
						c0.1,0,0.1,0.1,0.1,0.2C148.3,172.4,148.2,172.5,148.1,172.5C148.1,172.5,148.1,172.5,148.1,172.5z"></path></g></g><path class="st3" d="M64.8,119.5c-0.7,3.3-1.3,6.5-1.8,9.8c-0.5,3.2-0.8,6.5-0.9,9.8c-0.1,3.2,0.1,6.5,0.6,9.7
				c0.3,1.6,0.7,3.2,1.2,4.7c0.5,1.6,1.2,3.1,1.9,4.6c-1.1-1.3-2.1-2.7-2.8-4.2c-0.7-1.5-1.3-3.1-1.8-4.8c-0.8-3.3-1.2-6.7-1.1-10.1
				c0.1-3.4,0.6-6.7,1.4-10C62.2,125.7,63.3,122.6,64.8,119.5z"></path><path class="st3" d="M66.6,160.6c0,0,1.1,2.5,1.3,1.6S66.6,160.6,66.6,160.6z"></path></g></g><path class="st0" d="M82.6,172.3c0,0-10,4.2-10.4,6.1s10,1.2,10,1.2s-3.6,2.9-0.1,7.9"></path><path class="st2" d="M82.6,172.3c-1.7,0.9-3.3,1.8-5,2.7c-0.8,0.5-1.6,0.9-2.4,1.4c-0.8,0.5-1.5,1-2.2,1.6
		c-0.1,0.1-0.2,0.3-0.3,0.4c0,0.1,0,0,0,0.1c0.3,0.2,0.7,0.3,1.1,0.4c0.9,0.2,1.8,0.2,2.8,0.3c1.9,0.1,3.8,0.1,5.6,0h1.2l-0.9,0.8
		c-0.5,0.4-0.9,1-1.2,1.6c-0.3,0.6-0.4,1.3-0.4,2c0,0.7,0.1,1.4,0.3,2.1c0.1,0.3,0.3,0.7,0.4,1l0.5,1l-0.6-0.9
		c-0.2-0.3-0.4-0.6-0.5-1c-0.3-0.7-0.5-1.4-0.6-2.1c0-0.8,0.1-1.5,0.3-2.3c0.3-0.8,0.7-1.4,1.3-2l0.3,0.7c-1.9,0.2-3.8,0.2-5.7,0.1
		c-1,0-1.9-0.1-2.9-0.3c-0.6-0.1-1.1-0.3-1.5-0.6c-0.2-0.1-0.3-0.3-0.3-0.5c-0.1-0.2-0.1-0.4,0-0.6c0.1-0.3,0.3-0.5,0.5-0.7
		c1.5-1.2,3.2-2.3,5-3C79,173.6,80.8,172.9,82.6,172.3z"></path><path class="st3" d="M232.1,333.9c0,0-68.2-56.1-63.1-79.6s57.6-34.9,73.2-29.8s49.4,91.7,49.4,91.7L232.1,333.9z"></path><path class="st2" d="M193.4,263.4l-8.7-1.1c-1.2-1.8-3.2-3-5.3-3.4c-3.6-0.6-3.8,2.3-3.8,2.3l-8.3-1l1.2,5.5l24.3,1.8L193.4,263.4z
		"></path><path class="st3" d="M198.4,266.2c0,0-33.8-4.6-33.9-3.5s7.3,52.1,7.3,52.1s32,3.5,32.6,2.4S198.4,266.2,198.4,266.2z"></path><path class="st1" d="M196.7,266.1c0,0-33.8-4.6-33.9-3.5s7.3,52.1,7.3,52.1s32,3.5,32.6,2.4S196.7,266.1,196.7,266.1z"></path><path class="st0" d="M218.6,297.3c0,0-6.1-0.5-7.3-1.5s-10.2-11.3-10.2-11.3l-0.7,7.8c0,0-13.2-8.1-15-8.1s0.3,3.4,1.3,4.4
		s-3.1-2.9-4.7-2.3s1.5,3.9,5.2,6.8c0,0-6.6-3.1-6.3-1.2s9.4,7.9,9.4,7.9s-4.6-2.4-5.9-1.4s5.3,3.9,9.8,6.7s20.9,10.1,20.9,10.1
		L218.6,297.3z"></path><path class="st2" d="M198.2,295.9c-2.5-0.9-4.8-2.1-7-3.5c-1.1-0.7-2.2-1.5-3.2-2.3c-1.1-0.8-1.9-1.8-2.6-3c0.9,0.9,1.9,1.7,3,2.4
		c1.1,0.7,2.2,1.4,3.2,2.1C193.9,292.9,196.1,294.3,198.2,295.9z"></path><path class="st2" d="M196.9,300.1c-2.6-1.4-5-2.9-7.3-4.7c-1.2-0.9-2.3-1.8-3.4-2.7c-1.1-0.9-2.1-2-3-3.1c1.1,0.9,2.3,1.7,3.5,2.5
		s2.3,1.7,3.5,2.5C192.5,296.4,194.8,298.2,196.9,300.1z"></path><path class="st2" d="M194.8,302.9c-2.3-0.9-4.4-2.1-6.4-3.4c-1-0.7-2-1.4-2.9-2.2c-1-0.8-1.8-1.7-2.4-2.8c0.9,0.8,1.8,1.5,2.9,2.2
		l3,2C190.9,300,192.9,301.3,194.8,302.9z"></path><path class="st3" d="M237.8,227.1c-1.7-5.8,20.5-2.4,35,15.7c20.7,25.7,46.2,54.7,35.1,74.6c-16.7,29.9-92.7-2.2-92.7-2.2l3.4-17.9
		l49.7-1.4L237.8,227.1z"></path><path class="st2" d="M218.6,297.3c4.1-0.4,8.3-0.6,12.4-0.9s8.3-0.5,12.4-0.7s8.3-0.4,12.4-0.5c4.1-0.1,8.3-0.3,12.4-0.4l-0.8,1.6
		c-4.1-5.5-8.2-11-12.2-16.5c-2-2.8-4-5.6-6-8.4c-1.9-2.8-3.9-5.6-5.9-8.5c2.2,2.6,4.4,5.3,6.6,7.9s4.3,5.3,6.4,8
		c4.3,5.4,8.5,10.8,12.6,16.2l1.1,1.5l-1.9,0.1c-4.1,0.1-8.3,0.2-12.4,0.3s-8.3,0.1-12.4,0.2s-8.3,0.1-12.4,0
		S222.7,297.5,218.6,297.3z"></path><path class="st2" d="M364.3,387.5c0,0,7,0.6,12.5-1s5.4-0.2,5.5,1.5s8,29.5,9.8,33.9s-2.8,4.2-6.1-2.8s-4.8-12-8.5-14.4
		s-14.4-2-14.4-2L364.3,387.5z"></path><path class="st1" d="M185.2,234.5c0,0-1.2,10.6,13.8,9.7s31.4-17.2,45.4-18.6s30.7,22.8,43.7,29.3s24.1-2.8,24.1-2.8
		s-24.1-1-35.2-20.4S210.4,208.1,185.2,234.5z"></path><path class="st0" d="M197.2,194c0,0-8.7,14.2-8.2,14.6c0.8,0.3,1.7,0.4,2.5,0.4c0,0-5.1,10.2-6.3,25.4c0,0,16,2.6,25-2
		c0,0,9.8-38,6.9-40S197.2,194,197.2,194z"></path><path class="st5" d="M220.2,190.4c1.3,2.6-4.7,19.7-4.7,19.7s-5.6,2.6-6,1s3.5-8.7,3.5-8.7c-3-1.6-4.3-6.1-4.3-6.1l-11.4-2.3
		c0,0-8.2-0.9-8.9-5.6s4.8-11,5.2-8.9s-0.9,4.1,1,3.7s4.9-4.5,5.1-0.2s2.9,7,5.4,5.6S219.2,188.5,220.2,190.4z"></path><path class="st3" d="M205.3,204.4c0,0-4.6-3.5-7.8,0.4c-0.2,0.3-0.2,0.7,0.1,0.9c0,0,0,0,0.1,0.1
		C199.1,206.6,202.9,208.2,205.3,204.4z"></path><path class="st2" d="M205.6,204.4c-0.8-0.3-1.5-0.5-2.3-0.7c-0.7-0.2-1.5-0.3-2.2-0.3c-1.5,0-3,0.7-4,1.8c0.2-0.8,0.8-1.5,1.5-2
		c0.7-0.5,1.6-0.8,2.5-0.8C202.7,202.5,204.4,203.2,205.6,204.4L205.6,204.4z"></path><path class="st2" d="M200.2,203c0,0,1.4,0.9-0.1,3.7c0,0-3.6-0.7-2.9-1.7C197.2,205,199,202.7,200.2,203z"></path><path class="st2" d="M202.6,211.9c0.2,0.6,0.1,1.3-0.1,1.9c-0.2,0.6-0.6,1.2-1.1,1.6c-0.6,0.5-1.4,0.7-2.1,0.6
		c-0.7-0.1-1.3-0.6-1.6-1.3c0.5,0,1-0.1,1.5-0.2c0.3-0.2,0.6-0.4,0.9-0.6c0.3-0.2,0.7-0.6,1.1-0.9
		C201.6,212.6,202.1,212.2,202.6,211.9z"></path><path class="st5" d="M208,202.7c-0.8,0-1.7-0.2-2.4-0.4c-0.6-0.2-1.1-0.5-1.6-0.9c-0.4-0.3-0.8-0.7-1.2-1.2c-0.4-0.5-0.7-1-1.4-1.9
		c0.6-0.7,1.6-1.1,2.6-1c1.7,0.1,3.1,1.2,3.8,2.7C208.1,200.9,208.2,201.8,208,202.7z"></path><path class="st2" d="M215.1,315.2c4.6,1.7,9.2,3.3,13.9,4.8s9.4,2.8,14.1,4c9.4,2.5,19.1,4.2,28.8,4.9c4.8,0.4,9.7,0.3,14.5-0.2
		c2.4-0.3,4.7-0.8,7-1.5c2.3-0.7,4.4-1.7,6.5-3c4.1-2.6,7.1-6.5,8.5-11.1c1.5-4.7,1.8-9.6,0.9-14.4c0.6,2.4,0.9,4.9,0.9,7.3
		c0,2.5-0.3,5-0.9,7.4c-1.3,5-4.3,9.3-8.6,12.1c-2.1,1.4-4.4,2.6-6.8,3.4c-2.4,0.8-4.9,1.3-7.3,1.7c-4.9,0.6-9.9,0.7-14.9,0.3
		c-1.2-0.1-2.5-0.1-3.7-0.3l-3.7-0.5l-1.8-0.2l-1.8-0.3l-3.7-0.6c-2.4-0.5-4.8-1-7.2-1.6s-4.8-1.2-7.1-1.9
		C233.3,322.8,224.1,319.3,215.1,315.2z"></path><path class="st3" d="M224.2,233.8c1.6-1.4,3.3-2.7,5.1-3.8c1.8-1.1,3.7-2.1,5.7-3c4-1.8,8.3-2.6,12.7-2.2c2.2,0.2,4.4,0.8,6.4,1.7
		c2,1,3.8,2.2,5.5,3.7c3.2,2.8,6.2,5.8,9.3,8.7s6.1,5.8,9.4,8.4c3.2,2.7,6.7,5,10.4,6.9c3.7,1.9,7.8,2.7,12,2.5
		c2.1-0.2,4.1-0.7,6-1.5l1.4-0.7c0.5-0.2,0.9-0.5,1.4-0.8c0.9-0.5,1.8-1.1,2.7-1.7c-1.6,1.4-3.4,2.6-5.3,3.6c-1.9,1-4,1.6-6.1,2
		c-4.3,0.5-8.8-0.2-12.7-2c-3.9-1.8-7.6-4.1-11-6.8c-3.4-2.6-6.5-5.5-9.6-8.4s-6.1-5.9-9.2-8.7c-1.5-1.4-3.2-2.6-5-3.5
		c-1.8-0.9-3.8-1.5-5.8-1.7c-4.1-0.4-8.3,0.1-12.2,1.6C231.4,229.4,227.6,231.3,224.2,233.8z"></path></g><g id="paper"><path class="st3" d="M454.3,156.1c1,4.2-34.5,36.6-34.5,36.6s-11.5-34.4-49-36.6l16.4-46.1C387.2,110,443.6,111.6,454.3,156.1z"></path><path class="st1" d="M397.1,126.2c-0.6,2-1.3,4-2.1,6c-0.8,1.9-1.7,3.8-2.6,5.7s-1.9,3.7-3,5.5c-1.1,1.8-2.2,3.6-3.5,5.2
		c0.6-2,1.3-4,2.1-5.9c0.8-1.9,1.7-3.8,2.6-5.7s2-3.7,3-5.5C394.6,129.6,395.8,127.8,397.1,126.2z"></path><path class="st1" d="M404.9,132.2c-0.4,1.6-0.9,3.2-1.6,4.8c-0.6,1.6-1.3,3.1-2.1,4.6c-0.8,1.5-1.6,2.9-2.5,4.4
		c-0.9,1.4-1.9,2.8-3,4.1c0.4-1.6,0.9-3.3,1.6-4.8c0.6-1.6,1.3-3.1,2.1-4.6s1.6-2.9,2.5-4.4C402.8,134.9,403.8,133.5,404.9,132.2z"></path><path class="st1" d="M412.2,140.4c-0.3,1.1-0.7,2.2-1.1,3.2c-1,2-2.2,3.8-3.6,5.5c-0.7,0.9-1.6,1.6-2.5,2.3
		c0.3-1.1,0.6-2.2,1.1-3.2c0.5-1,1-1.9,1.6-2.9c0.6-0.9,1.3-1.8,2-2.6C410.5,141.9,411.3,141.1,412.2,140.4z"></path><path class="st3" d="M69.5,313.3c1.4-3.2,39.8-9,39.8-9s-9.7,28,12.8,46l-33,23.3C89.1,373.6,54.4,347.6,69.5,313.3z"></path><path class="st1" d="M90.8,358.5c1.3-1.2,2.7-2.2,4.2-3.1c1.4-0.9,2.9-1.8,4.4-2.6s3.1-1.6,4.7-2.3c1.6-0.7,3.2-1.3,4.9-1.8
		c-1.3,1.1-2.7,2.2-4.2,3.1c-1.4,0.9-2.9,1.8-4.4,2.6s-3.1,1.6-4.6,2.3C94.1,357.5,92.5,358.1,90.8,358.5z"></path><path class="st1" d="M88.8,351.1c1-1,2.1-1.9,3.3-2.6c1.1-0.8,2.3-1.5,3.5-2.1c1.2-0.7,2.5-1.2,3.7-1.8c1.3-0.5,2.6-1,4-1.3
		c-1,1-2.1,1.9-3.3,2.6c-1.1,0.8-2.3,1.5-3.5,2.1c-1.2,0.7-2.5,1.2-3.7,1.8C91.6,350.3,90.2,350.8,88.8,351.1z"></path><path class="st1" d="M88.3,342.4c0.6-0.7,1.4-1.3,2.2-1.7c0.8-0.5,1.6-0.9,2.4-1.2c0.8-0.3,1.7-0.6,2.6-0.8
		c0.9-0.2,1.9-0.3,2.8-0.3c-0.6,0.7-1.4,1.3-2.2,1.7c-0.8,0.5-1.6,0.9-2.4,1.2c-0.8,0.3-1.7,0.6-2.6,0.8
		C90.2,342.3,89.2,342.4,88.3,342.4z"></path><path class="st3" d="M212.7,77.5l-22.1-8.2c-1-0.4-16.4,43.8-16.8,44.8s32,13.9,32.7,12.2s12.6-31.5,12.6-31.5
		C215.4,89.9,212.7,77.5,212.7,77.5z"></path><path class="st3" d="M277.5,165c-0.7-2.1,20-17.6,20-17.6s7.4,17.2,29.8,18.9l-9,22.6C318.4,188.9,284.6,187.2,277.5,165z"></path><path class="st1" d="M155.3,430.8c0.8-2.4,0.9-4.9,0.2-7.4c-0.6-2.3-2.1-4.3-4.2-5.5c-1-0.6-2.1-0.8-3.2-0.9c-1.1,0-2.2,0.3-3.1,1
		c-1.9,1.4-3.3,3.3-3.9,5.6c-0.2,0.5-0.3,1-0.3,1.6c0,0.5,0.1,0.8,0.3,0.9c0.4,0.2,0.8,0.2,1.2,0.2c0.5-0.1,1.1-0.2,1.6-0.4
		c2.2-0.9,4.3-2.3,6-3.9c1.8-1.6,3.2-3.6,4.2-5.8c1-2.1,1-4.6,0.2-6.7c-0.4-1.1-1.1-2.1-1.9-3c-0.8-0.9-1.7-1.6-2.7-2.2
		c-2.1-1-4.6-1-6.6,0c-2.2,1-4,2.6-5.1,4.8c-0.5,1-0.7,2.2-0.1,2.8c0.9,0.6,2,0.7,3,0.4c1.1-0.3,2.2-1,3-1.8
		c0.9-0.9,1.6-1.9,2.2-2.9c1.3-2.2,2.2-4.5,2.8-7c0.7-2.4,0.8-5,0.3-7.4c-0.2-1.2-1-2.3-2.1-2.9c-1.2-0.4-2.5-0.3-3.7,0.3
		c1.1-0.6,2.5-0.8,3.7-0.5c0.6,0.2,1.2,0.6,1.6,1.2c0.4,0.5,0.7,1.1,0.8,1.8c0.6,2.5,0.6,5.2,0,7.7c-0.5,2.5-1.4,5-2.6,7.3
		c-0.6,1.2-1.4,2.2-2.3,3.2c-0.9,1-2.1,1.8-3.4,2.2c-0.7,0.2-1.4,0.3-2.1,0.2c-0.8,0-1.5-0.3-2.1-0.8c-0.6-0.6-0.9-1.4-0.9-2.2
		c0.1-0.7,0.2-1.4,0.6-2.1c0.6-1.2,1.4-2.3,2.4-3.3c1-0.9,2.1-1.7,3.3-2.3c1.3-0.6,2.6-0.9,4-1c1.4,0,2.8,0.3,4.1,0.9
		c1.2,0.6,2.3,1.5,3.2,2.5c0.9,1,1.7,2.2,2.2,3.5c0.5,1.3,0.8,2.7,0.8,4.1c-0.1,1.4-0.4,2.7-0.9,4c-1.1,2.5-2.6,4.7-4.6,6.5
		c-1.9,1.9-4.2,3.4-6.7,4.4c-0.7,0.3-1.4,0.4-2.1,0.5c-0.9,0.1-1.8-0.1-2.5-0.5c-0.4-0.3-0.7-0.7-0.9-1.2c-0.2-0.4-0.2-0.9-0.2-1.3
		c0-0.7,0.2-1.5,0.4-2.2c0.4-1.3,1-2.5,1.8-3.7c0.8-1.2,1.8-2.2,3-2.9c1.2-0.8,2.7-1.1,4.1-1.1c1.4,0,2.8,0.5,4,1.3
		c2.3,1.5,3.9,3.9,4.3,6.6C156.8,425.7,156.4,428.4,155.3,430.8z"></path><polygon class="st1" points="212.7,77.5 207.9,92.5 219.1,94.6 	"></polygon></g></svg>